SplineFontDB: 3.0
FontName: CMUSerif-BoldSlanted
FullName: CMU Serif Bold Extended Slanted Roman
FamilyName: CMU Serif Extra
Weight: Bold
Copyright: Converted by Andrey V. Panov from TeX fonts. Some glyphs are copied from Blue Sky fonts released by AMS.
UComments: "2009-6-18: Created." 
Version: 0.7.0
ItalicAngle: -9.46
UnderlinePosition: -100
UnderlineWidth: 50
Ascent: 800
Descent: 200
LayerCount: 2
Layer: 0 0 "+BBcEMAQ0BD0EOAQ5 +BD8EOwQwBD0A"  1
Layer: 1 0 "+BB8ENQRABDUENAQ9BDgEOQAA +BD8EOwQwBD0A"  0
NeedsXUIDChange: 1
XUID: [1067 6249849]
FSType: 0
OS2Version: 0
OS2_WeightWidthSlopeOnly: 0
OS2_UseTypoMetrics: 1
CreationTime: 1245310327
ModificationTime: 1245311012
PfmFamily: 17
TTFWeight: 700
TTFWidth: 5
LineGap: 200
VLineGap: 90
OS2TypoAscent: 0
OS2TypoAOffset: 1
OS2TypoDescent: 0
OS2TypoDOffset: 1
OS2TypoLinegap: 200
OS2WinAscent: 937
OS2WinAOffset: 0
OS2WinDescent: 308
OS2WinDOffset: 0
HheadAscent: 937
HheadAOffset: 0
HheadDescent: -308
HheadDOffset: 0
Lookup: 1 0 0 "Case substitutions"  {"Case substitutions subtable"  } ['case' ('cyrl' <'dflt' > 'grek' <'dflt' > 'latn' <'dflt' > ) ]
Lookup: 1 0 0 "LC small to smallcaps"  {"LC small to smallcaps subtable"  } ['smcp' ('latn' <'dflt' > 'cyrl' <'dflt' > ) ]
Lookup: 1 0 0 "LC caps to smallcaps"  {"LC caps to smallcaps subtable"  } ['c2sc' ('latn' <'dflt' > 'cyrl' <'dflt' > ) ]
Lookup: 3 0 0 "Greek alternatives"  {"Greek alternatives subtable"  } ['salt' ('grek' <'dflt' > ) ]
Lookup: 1 0 0 "Greek substitutions"  {"Greek substitutions subtable"  } ['locl' ('grek' <'dflt' > ) ]
Lookup: 4 0 1 "Latin Dutch ligatures"  {"Latin Dutch ligatures subtable"  } ['liga' ('latn' <'NLD ' > ) ]
Lookup: 4 0 1 "Latin ligatures excepting Turkic"  {"Latin ligatures excepting Turkic subtable"  } ['liga' ('latn' <'dflt' 'NLD ' 'VIT ' > ) ]
Lookup: 4 0 1 "Latin ligatures"  {"Latin ligatures subtable"  } ['liga' ('latn' <'dflt' 'NLD ' 'VIT ' 'TRK ' 'AZE ' > ) ]

StartChar: .notdef
Encoding: 0 0 0
Width: 760
Flags: HW
HStem: 10 60<105 655> 705 60<105 655>
VStem: 10 60<112 663> 690 60<112 663>
DStem2: 105 705 70 663 0.702289 -0.711892<5.31938 389.612 448.699 832.991> 70 112 105 70 0.702289 0.711892<0 384.292 443.379 827.672>
LayerCount: 2
Fore
SplineSet
10 10 m 1
 10 765 l 1
 750 765 l 1
 750 10 l 1
 10 10 l 1
70 112 m 1
 346 388 l 1
 70 663 l 1
 70 112 l 1
105 70 m 1
 655 70 l 1
 380 346 l 1
 105 70 l 1
105 705 m 1
 380 429 l 1
 655 705 l 1
 105 705 l 1
414 388 m 1
 690 112 l 1
 690 663 l 1
 414 388 l 1
EndSplineSet
EndChar

StartChar: uni262D
Encoding: 9773 9773 1
Width: 700
Flags: HW
TeX: 117 0
HStem: -1 21G<56 93 593.5 601> 39 76<321.786 462.78> 102 51<140.549 177.987>
VStem: 129 54<101.776 137.734> 556 82<197.341 366.709>
DStem2: 123 357 178 301 0.707107 0.707107<0 86.9741 130.108 182.434>
LayerCount: 2
Fore
SplineSet
40 18 m 0
 40 64 129 102 129 128 c 0
 129 148 134 153 148 153 c 0xb8
 162 153 164 157 182 180 c 1
 229 156 307 115 390 115 c 0
 438 115 463 128 463 129 c 0
 463 135 406 186 240 363 c 1
 178 301 l 1
 123 357 l 1
 252 486 l 1
 347 470 l 1
 271 393 l 1
 484 190 l 1
 513 165 l 1
 519 165 556 218 556 295 c 0
 556 473 346 588 346 593 c 1
 394 593 638 478 638 267 c 0
 638 167 592 118 580 100 c 1
 636 44 637 42 637 38 c 0xd8
 637 17 605 -1 597 -1 c 2
 596 -1 l 2
 591 -1 590 1 529 62 c 1
 500 51 474 39 428 39 c 0xd8
 297 39 201 138 188 138 c 0
 183 138 182 134 182 130 c 0
 182 126 183 123 183 118 c 0
 183 108 178 102 168 102 c 0
 131 102 122 0 64 -0 c 0
 48 0 40 7 40 18 c 0
EndSplineSet
EndChar

StartChar: circumflex.cap
Encoding: 65536 -1 2
Width: 575
Flags: HW
HStem: 736 164
VStem: 259 315
AnchorPoint: "above" 404 697 mark 0
LayerCount: 2
Fore
SplineSet
259 775 m 1
 437 900 l 1
 574 775 l 1
 574 774 l 1
 540 736 l 1
 424 817 l 1
 280 736 l 1
 259 775 l 1
EndSplineSet
EndChar

StartChar: dieresis.cap
Encoding: 65537 -1 3
Width: 575
Flags: HW
HStem: 738 155<265.851 357.727> 738 156<489.269 580.014>
VStem: 233 157<770.542 860.458> 456 157<770.273 860.934>
AnchorPoint: "above" 403 697 mark 0
LayerCount: 2
Fore
SplineSet
456 807 m 0x70
 456 855 501 894 545 894 c 0
 582 894 613 866 613 826 c 0
 613 778 569 738 525 738 c 0
 487 738 456 766 456 807 c 0x70
EndSplineSet
Refer: 4 -1 S 1 0 0 1 -113 -9 2
EndChar

StartChar: caron.cap
Encoding: 65539 -1 5
Width: 575
Flags: HW
HStem: 755 139
AnchorPoint: "above" 404 697 mark 0
LayerCount: 2
Fore
SplineSet
263 868 m 1
 280 894 l 1
 393 860 419 851 433 851 c 0
 440 851 434 851 595 894 c 1
 602 868 l 1
 414 755 l 1
 263 868 l 1
EndSplineSet
EndChar

StartChar: ring.cap
Encoding: 65540 -1 6
Width: 575
Flags: HW
HStem: 719 36<356.274 477.461> 866 36<367.253 490.015>
VStem: 302 47<761.063 851.273> 496 47<770.225 860.099>
AnchorPoint: "above" 404 697 mark 0
LayerCount: 2
Fore
SplineSet
302 796 m 0
 302 839 337 902 438 902 c 0
 522 902 543 856 543 825 c 0
 543 783 508 719 406 719 c 0
 323 719 302 765 302 796 c 0
349 795 m 0
 349 763 374 755 409 755 c 0
 459 755 496 765 496 826 c 0
 496 859 470 866 434 866 c 0
 390 866 349 860 349 795 c 0
EndSplineSet
EndChar

StartChar: breve.cap
Encoding: 65541 -1 7
Width: 575
Flags: HW
HStem: 755 63<322.141 512.987>
VStem: 258 37<848.502 894> 578 36<862.047 894>
AnchorPoint: "above" 404 697 mark 0
LayerCount: 2
Fore
SplineSet
258 874 m 0
 258 881 258 887 259 894 c 1
 295 894 l 1
 295 888 l 2
 295 840 343 818 425 818 c 0
 554 818 572 872 578 894 c 1
 614 894 l 1
 591 789 483 755 414 755 c 0
 326 755 258 803 258 874 c 0
EndSplineSet
EndChar

StartChar: grave
Encoding: 96 96 8
Width: 575
Flags: HW
TeX: 648 0
HStem: 494 168
VStem: 212 208<552 555.378>
LayerCount: 2
Fore
SplineSet
212 590 m 0
 212 623 246 662 281 662 c 0
 308 662 314 650 420 535 c 1
 420 534 l 1
 389 494 l 1
 229 553 212 552 212 590 c 0
EndSplineSet
EndChar

StartChar: acute
Encoding: 180 180 9
Width: 575
Flags: HW
TeX: 648 0
ItalicCorrection: 12
HStem: 494 168
VStem: 332 230
LayerCount: 2
Fore
SplineSet
332 535 m 1
 487 659 486 661 512 662 c 1
 513 662 l 2
 544 662 562 634 562 608 c 0
 562 554 522 550 350 494 c 1
 332 535 l 1
EndSplineSet
EndChar

StartChar: circumflex
Encoding: 710 710 10
Width: 575
Flags: HW
TeX: 648 0
HStem: 474 184
VStem: 213 318
LayerCount: 2
Fore
SplineSet
213 510 m 1
 397 658 l 1
 531 511 l 1
 531 510 l 1
 494 474 l 1
 383 576 l 1
 238 474 l 1
 213 510 l 1
EndSplineSet
EndChar

StartChar: tilde
Encoding: 732 732 11
Width: 575
Flags: HW
TeX: 648 0
ItalicCorrection: 44
HStem: 586 74<395.373 519.474> 620 74<266.581 390.627>
LayerCount: 2
Fore
SplineSet
197 611 m 1
 251 660 278 694 332 694 c 0x40
 385 694 433 660 486 660 c 0x80
 518 660 541 673 567 694 c 1x40
 589 670 l 1
 589 669 l 1
 534 618 507 586 454 586 c 0x80
 401 586 353 620 300 620 c 0x40
 264 620 240 603 219 586 c 1x80
 197 611 l 1
EndSplineSet
EndChar

StartChar: dieresis
Encoding: 168 168 12
Width: 575
Flags: HW
TeX: 690 0
ItalicCorrection: 48
HStem: 530 156<230.281 323.142 454.381 547.064>
VStem: 198 157<562.118 654.064> 422 157<562.118 654.143>
LayerCount: 2
Fore
SplineSet
198 599 m 0
 198 647 242 686 286 686 c 0
 324 686 355 658 355 617 c 0
 355 574 316 530 267 530 c 0
 226 530 198 561 198 599 c 0
422 599 m 0
 422 643 462 686 510 686 c 0
 551 686 579 655 579 617 c 0
 579 574 540 530 491 530 c 0
 451 530 422 561 422 599 c 0
EndSplineSet
EndChar

StartChar: ring
Encoding: 730 730 14
Width: 916
Flags: HW
TeX: 648 0
HStem: 487 35<485.552 609.084> 626 35<497.754 619.875>
VStem: 432 48<527.828 611.538> 626 47<535.073 620.042>
LayerCount: 2
Fore
SplineSet
432 562 m 0
 432 602 467 661 568 661 c 0
 653 661 673 616 673 586 c 0
 673 546 639 487 538 487 c 0
 453 487 432 532 432 562 c 0
480 562 m 0
 480 530 501 522 542 522 c 0
 587 522 626 528 626 587 c 0
 626 625 590 626 558 626 c 2
 557 626 l 2
 534 626 480 625 480 562 c 0
EndSplineSet
EndChar

StartChar: caron
Encoding: 711 711 15
Width: 575
Flags: HW
TeX: 648 0
HStem: 470 194
LayerCount: 2
Fore
SplineSet
222 642 m 1
 243 664 l 1
 244 664 l 1
 375 581 376 578 384 578 c 0
 397 578 497 637 553 664 c 1
 567 643 l 1
 567 641 l 1
 365 470 l 1
 222 642 l 1
EndSplineSet
EndChar

StartChar: breve
Encoding: 728 728 16
Width: 575
Flags: HW
TeX: 648 0
ItalicCorrection: 31
HStem: 494 62<293.13 461.569> 633 20G<217.5 254 528.5 573>
VStem: 216 38<593.112 653> 537 36<614.853 653>
LayerCount: 2
Fore
SplineSet
216 629 m 0
 216 634 217 641 218 653 c 1
 254 653 l 1
 254 641 l 2
 254 576 328 556 380 556 c 0
 435 556 520 577 537 653 c 1
 573 653 l 1
 556 558 461 494 370 494 c 0
 285 494 216 548 216 629 c 0
EndSplineSet
EndChar

StartChar: macron
Encoding: 175 175 17
Width: 575
Flags: HW
TeX: 690 0
ItalicCorrection: 66
HStem: 645 52<195 602>
LayerCount: 2
Fore
SplineSet
187 645 m 1
 195 697 l 1
 610 697 l 1
 602 645 l 1
 187 645 l 1
EndSplineSet
EndChar

StartChar: dotaccent
Encoding: 729 729 18
Width: 319
Flags: HW
TeX: 690 0
ItalicCorrection: 65
HStem: 539 155<231.851 323.727>
VStem: 199 157<571.542 661.458>
LayerCount: 2
Fore
SplineSet
199 607 m 0
 199 655 244 694 288 694 c 0
 328 694 356 664 356 626 c 0
 356 582 316 539 268 539 c 0
 228 539 199 569 199 607 c 0
EndSplineSet
EndChar

StartChar: cedilla
Encoding: 184 184 19
Width: 511
Flags: HW
TeX: 0 170
HStem: -199 36<75 241.701> -60 60<198 266.047>
VStem: 275 115<-138.828 -72.4214>
LayerCount: 2
Fore
SplineSet
69 -199 m 1
 75 -163 l 1
 87 -163 l 2
 176 -163 275 -159 275 -105 c 0
 275 -66 221 -61 188 -60 c 1
 198 0 l 1
 312 0 l 1
 307 -30 l 1
 329 -34 390 -44 390 -99 c 0
 390 -179 283 -199 80 -199 c 2
 69 -199 l 1
EndSplineSet
EndChar

StartChar: ogonek
Encoding: 731 731 20
Width: 319
Flags: HW
TeX: 0 194
HStem: -217 72<46 153.423>
VStem: -27 120<-142.292 -83.1679>
LayerCount: 2
Fore
SplineSet
-27 -138 m 0
 -27 -122 -19 -85 25 -56 c 0
 82 -19 147 -22 212 28 c 1
 223 -0 l 1
 178 -35 93 -73 93 -117 c 0
 93 -134 111 -145 132 -145 c 0
 169 -145 198 -114 217 -92 c 1
 243 -113 l 1
 243 -114 l 1
 206 -161 149 -217 73 -217 c 0
 19 -217 -27 -185 -27 -138 c 0
EndSplineSet
EndChar

StartChar: guilsinglleft
Encoding: 8249 8249 22
Width: 511
Flags: HW
TeX: 472 0
ItalicCorrection: 14
HStem: 1 21G<360 374>
VStem: 344 39<1.27795 61.1487>
LayerCount: 2
Fore
SplineSet
169 236 m 0
 169 248 183 253 189 257 c 0
 277 306 351 369 411 447 c 0
 423 462 429 472 441 472 c 0
 449 472 457 466 457 458 c 0
 457 441 383 316 287 235 c 1
 381 105 383 18 383 18 c 1
 383 9 381 1 367 1 c 0
 353 1 349 11 344 22 c 0
 310 104 255 170 185 217 c 0
 179 222 169 227 169 236 c 0
EndSplineSet
EndChar

StartChar: guilsinglright
Encoding: 8250 8250 23
Width: 511
Flags: HW
TeX: 472 0
ItalicCorrection: 14
HStem: 1 21G<144 154>
VStem: 206 39<410.605 471.699>
LayerCount: 2
Fore
SplineSet
132 15 m 0
 132 31 204 154 302 237 c 1
 302 239 l 1
 230 326 206 439 206 458 c 0
 206 468 216 472 222 472 c 0
 236 472 240 461 245 450 c 0
 278 371 331 307 398 260 c 0
 410 251 420 245 420 236 c 0
 420 225 406 219 400 216 c 0
 312 167 238 103 178 25 c 0
 166 9 160 1 148 1 c 0
 140 1 132 7 132 15 c 0
EndSplineSet
EndChar

StartChar: quotedblbase
Encoding: 8222 8222 26
Width: 411
Flags: HW
TeX: 155 194
ItalicCorrection: 9
HStem: 0 156<37.0024 129.391 307.002 399.391>
VStem: 5 167<24.2164 123.248> 275 167<24.2164 123.248>
LayerCount: 2
Fore
SplineSet
-5 -175 m 0
 -5 -164 8 -157 13 -153 c 0
 109 -83 128 7 131 21 c 1
 117 10 98 0 74 0 c 0
 32 0 5 28 5 66 c 0
 5 109 40 156 94 156 c 0
 149 156 172 106 172 58 c 0
 172 -1 137 -102 45 -174 c 0
 28 -188 19 -193 13 -193 c 0
 6 -193 -5 -186 -5 -175 c 0
265 -175 m 0
 265 -164 278 -157 283 -153 c 0
 379 -83 398 7 401 21 c 1
 387 10 368 0 344 0 c 0
 302 0 275 28 275 66 c 0
 275 109 310 156 364 156 c 0
 419 156 442 106 442 58 c 0
 442 -1 407 -102 315 -174 c 0
 298 -188 289 -193 283 -193 c 0
 275 -193 265 -184 265 -175 c 0
EndSplineSet
EndChar

StartChar: endash
Encoding: 8211 8211 29
Width: 575
Flags: HW
TeX: 444 0
ItalicCorrection: 77
HStem: 256 36<49 617 43 623>
VStem: 43 580<256 292>
LayerCount: 2
Fore
SplineSet
43 256 m 1
 49 292 l 1
 623 292 l 1
 617 256 l 1
 43 256 l 1
EndSplineSet
EndChar

StartChar: emdash
Encoding: 8212 8212 30
Width: 1150
Flags: HW
TeX: 444 0
ItalicCorrection: 77
HStem: 256 36<49 1192 43 1198>
VStem: 43 1155<256 292>
LayerCount: 2
Fore
SplineSet
43 256 m 1
 49 292 l 1
 1198 292 l 1
 1192 256 l 1
 43 256 l 1
EndSplineSet
Substitution2: "Cyrillic substitutions subtable" emdash.cyr
AlternateSubs2: "Cyrillic alternatives subtable" emdash.cyr
EndChar

StartChar: dotlessi
Encoding: 305 305 32
Width: 319
Flags: HW
TeX: 444 0
ItalicCorrection: 3
HStem: 0 47<47 124 286 286> 395 55
AnchorPoint: "below" 170 0 basechar 0
AnchorPoint: "above" 245 453 basechar 0
LayerCount: 2
Fore
SplineSet
47 0 m 1
 54 47 l 1
 124 47 l 1
 176 363 l 2
 176 366 178 373 178 375 c 0
 178 395 159 395 116 395 c 1
 124 442 l 1
 299 450 l 1
 232 47 l 1
 294 47 l 1
 286 0 l 1
 254 1 192 3 169 3 c 0
 132 3 72 1 47 0 c 1
EndSplineSet
Substitution2: "LC small to smallcaps subtable" I.sc
EndChar

StartChar: dotlessj
Encoding: 567 567 33
Width: 351
Flags: HW
TeX: 444 194
ItalicCorrection: 3
HStem: -200 36<51 86.5 51 102.5> 395 55
VStem: -75 127<-111 -98.5>
AnchorPoint: "below" 95 -194 basechar 0
AnchorPoint: "above" 288 453 basechar 0
LayerCount: 2
Fore
SplineSet
-75 -118 m 0
 -75 -79 -45 -46 -4 -46 c 0
 32 -46 52 -72 52 -100 c 0
 52 -122 40 -144 28 -153 c 0
 25 -155 21 -158 21 -159 c 0
 21 -162 48 -164 54 -164 c 0
 119 -164 145 -80 151 -46 c 2
 218 356 l 2
 220 367 221 372 221 374 c 0
 221 391 207 392 193 394 c 0
 183 395 161 395 149 395 c 1
 156 442 l 1
 342 450 l 1
 260 -46 l 2
 244 -141 149 -200 56 -200 c 0
 -15 -200 -75 -174 -75 -118 c 0
EndSplineSet
Substitution2: "LC small to smallcaps subtable" J.sc
EndChar

StartChar: ff
Encoding: 64256 64256 34
Width: 671
Flags: HW
TeX: 690 0
ItalicCorrection: 224
HStem: -0 48<43 112 221 283 362 431 540 619> 397 48<105 170 282 490 601 715> 663 37<384.469 536.636 679.279 752.334>
VStem: 723 125<570.687 653.595>
DStem2: 104.002 -0 213.002 -0 0.164359 0.986401<66.5769 402.448 468.204 628.854> 423.002 -0 532.002 -0 0.164359 0.986401<66.5769 402.613 468.204 593.817>
LayerCount: 2
Fore
SplineSet
35 -0 m 1
 43 48 l 1
 112 48 l 1
 170 397 l 1
 97 397 l 1
 105 445 l 1
 179 445 l 1
 182 469 196 553 199 565 c 0
 222 645 330 700 487 700 c 0
 574 700 584 669 602 669 c 0
 616 669 652 699 745 699 c 0
 825 699 848 653 848 622 c 0
 848 586 820 551 778 551 c 0
 749 551 723 571 723 604 c 0
 723 639 749 658 754 662 c 1
 750 662 746 663 742 663 c 0
 672 663 636 610 624 572 c 0
 619 556 607 488 601 445 c 1
 722 445 l 1
 715 397 l 1
 599 397 l 1
 540 48 l 1
 627 48 l 1
 619 -0 l 1
 572 2 525 3 478 3 c 0
 428 3 391 2 354 -0 c 1
 362 48 l 1
 431 48 l 1
 490 397 l 1
 280 397 l 1
 221 48 l 1
 290 48 l 1
 283 -0 l 1
 247 1 212 3 164 3 c 0
 121 3 78 2 35 -0 c 1
282 445 m 1
 498 445 l 1
 515 551 l 1
 504 564 499 573 499 591 c 0
 499 629 529 648 538 654 c 1
 510 663 491 663 479 663 c 0
 399 663 323 630 303 561 c 0
 300 550 285 468 282 445 c 1
EndSplineSet
Substitution2: "LC small to smallcaps subtable" FF.sc
Ligature2: "Latin ligatures subtable" f f
EndChar

StartChar: fi
Encoding: 64257 64257 35
Width: 639
Flags: HW
TeX: 690 0
ItalicCorrection: 44
HStem: -0 48<43 112 221 283 362 431 540 601> 397 48<105 170 282 428 429 484.996> 434 20G<429 603.7> 663 37<387.408 547.919>
VStem: 493 133<540.777 623.824>
DStem2: 104.002 -0 213.002 -0 0.164359 0.986401<66.5769 402.448 468.204 626.388> 423.179 -0 531.352 -0 0.164359 0.986401<66.5477 381.381>
LayerCount: 2
Fore
SplineSet
35 -0 m 1
 43 48 l 1
 112 48 l 1
 170 397 l 1
 97 397 l 1
 105 445 l 1
 179 445 l 1
 182 470 196 555 200 567 c 0
 226 653 348 700 492 700 c 0
 582 700 626 650 626 597 c 0
 626 542 583 517 551 517 c 0
 516 517 493 542 493 574 c 0xd8
 493 598 504 629 549 646 c 1
 530 655 513 663 480 663 c 0
 383 663 319 617 302 560 c 0
 299 549 285 468 282 445 c 1
 428 445 l 1xd8
 429 449 l 1
 607 454 l 1xb8
 540 48 l 1
 609 48 l 1
 601 -0 l 1
 565 1 530 3 482 3 c 0
 439 3 397 2 354 -0 c 1
 362 48 l 1
 431 48 l 1
 474 305 l 2
 480 342 485 363 485 377 c 0
 485 392 479 397 462 397 c 2
 280 397 l 1
 221 48 l 1
 290 48 l 1
 283 -0 l 1
 247 1 212 3 164 3 c 0
 121 3 78 2 35 -0 c 1
EndSplineSet
Substitution2: "LC small to smallcaps subtable" FI.sc
Ligature2: "Latin ligatures excepting Turkic subtable" f i
EndChar

StartChar: fl
Encoding: 64258 64258 36
Width: 639
Flags: HW
TeX: 690 0
ItalicCorrection: 44
HStem: -0 48<43 112 221 283 362 431 540 601> 397 48<105 170 282 489> 663 37<383.543 526.005>
DStem2: 104.002 -0 213.002 -0 0.164359 0.986401<66.5769 402.448 468.204 626.634> 423.002 -0 532.002 -0 0.164359 0.986401<66.5769 402.448 451.111 563.983>
LayerCount: 2
Fore
SplineSet
35 -0 m 1
 43 48 l 1
 112 48 l 1
 170 397 l 1
 97 397 l 1
 105 445 l 1
 179 445 l 1
 182 469 196 552 199 564 c 0
 223 649 339 700 488 700 c 0
 548 700 554 689 577 689 c 0
 584 689 596 690 647 694 c 1
 540 48 l 1
 609 48 l 1
 601 -0 l 1
 565 1 530 3 482 3 c 0
 439 3 397 2 354 -0 c 1
 362 48 l 1
 431 48 l 1
 489 397 l 1
 280 397 l 1
 221 48 l 1
 290 48 l 1
 283 -0 l 1
 247 1 212 3 164 3 c 0
 121 3 78 2 35 -0 c 1
282 445 m 1
 497 445 l 1
 508 523 515 545 515 557 c 0
 515 569 501 580 501 604 c 0
 501 628 510 643 527 660 c 1
 512 662 497 663 480 663 c 0
 296 663 296 524 295 520 c 0
 291 495 286 470 282 445 c 1
EndSplineSet
Substitution2: "LC small to smallcaps subtable" FL.sc
Ligature2: "Latin ligatures subtable" f l
EndChar

StartChar: ffi
Encoding: 64259 64259 37
Width: 958
Flags: HW
TeX: 690 0
ItalicCorrection: 44
HStem: -0 48<43 112 221 283 362 431 540 602 681 750 860 921> 397 48<105 170 282 490 601 803.996> 434 20G<748 923.7> 663 37<383.237 542.766 704.14 866.579>
VStem: 813 132<541.193 624.177>
DStem2: 104.002 -0 213.002 -0 0.164359 0.986401<66.5769 402.448 468.204 625.137> 423.002 -0 532.002 -0 0.164359 0.986401<66.5769 402.613 468.204 554.034> 742.179 -0 851.352 -0 0.164359 0.986401<66.7121 381.381>
LayerCount: 2
Fore
SplineSet
35 -0 m 1
 43 48 l 1
 112 48 l 1
 170 397 l 1
 97 397 l 1
 105 445 l 1
 179 445 l 1
 182 470 196 555 200 567 c 0
 213 608 274 700 488 700 c 0
 555 700 584 673 600 655 c 1
 665 689 741 700 810 700 c 0
 901 700 945 651 945 597 c 0
 945 550 911 518 870 518 c 0
 832 518 813 545 813 575 c 0
 813 598 823 629 868 646 c 1
 844 658 827 663 800 663 c 0
 702 663 638 617 621 560 c 0
 618 549 604 468 601 445 c 1
 748 445 l 1xd8
 748 449 l 1
 927 454 l 1xb8
 860 48 l 1
 929 48 l 1
 921 -0 l 1
 885 1 850 3 802 3 c 0
 759 3 716 2 673 -0 c 1
 681 48 l 1
 750 48 l 1
 793 305 l 2
 799 342 804 363 804 377 c 0
 804 392 798 397 781 397 c 2
 599 397 l 1
 540 48 l 1
 610 48 l 1
 602 -0 l 1
 566 1 531 3 483 3 c 0
 440 3 397 2 354 -0 c 1
 362 48 l 1
 431 48 l 1
 490 397 l 1
 280 397 l 1
 221 48 l 1
 290 48 l 1
 283 -0 l 1
 247 1 212 3 164 3 c 0
 121 3 78 2 35 -0 c 1
282 445 m 1
 498 445 l 1
 511 527 l 1
 496 541 488 552 488 573 c 0
 488 602 504 632 544 646 c 1
 522 660 501 663 477 663 c 0xd8
 399 663 323 629 303 561 c 0
 300 550 285 468 282 445 c 1
EndSplineSet
Substitution2: "LC small to smallcaps subtable" FFI.sc
Ligature2: "Latin ligatures excepting Turkic subtable" ff i
Ligature2: "Latin ligatures excepting Turkic subtable" f f i
EndChar

StartChar: ffl
Encoding: 64260 64260 38
Width: 958
Flags: HW
TeX: 690 0
ItalicCorrection: 44
HStem: -0 48<43 112 221 283 362 431 540 602 681 750 860 921> 397 48<105 170 282 490 601 809> 663 37<384.966 536.672 702.135 846.228>
DStem2: 104.002 -0 213.002 -0 0.164359 0.986401<66.5769 402.448 468.204 625.982> 423.002 -0 532.002 -0 0.164359 0.986401<66.5769 402.613 468.204 593.817> 742.002 -0 852.002 -0 0.164359 0.986401<66.7413 402.613 451.275 564.147>
LayerCount: 2
Fore
SplineSet
35 -0 m 1
 43 48 l 1
 112 48 l 1
 170 397 l 1
 97 397 l 1
 105 445 l 1
 179 445 l 1
 182 470 196 555 200 567 c 0
 227 652 343 700 487 700 c 0
 553 700 581 683 606 659 c 1
 662 685 720 700 808 700 c 0
 868 700 877 689 896 689 c 0
 903 689 917 690 967 694 c 1
 860 48 l 1
 929 48 l 1
 921 -0 l 1
 885 1 850 3 802 3 c 0
 759 3 716 2 673 -0 c 1
 681 48 l 1
 750 48 l 1
 809 397 l 1
 599 397 l 1
 540 48 l 1
 610 48 l 1
 602 -0 l 1
 566 1 531 3 483 3 c 0
 440 3 397 2 354 -0 c 1
 362 48 l 1
 431 48 l 1
 490 397 l 1
 280 397 l 1
 221 48 l 1
 290 48 l 1
 283 -0 l 1
 247 1 212 3 164 3 c 0
 121 3 78 2 35 -0 c 1
282 445 m 1
 498 445 l 1
 515 551 l 1
 504 564 499 573 499 591 c 0
 499 629 529 648 538 654 c 1
 510 663 491 663 479 663 c 0
 381 663 320 618 303 561 c 0
 300 550 285 468 282 445 c 1
601 445 m 1
 817 445 l 1
 828 523 835 545 835 557 c 0
 835 569 820 580 820 604 c 0
 820 628 830 643 847 660 c 1
 832 662 816 663 799 663 c 0
 616 663 615 525 614 520 c 0
 610 495 605 470 601 445 c 1
EndSplineSet
Substitution2: "LC small to smallcaps subtable" FFL.sc
Ligature2: "Latin ligatures subtable" ff l
Ligature2: "Latin ligatures subtable" f f l
EndChar

StartChar: uni2423
Encoding: 9251 9251 39
Width: 575
Flags: HW
TeX: 444 97
ItalicCorrection: 23
HStem: -97 112<138.25 447.67>
VStem: 66 48<55.7308 112>
LayerCount: 2
Fore
SplineSet
66 112 m 1
 114 112 l 1
 124 39 135 15 215 15 c 2
 357 15 l 2
 432 15 457 26 497 112 c 1
 545 112 l 1
 450 -97 l 1
 92 -97 l 1
 66 112 l 1
EndSplineSet
EndChar

StartChar: exclam
Encoding: 33 33 40
Width: 350
Flags: HW
TeX: 690 0
ItalicCorrection: 50
HStem: 0 156<141.281 233.619>
VStem: 109 157<32.0389 124.143> 201 158<564.031 675.39>
LayerCount: 2
Fore
SplineSet
109 69 m 0
 109 117 153 156 197 156 c 0
 237 156 266 125 266 87 c 0xc0
 266 36 219 0 178 0 c 0
 140 0 109 28 109 69 c 0
191 250 m 0
 191 259 191 269 193 345 c 2
 201 604 l 2
 201 617 200 631 204 644 c 0
 214 680 254 705 290 705 c 0
 327 705 359 679 359 642 c 0
 359 624 351 607 348 596 c 2
 244 255 l 2
 237 234 234 226 214 226 c 0xa0
 192 226 191 238 191 250 c 0
EndSplineSet
EndChar

StartChar: quotedbl
Encoding: 34 34 41
Width: 575
Flags: HW
TeX: 690 0
ItalicCorrection: 18
VStem: 424 37<359 417.138> 425 131<580.738 687.058>
LayerCount: 2
Fore
SplineSet
232 359 m 1
 234 658 232 644 237 660 c 0
 247 692 278 710 309 710 c 0
 337 710 363 693 363 661 c 0
 363 646 358 631 353 617 c 2
 268 359 l 1
 232 359 l 1
424 359 m 1x80
 425 389 l 1
 425 433 l 1
 426 509 426 605 426 624 c 0x40
 426 702 481 710 501 710 c 0
 529 710 556 693 556 661 c 0x40
 556 634 492 462 461 359 c 1
 424 359 l 1x80
EndSplineSet
EndChar

StartChar: numbersign
Encoding: 35 35 42
Width: 958
Flags: HW
TeX: 690 194
ItalicCorrection: 33
HStem: 120 37<87.0153 302 361 571 630 914.985> 343 36<125.014 409 468 679 737 951.986> 673 20G<583 596 852 865>
DStem2: 173 -147 207 -160 0.435123 0.900371<-29.1792 296.53 355.516 543.871 601.956 928.566> 443 -147 477 -160 0.434218 0.900808<-29.6161 296.096 355.044 543.871 601.485 928.532>
LayerCount: 2
Fore
SplineSet
87 139 m 0
 87 156 106 157 115 157 c 2
 320 157 l 1
 409 343 l 1
 154 343 l 2
 141 343 125 344 125 361 c 0
 125 378 144 379 158 379 c 2
 427 379 l 1
 562 660 l 2
 566 668 575 693 591 693 c 0
 601 693 607 685 607 675 c 0
 607 666 601 656 597 647 c 2
 468 379 l 1
 697 379 l 1
 832 660 l 2
 836 668 844 693 860 693 c 0
 870 693 877 685 877 675 c 0
 877 666 870 656 866 647 c 2
 737 379 l 1
 924 379 l 2
 937 379 952 376 952 361 c 0
 952 343 933 343 923 343 c 2
 719 343 l 1
 630 157 l 1
 885 157 l 2
 898 157 915 155 915 138 c 0
 915 121 895 120 881 120 c 2
 612 120 l 1
 477 -160 l 2
 471 -172 463 -193 450 -193 c 2
 447 -193 l 1
 439 -192 432 -185 432 -175 c 0
 432 -166 439 -156 443 -147 c 2
 571 120 l 1
 342 120 l 1
 207 -160 l 2
 201 -172 193 -193 180 -193 c 2
 177 -193 l 1
 169 -192 163 -185 163 -175 c 0
 163 -166 169 -156 173 -147 c 2
 302 120 l 1
 116 120 l 2
 108 120 87 121 87 139 c 0
361 157 m 1
 590 157 l 1
 679 343 l 1
 450 343 l 1
 361 157 l 1
EndSplineSet
EndChar

StartChar: dollar
Encoding: 36 36 43
Width: 575
Flags: HW
TeX: 749 55
ItalicCorrection: 75
HStem: -5 48<194.696 262 318 379.343> 127 125<145.31 200.439> 456 125<491.78 545.141> 650 49<302.52 372 427 503.63>
VStem: 92 129<147.95 227.914> 144 90<394 559.863> 458 90<145.484 324> 471 129<479.79 558.547>
DStem2: 254 -55 302 -55 0.164359 0.986401<7.88923 50.6349 108.173 350.497 500.924 714.807 772.18 816.077>
LayerCount: 2
Fore
SplineSet
92 154 m 0
 92 236 137 252 166 252 c 0
 196 252 221 232 221 199 c 0xfa
 221 171 201 127 145 127 c 2
 144 127 l 1
 149 111 165 52 271 43 c 1
 312 294 l 1
 299 297 144 319 144 469 c 0
 144 576 230 690 380 699 c 1
 388 750 l 1
 436 750 l 1
 427 699 l 1
 567 688 600 610 600 550 c 0
 600 473 555 456 526 456 c 0
 495 456 471 477 471 509 c 0xf5
 471 530 484 579 546 581 c 1
 526 623 490 646 420 651 c 1
 419 650 l 1
 382 428 l 1
 385 427 548 405 548 243 c 0xf2
 548 137 471 7 310 -5 c 1
 302 -55 l 1
 254 -55 l 1
 262 -5 l 1
 123 8 92 90 92 154 c 0
234 529 m 0xf4
 234 457 321 442 337 439 c 1
 372 650 l 1
 252 636 234 555 234 529 c 0xf4
318 44 m 1
 445 64 458 156 458 182 c 0xf2
 458 204 451 264 358 283 c 1
 318 44 l 1
EndSplineSet
EndChar

StartChar: percent
Encoding: 37 37 44
Width: 958
Flags: HW
TeX: 749 55
ItalicCorrection: 61
HStem: -56 36<717 783 717 798> 311 72 608 36<629 659.5> 714 36<334 380.5 293.5 382.5>
VStem: 151 97<452 477.5 452 563.5> 433 46<555.5 604 540 637.5> 594 97<48.5 76.5 48.5 163> 876 46<150.5 238.5>
LayerCount: 2
Fore
SplineSet
151 503 m 0
 151 624 228 750 359 750 c 0
 402 750 424 732 438 720 c 0
 499 670 568 644 645 644 c 0
 721 644 801 671 862 738 c 0
 866 742 873 750 886 750 c 0
 903 750 917 736 917 719 c 0
 917 708 911 701 903 693 c 2
 212 -42 l 2
 205 -50 199 -56 186 -56 c 0
 173 -56 156 -46 156 -25 c 0
 156 -17 158 -10 168 0 c 2
 756 625 l 1
 755 626 l 1
 716 613 675 608 644 608 c 0
 614 608 549 613 475 651 c 1
 479 634 479 606 479 602 c 0
 479 478 412 347 296 347 c 0
 220 347 151 396 151 503 c 0
248 458 m 0
 248 446 248 383 300 383 c 0
 382 383 433 506 433 605 c 0
 433 670 406 714 359 714 c 0
 309 714 284 659 272 616 c 0
 265 591 248 497 248 458 c 0
594 100 m 0
 594 226 675 347 801 347 c 0
 863 347 922 305 922 199 c 0
 922 78 857 -56 739 -56 c 0
 664 -56 594 -8 594 100 c 0
691 55 m 0
 691 42 691 -20 743 -20 c 0
 823 -20 876 99 876 202 c 0
 876 275 844 311 802 311 c 0
 768 311 734 285 715 213 c 0
 709 192 691 98 691 55 c 0
EndSplineSet
EndChar

StartChar: ampersand
Encoding: 38 38 45
Width: 894
Flags: HW
TeX: 690 0
ItalicCorrection: 48
HStem: -11 47<248.5 293.5 248.5 295 639.5 700.5> 397 47<690 690 690 694.5> 669 36<450 488.5>
VStem: 70 132<101 153.5> 255 110<492 496> 513 46<586.5 610>
LayerCount: 2
Fore
SplineSet
70 121 m 0
 70 186 117 223 140 240 c 0
 193 280 214 294 271 339 c 1
 255 401 255 440 255 461 c 0
 255 531 265 577 299 621 c 0
 339 673 406 705 466 705 c 0
 526 705 559 658 559 596 c 0
 559 555 550 528 487 466 c 0
 475 454 433 415 383 378 c 1
 413 269 514 147 519 141 c 1
 581 192 651 265 752 388 c 1
 728 396 707 397 682 397 c 1
 690 444 l 1
 712 443 774 441 811 441 c 0
 838 441 878 442 910 444 c 1
 902 397 l 1
 874 397 837 397 810 388 c 1
 671 224 633 179 547 108 c 1
 548 106 603 36 676 36 c 0
 725 36 790 60 802 118 c 1
 849 118 l 1
 835 40 752 -11 666 -11 c 0
 612 -11 537 4 466 52 c 1
 403 14 332 -11 258 -11 c 0
 164 -11 70 31 70 121 c 0
202 134 m 0
 202 68 226 36 271 36 c 0
 316 36 372 50 429 80 c 1
 363 139 311 223 283 302 c 1
 223 262 202 191 202 134 c 0
365 499 m 0
 365 485 365 459 373 416 c 1
 400 437 439 470 465 498 c 0
 507 544 513 572 513 601 c 0
 513 619 509 669 468 669 c 0
 432 669 401 641 384 610 c 0
 367 577 365 529 365 499 c 0
EndSplineSet
EndChar

StartChar: quoteright
Encoding: 8217 8217 46
Width: 319
Flags: HW
TeX: 690 0
ItalicCorrection: 65
HStem: 538 156<214.963 307.526>
VStem: 184 166<561.438 662.28>
LayerCount: 2
Fore
SplineSet
173 363 m 0
 173 374 186 381 191 385 c 0
 250 428 293 488 309 559 c 1
 295 548 276 538 252 538 c 0
 206 538 184 570 184 605 c 0
 184 647 217 694 272 694 c 0
 319 694 350 655 350 597 c 0
 350 569 338 454 223 364 c 0
 206 350 197 345 191 345 c 0
 184 345 173 352 173 363 c 0
EndSplineSet
EndChar

StartChar: parenleft
Encoding: 40 40 47
Width: 447
Flags: HW
TeX: 749 249
ItalicCorrection: 93
HStem: -249 21<314 329> 730 20<468.5 491>
VStem: 140 93<94 161 -4 333.5>
LayerCount: 2
Fore
SplineSet
140 140 m 0
 140 527 450 750 487 750 c 0
 495 750 504 747 504 736 c 0
 504 733 504 731 502 728 c 0
 501 727 500 726 483 711 c 0
 274 535 233 228 233 94 c 0
 233 -102 309 -190 335 -220 c 0
 343 -229 343 -232 343 -235 c 0
 343 -246 333 -249 325 -249 c 0
 303 -249 233 -183 189 -93 c 0
 161 -35 140 48 140 140 c 0
EndSplineSet
EndChar

StartChar: parenright
Encoding: 41 41 48
Width: 447
Flags: HW
TeX: 749 249
ItalicCorrection: 9
HStem: -249 21<41 60> 730 20<203 216>
VStem: 296 93<339.5 378 165.5 468.5>
LayerCount: 2
Fore
SplineSet
25 -235 m 0
 25 -228 27 -227 39 -217 c 0
 111 -155 171 -79 213 16 c 0
 267 139 296 272 296 407 c 0
 296 530 269 634 196 720 c 0
 189 729 187 730 187 736 c 0
 187 750 201 750 205 750 c 0
 227 750 297 681 335 605 c 0
 389 497 389 395 389 361 c 0
 389 -30 77 -249 43 -249 c 0
 39 -249 25 -249 25 -235 c 0
EndSplineSet
EndChar

StartChar: asterisk
Encoding: 42 42 49
Width: 575
Flags: HW
TeX: 749 0
ItalicCorrection: 77
HStem: 306 21<326 342.5> 730 20<410 424>
VStem: 146 458<423 633>
LayerCount: 2
Fore
SplineSet
146 432 m 0
 146 443 150 468 183 479 c 2
 333 528 l 1
 203 576 l 2
 188 581 176 587 176 609 c 0
 176 637 203 664 229 664 c 0
 238 664 243 661 244 661 c 2
 361 560 l 1
 361 696 l 2
 361 714 361 722 375 735 c 0
 389 749 408 750 412 750 c 0
 436 750 450 734 450 717 c 0
 450 712 449 709 446 699 c 2
 400 560 l 1
 539 653 l 2
 549 660 555 664 566 664 c 0
 591 664 604 642 604 624 c 0
 604 613 600 588 567 577 c 2
 417 528 l 1
 547 480 l 2
 562 475 574 469 574 447 c 0
 574 419 547 392 521 392 c 0
 512 392 507 395 506 395 c 2
 389 496 l 1
 389 360 l 2
 389 342 389 334 375 321 c 0
 363 309 347 306 338 306 c 0
 314 306 300 322 300 339 c 0
 300 342 301 349 302 352 c 2
 350 496 l 1
 309 468 268 440 226 413 c 0
 213 404 195 392 184 392 c 0
 159 392 146 414 146 432 c 0
EndSplineSet
EndChar

StartChar: plus
Encoding: 43 43 50
Width: 894
Flags: HW
TeX: 633 133
ItalicCorrection: 9
HStem: 232 36<106.014 466 510 869.985>
VStem: 410 35<-131.983 -23.3887> 531 35<546.25 631.968>
LayerCount: 2
Fore
SplineSet
106 250 m 0
 106 267 125 268 139 268 c 2
 473 268 l 1
 473 271 528 608 531 616 c 0
 534 624 540 632 549 632 c 0
 562 632 566 621 566 610 c 0
 566 601 564 591 563 586 c 2
 510 268 l 1
 837 268 l 2
 850 268 870 267 870 250 c 0
 870 234 852 232 838 232 c 2
 504 232 l 1
 503 231 l 1
 497 189 447 -113 445 -118 c 0
 442 -126 435 -132 427 -132 c 0
 419 -132 410 -127 410 -112 c 0
 410 -92 448 109 466 232 c 1
 137 232 l 2
 124 232 106 234 106 250 c 0
EndSplineSet
EndChar

StartChar: comma
Encoding: 44 44 51
Width: 319
Flags: HW
TeX: 155 194
HStem: -194 21<95.5 111.5> 0 156<154.5 178>
VStem: 93 165<47 83.5 -7.5 88>
LayerCount: 2
Fore
SplineSet
82 -174 m 0
 82 -167 85 -165 94 -158 c 0
 153 -116 197 -59 216 18 c 1
 215 18 194 0 162 0 c 0
 119 0 93 27 93 67 c 0
 93 109 127 156 182 156 c 0
 235 156 258 108 258 59 c 0
 258 -74 123 -194 100 -194 c 0
 91 -194 82 -182 82 -174 c 0
EndSplineSet
EndChar

StartChar: hyphen
Encoding: 45 45 52
Width: 383
Flags: HW
TeX: 444 0
ItalicCorrection: 5
HStem: 174 97<57 347>
VStem: 41 322
LayerCount: 2
Fore
SplineSet
41 174 m 1
 57 271 l 1
 363 271 l 1
 347 174 l 1
 41 174 l 1
EndSplineSet
EndChar

StartChar: period
Encoding: 46 46 53
Width: 319
Flags: HW
TeX: 155 0
HStem: 0 156<127.37 218.014>
VStem: 94 157<32.5421 123.312>
LayerCount: 2
Fore
SplineSet
94 68 m 0
 94 111 134 156 183 156 c 0
 220 156 251 129 251 88 c 0
 251 44 211 0 163 0 c 0
 122 0 94 30 94 68 c 0
EndSplineSet
EndChar

StartChar: slash
Encoding: 47 47 54
Width: 575
Flags: HW
TeX: 749 249
ItalicCorrection: 93
DStem2: 33 -214 71 -221 0.5097 0.860352<-17.9097 1117.63>
LayerCount: 2
Fore
SplineSet
26 -231 m 0
 26 -224 31 -217 33 -214 c 2
 575 701 l 2
 588 723 600 749 615 749 c 0
 624 749 631 740 631 731 c 0
 631 726 630 722 619 704 c 2
 71 -221 l 2
 61 -238 54 -249 43 -249 c 0
 33 -249 26 -240 26 -231 c 0
EndSplineSet
EndChar

StartChar: zero
Encoding: 48 48 55
Width: 575
Flags: HW
TeX: 648 0
ItalicCorrection: 75
HStem: -11 36<273.5 311.5 273.5 337.5> 619 36<364.5 395.5>
VStem: 86 116<139.5 153 85 225.5> 480 115<488 503 432.5 570.5>
LayerCount: 2
Fore
SplineSet
86 198 m 0
 86 253 105 433 166 529 c 0
 187 562 247 655 396 655 c 0
 546 655 595 563 595 443 c 0
 595 422 586 233 519 119 c 0
 469 33 390 -11 285 -11 c 0
 132 -11 86 81 86 198 c 0
202 124 m 0
 202 46 256 25 291 25 c 0
 332 25 379 50 405 102 c 0
 433 160 480 454 480 522 c 0
 480 619 401 619 390 619 c 0
 339 619 290 583 272 536 c 1
 243 454 202 182 202 124 c 0
EndSplineSet
Substitution2: "LGC old numerals subtable" zerooldstyle
EndChar

StartChar: one
Encoding: 49 49 56
Width: 575
Flags: HW
TeX: 648 0
ItalicCorrection: 75
HStem: 0 47<96 243 494 494> 544 47<183 195 176 203> 635 20<424 434.5>
LayerCount: 2
Fore
SplineSet
96 0 m 1
 104 47 l 1
 243 47 l 1
 328 563 l 1
 291 552 238 544 195 544 c 2
 176 544 l 1
 183 591 l 1
 203 591 l 2
 222 591 339 591 424 655 c 1
 445 655 460 655 460 636 c 0
 460 633 459 630 458 622 c 2
 362 47 l 1
 502 47 l 1
 494 0 l 1
 450 3 344 3 295 3 c 0
 246 3 140 3 96 0 c 1
EndSplineSet
Substitution2: "LGC old numerals subtable" oneoldstyle
EndChar

StartChar: two
Encoding: 50 50 57
Width: 575
Flags: HW
TeX: 648 0
ItalicCorrection: 75
HStem: 0 125<218 363 363 371 218 486> 429 143 608 47<320.5 386.5>
VStem: 140 146<489 525 489 532> 459 138<453 528>
LayerCount: 2
Fore
SplineSet
57 0 m 1
 62 29 l 2
 64 39 65 40 75 50 c 2
 320 264 l 2
 393 328 459 410 459 496 c 0
 459 560 423 608 350 608 c 0
 291 608 247 578 240 572 c 1
 272 563 286 537 286 513 c 0
 286 465 246 429 203 429 c 0
 182 429 140 441 140 490 c 0
 140 574 237 655 379 655 c 0
 505 655 597 595 597 492 c 0
 597 381 501 318 418 264 c 0
 360 226 329 206 218 125 c 1
 363 125 l 2
 379 125 457 125 467 131 c 0
 483 141 503 207 507 222 c 1
 554 222 l 1
 486 0 l 1
 57 0 l 1
EndSplineSet
Substitution2: "LGC old numerals subtable" twooldstyle
EndChar

StartChar: three
Encoding: 51 51 58
Width: 575
Flags: HW
TeX: 648 0
ItalicCorrection: 75
HStem: -11 43<263.5 303.5 263.5 375> 67 150 330 36<262 278 262 321> 441 139 616 39<360 397>
VStem: 164 141<501 533.5> 447 134<535 568 496.5 577>
LayerCount: 2
Fore
SplineSet
70 122 m 0
 70 187 116 217 158 217 c 0
 210 217 226 178 226 153 c 0
 226 118 202 75 153 66 c 1
 195 34 255 32 272 32 c 0
 335 32 366 72 380 99 c 0
 404 147 410 235 410 242 c 0
 410 330 342 330 321 330 c 2
 278 330 l 2
 263 330 250 330 250 344 c 0
 250 346 250 364 262 366 c 0
 268 366 271 367 311 369 c 0
 421 376 447 515 447 555 c 0
 447 599 418 616 376 616 c 0
 344 616 298 607 258 579 c 1
 268 577 305 565 305 521 c 0
 305 481 275 441 225 441 c 0
 189 441 164 464 164 500 c 0
 164 567 241 655 383 655 c 0
 511 655 581 604 581 532 c 0
 581 461 520 386 413 351 c 1
 504 330 558 280 558 203 c 0
 558 114 475 -11 275 -11 c 0
 163 -11 70 35 70 122 c 0
EndSplineSet
Substitution2: "LGC old numerals subtable" threeoldstyle
EndChar

StartChar: four
Encoding: 52 52 59
Width: 575
Flags: HW
TeX: 648 0
ItalicCorrection: 75
HStem: 0 47<208 328 542 542> 156 47<118 346 479 568> 636 20<514 530>
LayerCount: 2
Fore
SplineSet
58 156 m 1
 66 204 l 1
 491 643 l 2
 502 655 504 656 524 656 c 0
 536 656 551 656 551 641 c 1
 550 627 l 1
 479 203 l 1
 576 203 l 1
 568 156 l 1
 471 156 l 1
 453 47 l 1
 550 47 l 1
 542 0 l 1
 507 3 420 3 380 3 c 0
 337 3 246 3 208 0 c 1
 216 47 l 1
 328 47 l 1
 346 156 l 1
 58 156 l 1
118 203 m 1
 365 203 l 1
 417 513 l 1
 118 203 l 1
EndSplineSet
Substitution2: "LGC old numerals subtable" fouroldstyle
EndChar

StartChar: five
Encoding: 53 53 60
Width: 575
Flags: HW
TeX: 648 0
ItalicCorrection: 75
HStem: -11 43<245.5 282.5 245.5 352.5> 96 133 373 36<341.5 377> 499 124<302.5 424> 635 20<224 230.5 563 568.5>
VStem: 82 137<157 182.5> 420 134<283.5 285.5 172.5 318>
LayerCount: 2
Fore
SplineSet
82 138 m 0
 82 227 153 229 160 229 c 0
 183 229 219 215 219 172 c 0
 219 142 201 97 140 94 c 1
 173 37 233 32 258 32 c 0
 307 32 363 51 391 124 c 0
 405 162 420 269 420 298 c 0
 420 338 403 373 351 373 c 0
 296 373 246 355 207 317 c 0
 198 307 195 305 184 305 c 0
 166 305 162 315 162 325 c 0
 162 328 162 330 165 346 c 2
 212 631 l 2
 215 649 219 655 229 655 c 0
 232 655 234 654 245 649 c 0
 299 628 354 623 392 623 c 0
 456 623 515 638 549 650 c 1
 560 655 562 655 564 655 c 0
 573 655 579 648 579 640 c 0
 579 611 507 561 485 547 c 0
 417 506 353 499 320 499 c 0
 285 499 251 506 245 507 c 1
 224 376 l 1
 279 407 328 409 355 409 c 0
 489 409 554 334 554 237 c 0
 554 108 446 -11 259 -11 c 0
 151 -11 82 55 82 138 c 0
EndSplineSet
Substitution2: "LGC old numerals subtable" fiveoldstyle
EndChar

StartChar: six
Encoding: 54 54 61
Width: 575
Flags: HW
TeX: 648 0
ItalicCorrection: 75
HStem: -11 43<273.5 334 273.5 372> 382 36<361 383.5> 466 123 616 39<436 465.5>
VStem: 91 121<144.5 192 87 352> 437 127<174 336.5>
LayerCount: 2
Fore
SplineSet
91 212 m 0
 91 492 256 655 456 655 c 0
 550 655 587 606 587 550 c 0
 587 484 544 466 515 466 c 0
 473 466 459 496 459 519 c 0
 459 530 465 584 526 590 c 1
 508 612 475 616 456 616 c 0
 416 616 357 600 312 546 c 0
 285 513 261 461 242 345 c 1
 294 418 350 418 372 418 c 0
 505 418 564 334 564 249 c 0
 564 99 453 -11 291 -11 c 0
 152 -11 91 77 91 212 c 0
212 119 m 0
 212 55 255 32 292 32 c 0
 376 32 397 90 406 117 c 0
 416 150 437 272 437 311 c 0
 437 362 406 382 361 382 c 0
 270 382 212 265 212 119 c 0
EndSplineSet
Substitution2: "LGC old numerals subtable" sixoldstyle
EndChar

StartChar: seven
Encoding: 55 55 62
Width: 575
Flags: HW
TeX: 648 0
ItalicCorrection: 75
HStem: -11 21<243 286.5> 519 125<461 501> 656 20<212 259 259 259>
VStem: 134 531<422 644>
LayerCount: 2
Fore
SplineSet
134 422 m 1
 212 676 l 1
 259 676 l 1
 259 666 259 657 279 653 c 1
 293 649 438 644 461 644 c 2
 665 644 l 1
 661 608 660 607 645 592 c 2
 445 395 l 1
 370 306 348 174 329 65 c 0
 326 44 316 -11 257 -11 c 0
 229 -11 201 6 201 43 c 0
 201 84 246 264 398 417 c 0
 432 452 472 492 501 519 c 1
 333 519 l 2
 317 519 231 519 223 512 c 1
 207 501 192 457 181 422 c 1
 134 422 l 1
EndSplineSet
Substitution2: "LGC old numerals subtable" sevenoldstyle
EndChar

StartChar: eight
Encoding: 56 56 63
Width: 575
Flags: HW
TeX: 648 0
ItalicCorrection: 75
HStem: -11 43<260 354 260 386.5> 616 39<329.5 427>
VStem: 72 87<95 173.5 95 199.5> 506 75<490 557>
LayerCount: 2
Fore
SplineSet
72 134 m 0
 72 265 200 317 231 329 c 1
 188 357 158 399 158 456 c 0
 158 541 226 655 396 655 c 0
 505 655 581 614 581 530 c 0
 581 438 503 392 455 369 c 1
 505 336 560 299 560 214 c 0
 560 124 487 -11 286 -11 c 0
 161 -11 72 36 72 134 c 0
159 135 m 0
 159 55 228 32 292 32 c 0
 416 32 463 94 463 147 c 0
 463 186 441 200 383 235 c 0
 355 253 300 287 275 302 c 1
 214 272 159 212 159 135 c 0
244 527 m 0
 244 509 255 492 280 476 c 2
 413 395 l 1
 435 408 506 450 506 530 c 0
 506 584 464 616 390 616 c 0
 269 616 244 560 244 527 c 0
EndSplineSet
Substitution2: "LGC old numerals subtable" eightoldstyle
EndChar

StartChar: nine
Encoding: 57 57 64
Width: 575
Flags: HW
TeX: 648 0
ItalicCorrection: 75
HStem: -11 43<231.5 267.5 231.5 296.5> 54 124 227 36<282.5 320> 616 39<367 419.5>
VStem: 95 127<106.5 129> 471 120<471.5 503.5 411.5 555.5>
LayerCount: 2
Fore
SplineSet
95 96 m 0
 95 162 139 178 167 178 c 0
 202 178 222 156 222 125 c 0
 222 88 196 60 162 54 c 1
 187 34 223 32 240 32 c 0
 295 32 341 61 370 95 c 0
 411 145 426 220 440 301 c 1
 390 227 330 227 310 227 c 0
 166 227 117 323 117 396 c 0
 117 543 227 655 396 655 c 0
 529 655 591 571 591 436 c 0
 591 387 585 242 499 122 c 0
 447 50 353 -11 240 -11 c 0
 167 -11 95 15 95 96 c 0
245 336 m 0
 245 318 245 263 320 263 c 0
 426 263 471 411 471 532 c 0
 471 579 444 616 395 616 c 0
 339 616 298 589 279 538 c 1
 265 497 245 374 245 336 c 0
EndSplineSet
Substitution2: "LGC old numerals subtable" nineoldstyle
EndChar

StartChar: colon
Encoding: 58 58 65
Width: 319
Flags: HW
TeX: 444 0
ItalicCorrection: 24
HStem: 0 156<158.5 185.5> 288 156<206.5 233.5>
VStem: 141 158<353.5 378.5>
LayerCount: 2
Fore
SplineSet
93 68 m 0
 93 113 135 156 182 156 c 0
 224 156 251 125 251 88 c 0
 251 43 209 0 162 0 c 0
 120 0 93 31 93 68 c 0
141 356 m 0
 141 401 183 444 230 444 c 0
 272 444 299 413 299 376 c 0
 299 331 257 288 210 288 c 0
 168 288 141 319 141 356 c 0
EndSplineSet
EndChar

StartChar: less
Encoding: 60 60 67
Width: 894
Flags: HW
TeX: 585 85
ItalicCorrection: 33
DStem2: 198 248 160 227 0.895347 -0.44537<0 653.827> 162 272 198 248 0.919559 0.392951<23.6733 769.55>
LayerCount: 2
Fore
SplineSet
138 250 m 0
 138 263 154 269 162 272 c 2
 850 566 l 2
 856 569 864 572 871 572 c 0
 882 572 888 564 888 555 c 0
 888 542 874 537 865 533 c 2
 198 248 l 1
 214 241 230 233 278 209 c 2
 767 -35 l 2
 781 -43 786 -50 786 -56 c 0
 786 -64 779 -73 769 -73 c 0
 760 -73 751 -66 743 -63 c 2
 160 227 l 2
 151 232 138 238 138 250 c 0
EndSplineSet
EndChar

StartChar: equal
Encoding: 61 61 68
Width: 894
Flags: HW
TeX: 391 -108
ItalicCorrection: 33
HStem: 120 37<87.0122 850.984> 343 36<124.013 887.997>
LayerCount: 2
Fore
SplineSet
87 139 m 0
 87 155 103 157 117 157 c 2
 825 157 l 2
 829 157 851 158 851 139 c 0
 851 132 846 121 826 120 c 1
 115 120 l 2
 91 120 87 132 87 139 c 0
124 361 m 0
 124 378 142 379 153 379 c 2
 862 379 l 1
 884 378 888 368 888 361 c 0
 888 354 884 344 862 343 c 1
 152 343 l 2
 128 343 124 354 124 361 c 0
EndSplineSet
EndChar

StartChar: greater
Encoding: 62 62 69
Width: 894
Flags: HW
TeX: 585 85
DStem2: 234 562 226 525 0.895041 -0.445983<-28.2455 624.708> 678 209 814 227 0.919559 0.392951<-637.417 107.54>
LayerCount: 2
Fore
SplineSet
88 -56 m 0
 88 -43 101 -38 110 -34 c 2
 678 209 l 2
 711 223 744 236 777 251 c 1
 746 265 716 281 686 296 c 2
 226 525 l 2
 209 533 193 540 190 552 c 0
 188 562 195 572 207 572 c 0
 216 572 226 565 234 562 c 2
 816 272 l 2
 825 267 838 262 838 250 c 0
 838 237 822 230 814 227 c 2
 126 -67 l 2
 120 -70 112 -73 105 -73 c 0
 94 -73 88 -65 88 -56 c 0
EndSplineSet
EndChar

StartChar: question
Encoding: 63 63 70
Width: 543
Flags: HW
TeX: 690 0
ItalicCorrection: 92
HStem: 0 156<254 282> 226 21<289 299.5> 664 36<351 397 295 409.5>
VStem: 158 127<559.5 588> 450 125<595 624.5>
LayerCount: 2
Fore
SplineSet
158 562 m 0
 158 614 213 700 377 700 c 0
 417 700 575 700 575 587 c 0
 575 544 550 501 495 472 c 0
 344 391 331 311 322 262 c 0
 318 238 318 236 317 235 c 0
 316 232 315 230 312 229 c 1
 308 226 304 226 295 226 c 0
 283 226 272 226 272 242 c 0
 272 245 279 294 285 315 c 0
 304 384 346 448 406 500 c 0
 439 528 450 575 450 615 c 0
 450 634 450 664 369 664 c 0
 333 664 290 657 249 631 c 1
 274 623 285 604 285 581 c 0
 285 538 251 509 214 509 c 0
 180 509 158 532 158 562 c 0
189 68 m 0
 189 114 230 156 278 156 c 0
 319 156 347 124 347 88 c 0
 347 42 306 0 258 0 c 0
 217 0 189 32 189 68 c 0
EndSplineSet
EndChar

StartChar: at
Encoding: 64 64 71
Width: 894
Flags: HW
TeX: 690 0
ItalicCorrection: 49
HStem: -6 36<351 482 351 541> 128 36<440.5 487.5 440.5 501 722 781> 530 36<487.5 550> 664 36<426.5 639.5>
VStem: 116 47<213 372 213 380.5> 271 112<255.5 340 255.5 368.5> 845 47<394.5 498>
LayerCount: 2
Fore
SplineSet
116 284 m 0
 116 477 261 700 561 700 c 0
 751 700 892 603 892 410 c 0
 892 346 864 128 722 128 c 0
 702 128 630 131 604 173 c 1
 581 154 534 128 468 128 c 0
 358 128 271 188 271 308 c 0
 271 429 361 566 537 566 c 0
 587 566 653 550 686 482 c 1
 724 482 l 2
 741 482 754 482 754 466 c 0
 754 461 735 349 732 334 c 0
 729 316 710 206 710 198 c 0
 710 193 710 164 734 164 c 0
 828 164 845 378 845 411 c 0
 845 585 720 664 559 664 c 0
 294 664 163 461 163 283 c 0
 163 143 249 30 453 30 c 0
 511 30 623 37 755 86 c 0
 772 93 774 93 790 93 c 2
 814 93 l 2
 830 93 842 93 842 79 c 0
 842 72 838 68 831 65 c 0
 782 46 630 -6 452 -6 c 0
 219 -6 116 123 116 284 c 0
383 287 m 0
 383 224 408 164 473 164 c 0
 502 164 547 174 586 211 c 0
 599 223 600 225 602 240 c 2
 638 457 l 2
 639 464 640 469 641 473 c 1
 612 524 562 530 538 530 c 0
 437 530 383 393 383 287 c 0
EndSplineSet
EndChar

StartChar: A
Encoding: 65 65 72
Width: 869
Flags: HW
TeX: 690 0
HStem: 0 47<41 70 827 827> 193 47<315 543 315 555 287 543> 678 20<542.5 562.5>
AnchorPoint: "ogonek" 670 0 basechar 0
AnchorPoint: "below" 434 0 basechar 0
AnchorPoint: "above" 550 697 basechar 0
LayerCount: 2
Fore
SplineSet
41 0 m 1
 49 47 l 1
 70 47 l 2
 87 47 105 48 122 50 c 0
 147 53 151 54 159 69 c 2
 508 675 l 2
 521 698 535 698 550 698 c 0
 575 698 580 694 586 670 c 2
 738 47 l 1
 835 47 l 1
 827 0 l 1
 792 3 705 3 665 3 c 0
 622 3 526 3 488 0 c 1
 495 47 l 1
 590 47 l 1
 555 193 l 1
 287 193 l 1
 210 58 l 1
 226 51 228 51 252 49 c 0
 270 47 287 47 298 47 c 1
 290 0 l 1
 253 3 197 3 159 3 c 0
 128 3 82 1 41 0 c 1
315 240 m 1
 543 240 l 1
 475 518 l 1
 315 240 l 1
EndSplineSet
Substitution2: "LC caps to smallcaps subtable" A.sc
EndChar

StartChar: B
Encoding: 66 66 73
Width: 818
Flags: HW
TeX: 690 0
ItalicCorrection: 53
HStem: 0 47<46 155 286 470 470 503 39 155> 339 36<341 497 497 529 335 497> 639 47<153 253 145 587 385 385 385 566>
VStem: 667 141<501 589 494.5 590.5>
AnchorPoint: "below" 371 0 basechar 0
AnchorPoint: "above" 487 697 basechar 0
LayerCount: 2
Fore
SplineSet
39 0 m 1
 46 47 l 1
 155 47 l 1
 253 639 l 1
 145 639 l 1
 153 686 l 1
 587 686 l 2
 702 686 808 642 808 536 c 0
 808 453 737 381 608 358 c 1
 719 348 786 292 786 210 c 0
 786 117 696 0 503 0 c 2
 39 0 l 1
286 47 m 1
 470 47 l 2
 589 47 640 137 640 225 c 0
 640 339 551 339 529 339 c 2
 335 339 l 1
 286 47 l 1
341 375 m 1
 497 375 l 2
 610 375 667 460 667 542 c 0
 667 639 585 639 566 639 c 2
 385 639 l 1
 341 375 l 1
EndSplineSet
Substitution2: "LC caps to smallcaps subtable" B.sc
EndChar

StartChar: C
Encoding: 67 67 74
Width: 830
Flags: HW
TeX: 690 0
ItalicCorrection: 82
HStem: -11 47<457 514> 650 47<549.5 592.5 430 643>
VStem: 116 149<209.5 246 209.5 385.5>
AnchorPoint: "below" 469 0 basechar 0
AnchorPoint: "above" 579 697 basechar 0
LayerCount: 2
Fore
SplineSet
116 284 m 0
 116 487 281 697 579 697 c 0
 606 697 692 697 766 629 c 1
 855 697 l 1
 866 697 880 697 880 682 c 0
 880 681 880 680 878 670 c 2
 841 448 l 2
 837 427 835 426 813 426 c 0
 800 426 780 426 787 453 c 1
 781 594 688 650 598 650 c 0
 501 650 406 612 351 542 c 0
 265 430 265 249 265 243 c 0
 265 176 280 130 320 92 c 0
 357 57 421 36 493 36 c 0
 583 36 723 86 758 234 c 0
 761 248 769 248 782 248 c 0
 792 248 805 248 805 233 c 0
 805 232 798 142 701 66 c 0
 642 21 561 -11 467 -11 c 0
 262 -11 116 92 116 284 c 0
EndSplineSet
Substitution2: "LC caps to smallcaps subtable" C.sc
EndChar

StartChar: D
Encoding: 68 68 75
Width: 881
Flags: HW
TeX: 690 0
ItalicCorrection: 48
HStem: 0 47<46 155 291 437 437 470 39 155> 639 47<153 253 145 584 390 390 390 535>
VStem: 738 141<422.5 465.5>
AnchorPoint: "below" 403 0 basechar 0
AnchorPoint: "above" 519 697 basechar 0
LayerCount: 2
Fore
SplineSet
39 0 m 1
 46 47 l 1
 155 47 l 1
 253 639 l 1
 145 639 l 1
 153 686 l 1
 584 686 l 2
 719 686 879 620 879 407 c 0
 879 188 719 0 470 0 c 2
 39 0 l 1
291 47 m 1
 437 47 l 2
 666 47 704 228 717 286 c 0
 719 298 738 393 738 452 c 0
 738 479 738 549 682 595 c 0
 635 633 571 639 535 639 c 2
 390 639 l 1
 291 47 l 1
EndSplineSet
Substitution2: "LC caps to smallcaps subtable" D.sc
EndChar

StartChar: E
Encoding: 69 69 76
Width: 755
Flags: HW
TeX: 690 0
ItalicCorrection: 51
HStem: 0 47<46 155 297 449 449 545.5 39 155> 329 47<352 399 344 407> 633 53
AnchorPoint: "ogonek" 381 0 basechar 0
AnchorPoint: "below" 381 0 basechar 0
AnchorPoint: "above" 497 697 basechar 0
LayerCount: 2
Fore
SplineSet
39 0 m 1
 46 47 l 1
 155 47 l 1
 252 633 l 1
 144 633 l 1
 152 680 l 1
 773 680 l 1
 764 439 l 1
 717 439 l 1
 718 448 718 463 718 472 c 0
 718 582 683 633 547 633 c 2
 395 633 l 1
 352 376 l 1
 407 376 l 2
 495 376 520 410 532 493 c 1
 579 493 l 1
 532 212 l 1
 485 212 l 1
 491 239 491 258 491 260 c 0
 491 319 451 329 399 329 c 2
 344 329 l 1
 297 47 l 1
 449 47 l 2
 642 47 677 145 722 274 c 1
 769 274 l 1
 677 0 l 1
 39 0 l 1
EndSplineSet
Substitution2: "LC caps to smallcaps subtable" E.sc
EndChar

StartChar: F
Encoding: 70 70 77
Width: 723
Flags: HW
TeX: 690 0
ItalicCorrection: 67
HStem: 0 47<39 155 424 424> 317 47<342 400 350 392> 633 53
VStem: 702 55
AnchorPoint: "below" 357 0 basechar 0
AnchorPoint: "above" 473 697 basechar 0
LayerCount: 2
Fore
SplineSet
39 0 m 1
 46 47 l 1
 155 47 l 1
 252 633 l 1
 144 633 l 1
 152 680 l 1
 757 680 l 1
 748 439 l 1
 701 439 l 1
 702 449 702 473 702 475 c 0
 702 579 673 633 534 633 c 2
 395 633 l 1
 350 364 l 1
 400 364 l 2
 486 364 512 396 524 481 c 1
 571 481 l 1
 524 200 l 1
 477 200 l 1
 483 229 483 248 483 249 c 0
 483 305 448 317 392 317 c 2
 342 317 l 1
 297 47 l 1
 432 47 l 1
 424 0 l 1
 380 3 272 3 223 3 c 0
 179 3 77 3 39 0 c 1
EndSplineSet
Substitution2: "LC caps to smallcaps subtable" F.sc
EndChar

StartChar: G
Encoding: 71 71 78
Width: 904
Flags: HW
TeX: 690 0
ItalicCorrection: 8
HStem: -11 47<466 503.5> 229 47<525 526 525 661 518 526> 650 47<568.5 613.5 428.5 647.5>
VStem: 116 149<206.5 250 206.5 384.5>
AnchorPoint: "below" 470 0 basechar 0
AnchorPoint: "above" 579 697 basechar 0
LayerCount: 2
Fore
SplineSet
116 284 m 0
 116 485 278 697 579 697 c 0
 648 697 713 677 765 629 c 1
 854 697 l 1
 865 697 879 697 879 682 c 0
 879 681 879 680 877 670 c 2
 840 448 l 2
 836 427 834 426 812 426 c 0
 799 426 779 426 786 453 c 1
 782 583 698 650 597 650 c 0
 540 650 424 634 350 541 c 0
 267 436 265 255 265 245 c 0
 265 168 285 126 324 90 c 1
 366 53 435 36 497 36 c 0
 541 36 578 47 603 64 c 0
 637 87 640 107 647 145 c 0
 652 173 656 201 661 229 c 1
 518 229 l 1
 525 276 l 1
 526 276 l 1
 570 273 679 273 729 273 c 0
 768 273 856 273 891 276 c 1
 883 229 l 1
 803 229 l 1
 769 22 l 2
 767 10 765 0 753 0 c 0
 748 0 693 25 664 52 c 1
 611 4 539 -11 468 -11 c 0
 257 -11 116 95 116 284 c 0
EndSplineSet
Substitution2: "LC caps to smallcaps subtable" G.sc
EndChar

StartChar: H
Encoding: 72 72 79
Width: 900
Flags: HW
TeX: 690 0
ItalicCorrection: 107
HStem: 0 47<39 155 397 397 860 860> 333 47<353 665 345 673> 639 47<153 153 153 253 145 153>
AnchorPoint: "below" 449 0 basechar 0
AnchorPoint: "above" 565 697 basechar 0
LayerCount: 2
Fore
SplineSet
39 0 m 1
 46 47 l 1
 155 47 l 1
 253 639 l 1
 145 639 l 1
 153 686 l 1
 191 683 289 683 332 683 c 0
 375 683 474 683 512 686 c 1
 504 639 l 1
 396 639 l 1
 353 380 l 1
 673 380 l 1
 716 639 l 1
 608 639 l 1
 616 686 l 1
 654 683 752 683 795 683 c 0
 838 683 937 683 975 686 c 1
 967 639 l 1
 859 639 l 1
 760 47 l 1
 868 47 l 1
 860 0 l 1
 822 3 724 3 681 3 c 0
 638 3 540 3 502 0 c 1
 509 47 l 1
 618 47 l 1
 665 333 l 1
 345 333 l 1
 297 47 l 1
 405 47 l 1
 397 0 l 1
 359 3 261 3 218 3 c 0
 175 3 77 3 39 0 c 1
EndSplineSet
Substitution2: "LC caps to smallcaps subtable" H.sc
EndChar

StartChar: I
Encoding: 73 73 80
Width: 436
Flags: HW
TeX: 690 0
ItalicCorrection: 98
HStem: 0 47<33 155 402 402> 639 47<148 148 148 253 140 148>
AnchorPoint: "ogonek" 218 0 basechar 0
AnchorPoint: "below" 218 0 basechar 0
AnchorPoint: "above" 334 697 basechar 0
LayerCount: 2
Fore
SplineSet
33 0 m 1
 41 47 l 1
 155 47 l 1
 253 639 l 1
 140 639 l 1
 148 686 l 1
 186 683 288 683 332 683 c 0
 376 683 479 683 517 686 c 1
 509 639 l 1
 396 639 l 1
 297 47 l 1
 411 47 l 1
 402 0 l 1
 364 3 262 3 218 3 c 0
 172 3 74 3 33 0 c 1
EndSplineSet
EndChar

StartChar: J
Encoding: 74 74 81
Width: 594
Flags: HW
TeX: 690 0
ItalicCorrection: 80
HStem: -11 36<206.5 247 206.5 289.5> 42 149 639 47<283 284 283 416 276 284>
VStem: 41 155<116.5 131>
AnchorPoint: "below" 275 0 basechar 0
AnchorPoint: "above" 493 697 basechar 0
LayerCount: 2
Fore
SplineSet
41 100 m 0
 41 162 89 191 128 191 c 0
 158 191 196 172 196 125 c 0
 196 108 190 63 135 41 c 1
 169 26 201 25 212 25 c 0
 282 25 323 80 334 146 c 2
 416 639 l 1
 276 639 l 1
 283 686 l 1
 284 686 l 1
 328 683 433 683 482 683 c 0
 522 683 606 683 642 686 c 1
 634 639 l 1
 553 639 l 1
 471 146 l 2
 456 53 361 -11 218 -11 c 0
 111 -11 41 30 41 100 c 0
EndSplineSet
EndChar

StartChar: K
Encoding: 75 75 82
Width: 901
Flags: HW
TeX: 690 0
ItalicCorrection: 82
HStem: 0 47<39 155 397 397 852 852> 639 47<153 153 153 253 145 153>
AnchorPoint: "below" 445 0 basechar 0
AnchorPoint: "above" 561 697 basechar 0
LayerCount: 2
Fore
SplineSet
39 0 m 1
 46 47 l 1
 155 47 l 1
 253 639 l 1
 145 639 l 1
 153 686 l 1
 191 683 289 683 332 683 c 0
 375 683 474 683 512 686 c 1
 504 639 l 1
 396 639 l 1
 342 319 l 1
 764 628 l 1
 764 629 l 1
 738 639 716 639 694 639 c 1
 702 686 l 1
 738 683 810 683 848 683 c 0
 876 683 916 684 950 686 c 1
 943 639 l 1
 925 639 l 2
 892 639 854 639 829 621 c 2
 555 421 l 1
 766 66 l 2
 774 52 777 47 831 47 c 2
 860 47 l 1
 852 0 l 1
 815 3 746 3 706 3 c 0
 661 3 571 3 530 0 c 1
 538 47 l 1
 561 47 612 47 612 58 c 0
 612 61 609 66 607 69 c 2
 445 340 l 1
 332 258 l 1
 297 47 l 1
 405 47 l 1
 397 0 l 1
 359 3 261 3 218 3 c 0
 175 3 77 3 39 0 c 1
EndSplineSet
Substitution2: "LC caps to smallcaps subtable" K.sc
EndChar

StartChar: L
Encoding: 76 76 83
Width: 691
Flags: HW
TeX: 690 0
HStem: 0 47<46 155 297 400 400 489.5 39 155> 254 20<642 689 689 689> 639 47<153 153 153 253 145 153>
AnchorPoint: "below" 341 0 basechar 0
AnchorPoint: "above" 457 697 basechar 0
LayerCount: 2
Fore
SplineSet
39 0 m 1
 46 47 l 1
 155 47 l 1
 253 639 l 1
 145 639 l 1
 153 686 l 1
 191 683 292 683 336 683 c 0
 389 683 491 683 539 686 c 1
 531 639 l 1
 396 639 l 1
 297 47 l 1
 400 47 l 2
 579 47 622 204 642 274 c 1
 689 274 l 1
 612 0 l 1
 39 0 l 1
EndSplineSet
Substitution2: "LC caps to smallcaps subtable" L.sc
EndChar

StartChar: M
Encoding: 77 77 84
Width: 1091
Flags: HW
TeX: 690 0
ItalicCorrection: 107
HStem: 0 47<40 73 309 309 1051 1051> 639 47<154 254 146 377 1050 1158 1050 1050>
AnchorPoint: "below" 545 0 basechar 0
AnchorPoint: "above" 661 697 basechar 0
LayerCount: 2
Fore
SplineSet
40 0 m 1
 47 47 l 1
 73 47 l 2
 85 47 132 47 157 57 c 1
 254 639 l 1
 146 639 l 1
 154 686 l 1
 377 686 l 2
 408 686 410 681 416 659 c 2
 568 132 l 1
 897 662 l 2
 912 686 922 686 944 686 c 2
 1166 686 l 1
 1158 639 l 1
 1050 639 l 1
 951 47 l 1
 1059 47 l 1
 1051 0 l 1
 1015 3 922 3 881 3 c 0
 840 3 746 3 710 0 c 1
 717 47 l 1
 826 47 l 1
 924 637 l 1
 923 638 l 1
 541 23 l 2
 536 14 527 0 507 0 c 0
 486 0 483 12 478 29 c 2
 307 625 l 1
 306 625 l 1
 211 57 l 1
 236 47 274 47 291 47 c 2
 317 47 l 1
 309 0 l 1
 271 3 214 3 175 3 c 0
 133 3 81 3 40 0 c 1
EndSplineSet
Substitution2: "LC caps to smallcaps subtable" M.sc
EndChar

StartChar: N
Encoding: 78 78 85
Width: 900
Flags: HW
TeX: 690 0
ItalicCorrection: 107
HStem: 0 47<39 72 308 308> 639 47<153 253 145 380>
AnchorPoint: "below" 449 0 basechar 0
AnchorPoint: "above" 565 697 basechar 0
LayerCount: 2
Fore
SplineSet
39 0 m 1
 46 47 l 1
 72 47 l 2
 84 47 131 47 156 57 c 1
 253 639 l 1
 145 639 l 1
 153 686 l 1
 380 686 l 2
 401 686 403 686 413 672 c 2
 733 203 l 1
 801 613 l 1
 802 625 l 1
 802 639 735 639 723 639 c 2
 697 639 l 1
 705 686 l 1
 746 683 798 683 840 683 c 0
 880 683 936 683 975 686 c 1
 967 639 l 1
 941 639 l 2
 924 639 906 638 889 636 c 0
 859 633 858 632 855 615 c 2
 757 26 l 2
 753 2 747 0 728 0 c 0
 711 0 711 1 701 15 c 2
 300 601 l 1
 210 57 l 1
 235 47 273 47 290 47 c 2
 316 47 l 1
 308 0 l 1
 270 3 213 3 174 3 c 0
 132 3 80 3 39 0 c 1
EndSplineSet
Substitution2: "LC caps to smallcaps subtable" N.sc
EndChar

StartChar: O
Encoding: 79 79 86
Width: 863
Flags: HW
TeX: 690 0
ItalicCorrection: 48
HStem: -11 42<417 466 417 573> 657 40<498.5 577>
VStem: 115 149<217 257 217 374.5> 716 146<450 500.5 308.5 541.5>
AnchorPoint: "ogonek" 432 0 basechar 0
AnchorPoint: "below" 432 0 basechar 0
AnchorPoint: "above" 547 697 basechar 0
LayerCount: 2
Fore
SplineSet
115 271 m 0
 115 478 266 697 547 697 c 0
 740 697 862 591 862 410 c 0
 862 207 716 -11 430 -11 c 0
 253 -11 115 78 115 271 c 0
264 237 m 0
 264 197 271 135 303 93 c 0
 342 43 397 31 437 31 c 0
 495 31 580 57 640 153 c 1
 706 262 716 439 716 461 c 0
 716 622 613 657 541 657 c 0
 456 657 349 608 301 463 c 0
 275 383 264 277 264 237 c 0
EndSplineSet
Substitution2: "LC caps to smallcaps subtable" O.sc
EndChar

StartChar: P
Encoding: 80 80 87
Width: 786
Flags: HW
TeX: 690 0
ItalicCorrection: 53
HStem: 0 47<39 155 397 397> 302 41<340 474 341 474 474 495 341 516> 639 47<153 253 145 570 390 524 390 390>
VStem: 657 148<530 574 457 581>
AnchorPoint: "below" 355 0 basechar 0
AnchorPoint: "above" 471 697 basechar 0
LayerCount: 2
Fore
SplineSet
39 0 m 1
 46 47 l 1
 155 47 l 1
 253 639 l 1
 145 639 l 1
 153 686 l 1
 570 686 l 2
 703 686 805 629 805 519 c 0
 805 395 678 302 516 302 c 2
 340 302 l 1
 297 47 l 1
 405 47 l 1
 397 0 l 1
 359 3 261 3 218 3 c 0
 175 3 77 3 39 0 c 1
341 343 m 1
 474 343 l 2
 516 343 578 349 616 391 c 0
 643 422 657 509 657 551 c 0
 657 611 615 639 524 639 c 2
 390 639 l 1
 341 343 l 1
EndSplineSet
Substitution2: "LC caps to smallcaps subtable" P.sc
EndChar

StartChar: Q
Encoding: 81 81 88
Width: 863
Flags: HW
TeX: 690 194
ItalicCorrection: 48
HStem: -194 153<662.5 686 662.5 700> -11 40<429.5 440.5 429.5 451> 119 36<436 474> 657 40<519.5 579.5>
VStem: 115 142<189.5 251.5 189.5 374.5> 345 37<61.5 79 46.5 89> 720 142<448.5 500.5 331.5 533>
AnchorPoint: "below" 399 -194 basechar 0
AnchorPoint: "above" 547 697 basechar 0
LayerCount: 2
Fore
SplineSet
115 271 m 0
 115 478 266 697 547 697 c 0
 740 697 862 591 862 410 c 0
 862 253 771 77 593 17 c 1
 624 -41 651 -41 674 -41 c 0
 698 -41 757 -36 768 -1 c 0
 771 9 774 18 787 18 c 0
 795 18 805 12 805 -1 c 0
 805 -26 761 -194 639 -194 c 0
 542 -194 535 -108 527 -2 c 1
 511 -5 472 -11 430 -11 c 0
 253 -11 115 78 115 271 c 0
257 232 m 0
 257 147 283 84 347 50 c 1
 346 55 345 59 345 64 c 0
 345 114 396 155 454 155 c 0
 517 155 545 109 567 69 c 1
 720 165 720 446 720 451 c 0
 720 615 618 657 541 657 c 0
 498 657 412 644 342 550 c 1
 270 451 257 271 257 232 c 0
382 64 m 0
 382 29 423 29 436 29 c 0
 445 29 479 29 522 45 c 1
 514 98 493 119 455 119 c 0
 417 119 382 94 382 64 c 0
EndSplineSet
Substitution2: "LC caps to smallcaps subtable" Q.sc
EndChar

StartChar: R
Encoding: 82 82 89
Width: 862
Flags: HW
TeX: 690 0
HStem: -11 36<724.5 758 724.5 794> 0 47<39 155 391 391> 325 36<344 457 337 459> 639 47<153 253 145 533 390 390 390 507>
VStem: 652 150<537 571.5>
AnchorPoint: "below" 355 0 basechar 0
AnchorPoint: "above" 471 697 basechar 0
LayerCount: 2
Fore
SplineSet
39 0 m 1
 46 47 l 1
 155 47 l 1
 253 639 l 1
 145 639 l 1
 153 686 l 1
 533 686 l 2
 683 686 802 630 802 522 c 0
 802 429 709 364 604 339 c 1x78
 686 309 699 251 699 218 c 0
 699 195 695 137 695 114 c 0
 695 70 701 25 748 25 c 0
 768 25 811 36 827 100 c 0
 831 114 837 117 851 117 c 0
 857 117 874 117 874 99 c 0
 874 83 848 -11 740 -11 c 0
 645 -11 540 9 540 105 c 0
 540 112 540 119 548 164 c 0
 553 193 558 220 558 234 c 0
 558 269 540 325 457 325 c 2xb8
 337 325 l 1
 291 47 l 1
 399 47 l 1
 391 0 l 1
 355 3 257 3 215 3 c 0
 174 3 75 3 39 0 c 1
344 361 m 1
 459 361 l 2
 517 361 569 371 608 405 c 0
 645 437 652 528 652 546 c 0
 652 597 627 639 507 639 c 2
 390 639 l 1
 344 361 l 1
EndSplineSet
Substitution2: "LC caps to smallcaps subtable" R.sc
EndChar

StartChar: S
Encoding: 83 83 90
Width: 638
Flags: HW
TeX: 690 0
ItalicCorrection: 50
HStem: -11 47<324.5 411 321.5 443.5> 654 43<343.5 448.5 309.5 477>
VStem: 147 104 504 107<188.5 212.5>
AnchorPoint: "below" 350 0 basechar 0
AnchorPoint: "above" 401 697 basechar 0
LayerCount: 2
Fore
SplineSet
65 3 m 1
 98 206 l 2
 101 227 105 228 123 228 c 0
 133 228 147 228 147 213 c 0
 147 207 144 204 144 179 c 0
 144 48 293 36 350 36 c 0
 472 36 504 129 504 174 c 0
 504 251 436 266 412 272 c 1
 383 278 359 283 327 291 c 1
 264 304 228 312 188 354 c 0
 160 384 144 426 144 468 c 0
 144 559 218 697 401 697 c 0
 496 697 541 662 565 641 c 1
 619 688 l 2
 628 696 629 697 638 697 c 0
 641 697 656 697 656 682 c 0
 656 681 656 680 654 670 c 2
 623 481 l 2
 619 458 613 458 597 458 c 0
 574 458 574 463 574 484 c 0
 573 547 554 654 400 654 c 0
 287 654 251 575 251 531 c 0
 251 483 289 454 333 444 c 2
 468 414 l 2
 562 393 611 315 611 237 c 0
 611 140 539 -11 348 -11 c 0
 301 -11 214 -4 155 44 c 1
 138 28 120 13 102 -2 c 0
 92 -10 91 -11 82 -11 c 0
 74 -11 65 -8 65 3 c 1
EndSplineSet
Substitution2: "LC caps to smallcaps subtable" S.sc
EndChar

StartChar: T
Encoding: 84 84 91
Width: 800
Flags: HW
TeX: 690 0
ItalicCorrection: 67
HStem: 0 47<176 337 624 624> 628 58
AnchorPoint: "below" 399 0 basechar 0
AnchorPoint: "above" 515 697 basechar 0
LayerCount: 2
Fore
SplineSet
114 434 m 1
 176 675 l 1
 848 675 l 1
 829 434 l 1
 782 434 l 1
 783 442 786 476 786 501 c 0
 786 563 778 628 652 628 c 2
 576 628 l 1
 479 47 l 1
 632 47 l 1
 624 0 l 1
 570 3 459 3 400 3 c 0
 341 3 230 3 176 0 c 1
 184 47 l 1
 337 47 l 1
 433 628 l 1
 357 628 l 2
 213 628 192 549 161 434 c 1
 114 434 l 1
EndSplineSet
Substitution2: "LC caps to smallcaps subtable" T.sc
EndChar

StartChar: U
Encoding: 85 85 92
Width: 884
Flags: HW
TeX: 690 0
ItalicCorrection: 107
HStem: -11 47<429 547 429 566.5> 639 47<153 153 153 253 145 153>
VStem: 182 138<140.5 170.5 112.5 203.5>
AnchorPoint: "ogonek" 465 0 basechar 0
AnchorPoint: "below" 465 0 basechar 0
AnchorPoint: "above" 557 697 basechar 0
LayerCount: 2
Fore
SplineSet
145 639 m 1
 153 686 l 1
 191 683 289 683 332 683 c 0
 375 683 474 683 512 686 c 1
 504 639 l 1
 396 639 l 1
 326 219 l 2
 323 200 320 180 320 161 c 0
 320 64 389 36 469 36 c 0
 625 36 705 130 722 229 c 2
 786 613 l 1
 787 625 l 1
 787 639 720 639 708 639 c 2
 682 639 l 1
 690 686 l 1
 731 683 783 683 825 683 c 0
 865 683 921 683 960 686 c 1
 952 639 l 1
 926 639 l 2
 909 639 891 638 874 636 c 0
 844 633 843 632 840 615 c 2
 775 224 l 2
 758 124 670 -11 463 -11 c 0
 269 -11 182 85 182 196 c 0
 182 211 183 216 185 229 c 2
 253 639 l 1
 145 639 l 1
EndSplineSet
Substitution2: "LC caps to smallcaps subtable" U.sc
EndChar

StartChar: V
Encoding: 86 86 93
Width: 869
Flags: HW
TeX: 690 0
ItalicCorrection: 130
HStem: -8 21<418.5 443.5> 639 47<140 140 140 225 132 140>
AnchorPoint: "below" 434 0 basechar 0
AnchorPoint: "above" 549 697 basechar 0
LayerCount: 2
Fore
SplineSet
132 639 m 1
 140 686 l 1
 175 683 259 683 298 683 c 0
 341 683 437 683 475 686 c 1
 468 639 l 1
 374 639 l 1
 506 160 l 1
 784 616 l 2
 790 625 790 626 790 627 c 0
 790 639 715 639 705 639 c 1
 713 686 l 1
 750 683 805 683 843 683 c 0
 877 683 918 685 957 686 c 1
 949 639 l 1
 930 639 l 2
 856 639 851 630 843 617 c 2
 477 17 l 2
 463 -6 454 -8 433 -8 c 0
 404 -8 402 0 397 18 c 2
 225 639 l 1
 132 639 l 1
EndSplineSet
Substitution2: "LC caps to smallcaps subtable" V.sc
EndChar

StartChar: W
Encoding: 87 87 94
Width: 1188
Flags: HW
TeX: 690 0
ItalicCorrection: 130
HStem: -8 21<375.5 396 793.5 814> 639 47<139 139 139 216 131 139>
AnchorPoint: "below" 593 0 basechar 0
AnchorPoint: "above" 709 697 basechar 0
LayerCount: 2
Fore
SplineSet
131 639 m 1
 139 686 l 1
 175 683 252 683 291 683 c 0
 334 683 428 683 466 686 c 1
 459 639 l 1
 363 639 l 1
 463 181 l 1
 658 533 l 1
 634 639 l 1
 549 639 l 1
 557 686 l 1
 593 683 670 683 709 683 c 0
 752 683 846 683 884 686 c 1
 877 639 l 1
 781 639 l 1
 881 181 l 1
 1121 614 l 1
 1127 629 l 1
 1096 639 1051 639 1028 639 c 1
 1036 686 l 1
 1073 683 1132 683 1171 683 c 0
 1212 683 1252 685 1278 686 c 1
 1270 639 l 1
 1185 639 1182 633 1173 617 c 2
 840 17 l 2
 831 1 826 -8 802 -8 c 0
 785 -8 775 -5 770 19 c 2
 672 468 l 1
 422 17 l 2
 413 1 408 -8 384 -8 c 0
 367 -8 357 -5 352 19 c 2
 216 639 l 1
 131 639 l 1
EndSplineSet
Substitution2: "LC caps to smallcaps subtable" W.sc
EndChar

StartChar: X
Encoding: 88 88 95
Width: 869
Flags: HW
TeX: 690 0
ItalicCorrection: 98
HStem: 0 47<34 71 320 320 834 834> 639 47<163 164 163 254 156 164 614 614.5>
AnchorPoint: "below" 435 0 basechar 0
AnchorPoint: "above" 551 697 basechar 0
LayerCount: 2
Fore
SplineSet
34 0 m 1
 42 47 l 1
 71 47 l 2
 99 47 100 47 131 50 c 0
 166 53 168 55 179 67 c 2
 424 333 l 1
 254 639 l 1
 156 639 l 1
 163 686 l 1
 164 686 l 1
 199 683 286 683 325 683 c 0
 368 683 468 683 506 686 c 1
 498 639 l 1
 415 639 l 1
 525 442 l 1
 697 628 l 1
 664 639 622 639 607 639 c 1
 614 686 l 1
 615 686 l 1
 650 683 728 683 766 683 c 0
 809 683 858 683 900 686 c 1
 892 639 l 1
 863 639 l 2
 843 639 821 638 801 636 c 0
 769 633 766 630 757 620 c 2
 550 397 l 1
 745 47 l 1
 843 47 l 1
 834 0 l 1
 799 3 712 3 673 3 c 0
 628 3 533 3 492 0 c 1
 500 47 l 1
 583 47 l 1
 449 288 l 1
 238 58 l 1
 272 47 308 47 328 47 c 1
 320 0 l 1
 284 3 207 3 168 3 c 0
 125 3 76 3 34 0 c 1
EndSplineSet
Substitution2: "LC caps to smallcaps subtable" X.sc
EndChar

StartChar: Y
Encoding: 89 89 96
Width: 869
Flags: HW
TeX: 690 0
ItalicCorrection: 143
HStem: 0 47<258 374 610 610> 639 47<134 134 134 223 126 134>
AnchorPoint: "below" 434 0 basechar 0
AnchorPoint: "above" 550 697 basechar 0
LayerCount: 2
Fore
SplineSet
126 639 m 1
 134 686 l 1
 169 683 258 683 298 683 c 0
 343 683 440 683 481 686 c 1
 473 639 l 1
 388 639 l 1
 542 342 l 1
 784 628 l 1
 782 629 784 631 777 632 c 1
 757 639 713 639 709 639 c 1
 717 686 l 1
 756 683 809 683 849 683 c 0
 877 683 929 685 963 686 c 1
 955 639 l 1
 935 639 l 2
 916 639 889 637 879 636 c 0
 854 633 853 632 841 618 c 2
 548 274 l 1
 510 47 l 1
 619 47 l 1
 610 0 l 1
 574 3 476 3 434 3 c 0
 393 3 294 3 258 0 c 1
 265 47 l 1
 374 47 l 1
 412 274 l 1
 223 639 l 1
 126 639 l 1
EndSplineSet
Substitution2: "LC caps to smallcaps subtable" Y.sc
EndChar

StartChar: Z
Encoding: 90 90 97
Width: 702
Flags: HW
TeX: 690 0
ItalicCorrection: 82
HStem: 0 51<239 379 379 482.5> 639 47<386 449 449 579>
VStem: 67 682<8 678.5>
AnchorPoint: "below" 354 0 basechar 0
AnchorPoint: "above" 470 697 basechar 0
LayerCount: 2
Fore
SplineSet
67 16 m 0
 67 35 72 40 82 52 c 2
 579 639 l 1
 449 639 l 2
 323 639 234 591 201 445 c 1
 154 445 l 1
 206 686 l 1
 720 686 l 2
 735 686 749 686 749 671 c 0
 749 653 742 645 736 637 c 2
 239 51 l 1
 379 51 l 2
 586 51 619 176 645 284 c 1
 692 284 l 1
 627 0 l 1
 96 0 l 2
 79 0 67 0 67 16 c 0
EndSplineSet
Substitution2: "LC caps to smallcaps subtable" Z.sc
EndChar

StartChar: bracketleft
Encoding: 91 91 98
Width: 319
Flags: HW
TeX: 749 249
ItalicCorrection: 124
HStem: -250 36<178 252> 714 36<332 413>
DStem2: 63 -250 172.001 -250 0.164359 0.986401<54.4117 995.103>
LayerCount: 2
Fore
SplineSet
63 -250 m 1
 230 750 l 1
 418 750 l 1
 413 714 l 1
 332 714 l 1
 178 -214 l 1
 258 -214 l 1
 252 -250 l 1
 63 -250 l 1
EndSplineSet
EndChar

StartChar: backslash
Encoding: 92 92 99
Width: 575
Flags: HW
TeX: 749 249
VStem: 433 37<-248.741 -197.114>
DStem2: 224 724 188 717 0.251961 -0.967737<-15.1986 984.978>
LayerCount: 2
Fore
SplineSet
186 730 m 0
 186 742 195 749 203 749 c 0
 220 749 224 726 224 724 c 2
 469 -217 l 2
 470 -222 470 -225 470 -230 c 0
 470 -242 462 -249 454 -249 c 0
 437 -249 433 -226 433 -224 c 2
 188 717 l 2
 187 721 186 726 186 730 c 0
EndSplineSet
EndChar

StartChar: bracketright
Encoding: 93 93 100
Width: 319
Flags: HW
TeX: 749 249
ItalicCorrection: 27
HStem: -250 36<-10 70> 714 36<151 225>
DStem2: 64.0015 -250 173 -250 0.164359 0.986401<36.4963 977.352>
LayerCount: 2
Fore
SplineSet
-16 -250 m 1
 -10 -214 l 1
 70 -214 l 1
 225 714 l 1
 145 714 l 1
 151 750 l 1
 339 750 l 1
 173 -250 l 1
 -16 -250 l 1
EndSplineSet
EndChar

StartChar: asciicircum
Encoding: 94 94 101
Width: 703
Flags: HW
TeX: 690 0
ItalicCorrection: 6
HStem: 460 172
LayerCount: 2
Fore
SplineSet
216 502 m 1
 456 632 l 1
 653 502 l 1
 653 501 l 1
 624 460 l 1
 442 550 l 1
 231 460 l 1
 216 502 l 1
EndSplineSet
EndChar

StartChar: underscore
Encoding: 95 95 102
Width: 894
Flags: HW
TeX: 0 307
HStem: -308 61<51.4368 748.715>
LayerCount: 2
Fore
SplineSet
50 -278 m 0
 50 -269 54 -247 90 -247 c 2
 709 -247 l 2
 744 -247 750 -266 750 -278 c 0
 750 -290 744 -308 710 -308 c 2
 90 -308 l 2
 76 -308 50 -306 50 -278 c 0
EndSplineSet
EndChar

StartChar: quoteleft
Encoding: 8216 8216 103
Width: 319
Flags: HW
TeX: 690 0
ItalicCorrection: 65
HStem: 344 155<182.888 276.614> 672 20G<298 304.5>
VStem: 141 167<375.601 477.992>
LayerCount: 2
Fore
SplineSet
141 441 m 0
 141 501 178 602 269 674 c 0
 286 688 295 692 301 692 c 0
 308 692 319 685 319 674 c 0
 319 663 306 657 301 653 c 0
 245 612 201 556 182 479 c 1
 201 493 217 499 240 499 c 0
 282 499 308 471 308 433 c 0
 308 390 274 344 220 344 c 0
 165 344 141 393 141 441 c 0
EndSplineSet
EndChar

StartChar: a
Encoding: 97 97 104
Width: 559
Flags: HW
TeX: 444 0
HStem: -6 36<221.5 255.5 221.5 280.5> 234 30 417 36<304 330>
VStem: 49 117<75 111.5 75 125.5> 410 113<326 353 317 375>
AnchorPoint: "ogonek" 417 0 basechar 0
AnchorPoint: "affricate-below" 527 -194 basechar 0
AnchorPoint: "affricate-above" 675 694 basechar 0
AnchorPoint: "below" 249 0 basechar 0
AnchorPoint: "above" 324 453 basechar 0
LayerCount: 2
Fore
SplineSet
49 95 m 0
 49 156 104 206 175 230 c 1
 251 257 296 259 401 265 c 1
 405 288 410 319 410 333 c 0
 410 417 341 417 319 417 c 0
 285 417 244 412 244 409 c 0
 244 408 247 404 247 403 c 0
 255 393 258 382 258 370 c 0
 258 327 222 298 187 298 c 0
 154 298 131 320 131 351 c 0
 131 453 284 453 324 453 c 0
 480 453 523 383 523 323 c 0
 523 311 518 279 514 258 c 0
 512 246 505 204 504 196 c 0
 501 181 482 70 482 65 c 0
 482 48 529 47 538 47 c 0
 546 47 563 47 563 28 c 0
 563 0 548 0 529 0 c 2
 481 0 l 2
 449 0 384 4 384 56 c 0
 384 61 385 69 386 74 c 1
 384 70 334 -6 227 -6 c 0
 180 -6 49 2 49 95 c 0
166 95 m 0
 166 55 200 30 243 30 c 0
 268 30 307 39 337 64 c 0
 372 93 377 120 382 150 c 0
 387 178 391 206 396 234 c 1
 194 224 166 128 166 95 c 0
EndSplineSet
Substitution2: "LC small to smallcaps subtable" A.sc
EndChar

StartChar: b
Encoding: 98 98 105
Width: 638
Flags: HW
TeX: 690 0
ItalicCorrection: 21
HStem: -6 36<307 368 304 442.5> 414 36<403.5 470> 639 55
VStem: 519 122<303.5 318>
AnchorPoint: "affricate-below" 606 -194 basechar 0
AnchorPoint: "affricate-above" 754 694 basechar 0
AnchorPoint: "below" 353 0 basechar 0
AnchorPoint: "above" 468 694 basechar 0
LayerCount: 2
Fore
SplineSet
106 0 m 1
 205 596 l 2
 208 612 208 614 208 618 c 0
 208 633 201 636 184 638 c 0
 173 639 156 639 143 639 c 1
 151 686 l 1
 330 694 l 1
 282 404 l 1
 325 431 374 450 433 450 c 0
 558 450 641 380 641 263 c 0
 641 128 536 -6 349 -6 c 0
 265 -6 224 42 213 57 c 1
 204 48 203 47 192 38 c 0
 179 26 166 13 154 0 c 1
 106 0 l 1
237 100 m 0
 237 91 267 30 341 30 c 0
 395 30 448 58 476 109 c 0
 509 169 519 298 519 309 c 0
 519 327 519 414 421 414 c 0
 385 414 328 400 278 348 c 1
 239 112 l 2
 237 102 237 101 237 100 c 0
EndSplineSet
Substitution2: "LC small to smallcaps subtable" B.sc
EndChar

StartChar: c
Encoding: 99 99 106
Width: 511
Flags: HW
TeX: 444 0
ItalicCorrection: 61
HStem: -6 40<278.5 338 278.5 368> 413 40<323 383>
VStem: 72 124<116 156 111 243.5> 399 127<347 354>
AnchorPoint: "affricate-below" 479 -194 basechar 0
AnchorPoint: "affricate-above" 627 694 basechar 0
AnchorPoint: "below" 288 0 basechar 0
AnchorPoint: "above" 364 453 basechar 0
LayerCount: 2
Fore
SplineSet
72 183 m 0
 72 304 160 453 364 453 c 0
 443 453 526 439 526 372 c 0
 526 322 485 298 455 298 c 0
 422 298 399 320 399 351 c 0
 399 357 400 388 427 408 c 1
 421 409 400 413 366 413 c 0
 280 413 245 352 236 334 c 0
 199 262 196 157 196 155 c 0
 196 67 248 34 309 34 c 0
 367 34 419 65 446 112 c 0
 457 130 458 131 474 131 c 0
 483 131 497 131 497 117 c 0
 497 109 449 -6 287 -6 c 0
 174 -6 72 49 72 183 c 0
EndSplineSet
Substitution2: "LC small to smallcaps subtable" C.sc
EndChar

StartChar: d
Encoding: 100 100 107
Width: 638
Flags: HW
TeX: 690 0
ItalicCorrection: 44
HStem: -6 36<253 298.5> 414 36<348.5 375 275.5 394> 639 55
VStem: 72 121<111.5 140.5 108.5 255.5>
AnchorPoint: "affricate-below" 606 -194 basechar 0
AnchorPoint: "affricate-above" 754 694 basechar 0
AnchorPoint: "below" 320 0 basechar 0
AnchorPoint: "above" 401 694 basechar 0
LayerCount: 2
Fore
SplineSet
72 181 m 0
 72 330 189 450 362 450 c 0
 388 450 443 447 491 404 c 1
 523 596 l 2
 526 612 526 614 526 618 c 0
 526 633 519 636 502 638 c 0
 491 639 474 639 461 639 c 1
 469 686 l 1
 648 694 l 1
 546 81 l 2
 545 73 544 70 544 68 c 0
 544 47 562 47 609 47 c 1
 601 0 l 1
 417 -6 l 1
 424 41 l 1
 369 3 318 -6 279 -6 c 0
 180 -6 72 42 72 181 c 0
193 135 m 0
 193 82 216 30 290 30 c 0
 316 30 350 37 383 59 c 0
 408 75 433 92 438 121 c 2
 477 355 l 1
 453 394 417 414 371 414 c 0
 326 414 268 393 236 335 c 0
 203 275 193 146 193 135 c 0
EndSplineSet
Substitution2: "LC small to smallcaps subtable" D.sc
EndChar

StartChar: e
Encoding: 101 101 108
Width: 527
Flags: HW
TeX: 444 0
ItalicCorrection: 56
HStem: -6 40<295 314.5 295 374> 218 33<202 441 202 501 197 441> 417 36<292.5 390>
VStem: 66 123<134 151.5 134 247.5> 446 92<299 333>
AnchorPoint: "ogonek" 296 0 basechar 0
AnchorPoint: "affricate-below" 495 -194 basechar 0
AnchorPoint: "affricate-above" 643 694 basechar 0
AnchorPoint: "below" 296 0 basechar 0
AnchorPoint: "above" 351 453 basechar 0
LayerCount: 2
Fore
SplineSet
66 187 m 0
 66 308 159 453 351 453 c 0
 465 453 538 403 538 288 c 0
 538 218 528 218 501 218 c 2
 197 218 l 1
 191 182 189 155 189 148 c 0
 189 120 195 85 219 63 c 0
 247 38 285 34 305 34 c 0
 324 34 416 37 465 120 c 0
 472 130 475 135 490 135 c 0
 495 135 513 135 513 117 c 0
 513 101 453 -6 295 -6 c 0
 153 -6 66 70 66 187 c 0
202 251 m 1
 441 251 l 1
 442 260 446 292 446 306 c 0
 446 360 428 417 352 417 c 0
 233 417 208 282 202 251 c 1
EndSplineSet
Substitution2: "LC small to smallcaps subtable" E.sc
EndChar

StartChar: f
Encoding: 102 102 109
Width: 351
Flags: HW
TeX: 690 0
ItalicCorrection: 224
HStem: 0 47<48 125 311 311> 397 47<116 183 108 191 293 406> 664 36<402 437>
VStem: 415 125<600 607.5>
AnchorPoint: "affricate-below" 319 -194 basechar 0
AnchorPoint: "affricate-above" 467 694 basechar 0
AnchorPoint: "above" 436 694 basechar 0
AnchorPoint: "below" 171 0 basechar 0
LayerCount: 2
Fore
SplineSet
48 0 m 1
 55 47 l 1
 125 47 l 1
 183 397 l 1
 108 397 l 1
 116 444 l 1
 191 444 l 1
 208 550 l 2
 222 638 312 700 437 700 c 0
 512 700 540 659 540 623 c 0
 540 577 502 551 470 551 c 0
 445 551 415 567 415 604 c 0
 415 611 418 644 446 662 c 1
 442 664 441 664 433 664 c 0
 371 664 324 618 312 557 c 1
 293 444 l 1
 414 444 l 1
 406 397 l 1
 291 397 l 1
 233 47 l 1
 320 47 l 1
 311 0 l 1
 272 3 214 3 174 3 c 0
 136 3 78 1 48 0 c 1
EndSplineSet
Substitution2: "LC small to smallcaps subtable" F.sc
EndChar

StartChar: g
Encoding: 103 103 110
Width: 575
Flags: HW
TeX: 444 194
ItalicCorrection: 90
HStem: -201 36<205 318> -13 96<152 276 210 276 276 312> 154 36<262 306.5 249.5 362> 414 36<312 343.5>
VStem: 91 56<108.5 110> 444 88<-83 -39>
AnchorPoint: "affricate-below" 543 -194 basechar 0
AnchorPoint: "affricate-above" 691 694 basechar 0
AnchorPoint: "below" 257 -194 basechar 0
AnchorPoint: "above" 331 453 basechar 0
LayerCount: 2
Fore
SplineSet
19 -85 m 0
 19 -27 78 3 120 12 c 1
 92 42 91 74 91 88 c 0
 91 132 112 169 140 198 c 1
 136 202 105 231 105 283 c 0
 105 361 175 450 327 450 c 0
 375 450 424 441 457 417 c 1
 509 455 562 455 568 455 c 0
 617 455 625 417 625 404 c 0
 625 380 608 354 576 354 c 0
 556 354 538 366 538 391 c 0
 538 400 540 410 545 417 c 1
 527 415 509 411 480 396 c 1
 499 372 506 344 506 321 c 0
 506 248 441 154 283 154 c 0
 241 154 197 161 165 180 c 1
 158 172 147 155 147 134 c 0
 147 83 192 83 210 83 c 2
 276 83 l 2
 392 83 532 83 532 -49 c 0
 532 -169 380 -201 256 -201 c 0
 75 -201 19 -140 19 -85 c 0
105 -86 m 0
 105 -130 153 -165 257 -165 c 0
 398 -165 444 -101 444 -65 c 0
 444 -13 343 -13 312 -13 c 2
 196 -13 l 2
 108 -13 105 -77 105 -86 c 0
212 253 m 0
 212 234 214 190 285 190 c 0
 328 190 361 211 375 237 c 0
 395 276 399 349 399 351 c 0
 399 403 361 414 326 414 c 0
 298 414 259 405 237 370 c 1
 220 341 212 269 212 253 c 0
EndSplineSet
Substitution2: "LC small to smallcaps subtable" G.sc
EndChar

StartChar: h
Encoding: 104 104 111
Width: 638
Flags: HW
TeX: 690 0
HStem: 0 47<45 122 297 297 615 615> 414 36<413 465.5> 639 55
VStem: 489 111<355.5 373 335 376>
AnchorPoint: "affricate-below" 606 -194 basechar 0
AnchorPoint: "affricate-above" 754 694 basechar 0
AnchorPoint: "below" 330 0 basechar 0
AnchorPoint: "above" 446 694 basechar 0
LayerCount: 2
Fore
SplineSet
45 0 m 1
 52 47 l 1
 122 47 l 1
 213 596 l 2
 216 612 216 614 216 618 c 0
 216 633 209 636 192 638 c 0
 181 639 164 639 151 639 c 1
 159 686 l 1
 338 694 l 1
 282 357 l 1
 283 357 l 1
 301 382 361 450 465 450 c 0
 572 450 600 404 600 342 c 0
 600 328 600 323 597 305 c 2
 554 47 l 1
 623 47 l 1
 615 0 l 1
 587 1 528 3 489 3 c 0
 458 3 396 2 363 0 c 1
 370 47 l 1
 440 47 l 1
 487 331 l 2
 489 343 489 350 489 361 c 0
 489 391 483 414 448 414 c 0
 374 414 293 354 273 270 c 0
 272 262 249 123 236 47 c 1
 305 47 l 1
 297 0 l 1
 269 1 210 3 171 3 c 0
 140 3 78 2 45 0 c 1
EndSplineSet
Substitution2: "LC small to smallcaps subtable" H.sc
EndChar

StartChar: i
Encoding: 105 105 112
Width: 319
Flags: HW
TeX: 690 0
ItalicCorrection: 65
HStem: 0 47<47 124 286 286> 395 55 539 156<245.5 273.5>
VStem: 180 158<605 630>
AnchorPoint: "above" 282 675 basechar 0
AnchorPoint: "ogonek" 166 0 basechar 0
AnchorPoint: "affricate-below" 287 -194 basechar 0
AnchorPoint: "affricate-above" 435 694 basechar 0
AnchorPoint: "below" 170 0 basechar 0
LayerCount: 2
Fore
SplineSet
180 607 m 0
 180 653 222 695 269 695 c 0
 310 695 338 663 338 627 c 0
 338 583 298 539 249 539 c 0
 208 539 180 571 180 607 c 0
EndSplineSet
Refer: 32 305 S 1 0 0 1 0 0 3
Substitution2: "LC small to smallcaps subtable" I.sc
EndChar

StartChar: j
Encoding: 106 106 113
Width: 351
Flags: HW
TeX: 690 194
ItalicCorrection: 44
HStem: -200 36<51 86.5 51 102.5> 395 55 539 156<279 307>
VStem: -75 127<-111 -98.5> 213 158<605 631>
AnchorPoint: "affricate-below" 319 -194 basechar 0
AnchorPoint: "affricate-above" 467 694 basechar 0
AnchorPoint: "below" 95 -194 basechar 0
LayerCount: 2
Fore
SplineSet
213 607 m 0
 213 655 256 695 302 695 c 0
 342 695 371 665 371 626 c 0
 371 584 332 539 282 539 c 0
 243 539 213 568 213 607 c 0
EndSplineSet
Refer: 33 567 S 1 0 0 1 0 0 3
Substitution2: "LC small to smallcaps subtable" J.sc
EndChar

StartChar: k
Encoding: 107 107 114
Width: 606
Flags: HW
TeX: 690 0
ItalicCorrection: 61
HStem: 0 47<37 114 278 278 587 587> 397 47 639 55
AnchorPoint: "affricate-below" 574 -194 basechar 0
AnchorPoint: "affricate-above" 722 694 basechar 0
AnchorPoint: "below" 312 0 basechar 0
AnchorPoint: "above" 427 694 basechar 0
LayerCount: 2
Fore
SplineSet
37 0 m 1
 44 47 l 1
 114 47 l 1
 205 596 l 2
 208 612 208 614 208 618 c 0
 208 633 201 636 184 638 c 0
 173 639 156 639 143 639 c 1
 151 686 l 1
 330 694 l 1
 254 238 l 1
 457 378 l 2
 461 381 466 384 466 387 c 0
 466 398 436 398 435 398 c 2
 443 444 l 1
 468 443 534 441 557 441 c 0
 582 441 612 441 636 444 c 1
 628 397 l 1
 574 397 553 393 535 380 c 2
 388 278 l 1
 523 66 l 2
 531 54 533 50 550 48 c 0
 561 47 573 47 594 47 c 1
 587 0 l 1
 552 2 518 3 484 3 c 0
 481 3 393 2 361 0 c 1
 369 47 l 1
 381 47 402 47 402 57 c 0
 402 58 397 66 396 68 c 2
 301 218 l 1
 238 174 l 1
 217 47 l 1
 286 47 l 1
 278 0 l 1
 241 1 194 3 158 3 c 0
 117 3 70 1 37 0 c 1
EndSplineSet
Substitution2: "LC small to smallcaps subtable" K.sc
EndChar

StartChar: l
Encoding: 108 108 115
Width: 319
Flags: HW
TeX: 690 0
ItalicCorrection: 44
HStem: 0 47<47 124 293 293> 639 55
AnchorPoint: "affricate-below" 287 -194 basechar 0
AnchorPoint: "affricate-above" 435 694 basechar 0
AnchorPoint: "below" 170 0 basechar 0
AnchorPoint: "above" 286 694 basechar 0
LayerCount: 2
Fore
SplineSet
47 0 m 1
 54 47 l 1
 124 47 l 1
 215 596 l 2
 218 612 218 614 218 618 c 0
 218 633 211 636 194 638 c 0
 183 639 166 639 153 639 c 1
 161 686 l 1
 340 694 l 1
 232 47 l 1
 301 47 l 1
 293 0 l 1
 259 1 213 3 170 3 c 0
 133 3 73 1 47 0 c 1
EndSplineSet
Substitution2: "LC small to smallcaps subtable" L.sc
EndChar

StartChar: m
Encoding: 109 109 116
Width: 958
Flags: HW
TeX: 444 0
HStem: 0 47<45 122 297 297 616 616 935 935> 414 36<412 465 731 784>
VStem: 809 111<354.5 373 335 377>
AnchorPoint: "affricate-below" 926 -194 basechar 0
AnchorPoint: "affricate-above" 1074 694 basechar 0
AnchorPoint: "below" 490 0 basechar 0
AnchorPoint: "above" 565 453 basechar 0
LayerCount: 2
Fore
SplineSet
45 0 m 1
 52 47 l 1
 122 47 l 1
 174 362 l 2
 176 372 176 373 176 375 c 0
 176 395 155 395 110 395 c 1
 118 442 l 1
 292 450 l 1
 275 347 l 1
 276 347 l 1
 280 353 341 450 465 450 c 0
 570 450 596 407 601 355 c 1
 606 362 667 450 784 450 c 0
 892 450 920 404 920 342 c 0
 920 328 920 323 917 305 c 2
 874 47 l 1
 943 47 l 1
 935 0 l 1
 907 1 848 3 809 3 c 0
 778 3 716 2 683 0 c 1
 690 47 l 1
 760 47 l 1
 807 331 l 2
 809 343 809 349 809 360 c 0
 809 394 801 414 767 414 c 0
 695 414 612 356 592 270 c 0
 591 262 568 123 555 47 c 1
 624 47 l 1
 616 0 l 1
 588 1 529 3 490 3 c 0
 459 3 397 2 364 0 c 1
 371 47 l 1
 441 47 l 1
 488 331 l 2
 490 343 490 349 490 360 c 0
 490 394 482 414 448 414 c 0
 376 414 293 356 273 270 c 0
 272 262 249 123 236 47 c 1
 305 47 l 1
 297 0 l 1
 269 1 210 3 171 3 c 0
 140 3 78 2 45 0 c 1
EndSplineSet
Substitution2: "LC small to smallcaps subtable" M.sc
EndChar

StartChar: n
Encoding: 110 110 117
Width: 638
Flags: HW
TeX: 444 0
HStem: 0 47<45 122 297 297 615 615> 414 36<415.5 465.5>
VStem: 489 111<355.5 373 335 376>
AnchorPoint: "affricate-below" 606 -194 basechar 0
AnchorPoint: "affricate-above" 754 694 basechar 0
AnchorPoint: "below" 330 0 basechar 0
AnchorPoint: "above" 405 453 basechar 0
LayerCount: 2
Fore
SplineSet
45 0 m 1
 52 47 l 1
 122 47 l 1
 174 362 l 2
 176 372 176 373 176 375 c 0
 176 395 155 395 110 395 c 1
 118 442 l 1
 292 450 l 1
 275 347 l 1
 276 347 l 1
 304 389 366 450 465 450 c 0
 572 450 600 404 600 342 c 0
 600 328 600 323 597 305 c 2
 554 47 l 1
 623 47 l 1
 615 0 l 1
 587 1 528 3 489 3 c 0
 458 3 396 2 363 0 c 1
 370 47 l 1
 440 47 l 1
 487 331 l 2
 489 343 489 350 489 361 c 0
 489 391 483 414 448 414 c 0
 374 414 293 354 273 270 c 0
 272 262 249 123 236 47 c 1
 305 47 l 1
 297 0 l 1
 269 1 210 3 171 3 c 0
 140 3 78 2 45 0 c 1
EndSplineSet
Substitution2: "LC small to smallcaps subtable" N.sc
EndChar

StartChar: o
Encoding: 111 111 118
Width: 575
Flags: HW
TeX: 444 0
ItalicCorrection: 51
HStem: -6 40<240.5 318.5 240.5 384> 417 36<327.5 409>
VStem: 65 123<125.5 159 125.5 240.5> 462 120<300.5 326.5 195 327>
AnchorPoint: "ogonek" 287 0 basechar 0
AnchorPoint: "affricate-below" 543 -194 basechar 0
AnchorPoint: "affricate-above" 691 694 basechar 0
AnchorPoint: "below" 287 0 basechar 0
AnchorPoint: "above" 362 453 basechar 0
LayerCount: 2
Fore
SplineSet
65 178 m 0
 65 303 162 453 362 453 c 0
 487 453 582 392 582 261 c 0
 582 129 482 -6 286 -6 c 0
 150 -6 65 62 65 178 c 0
188 137 m 0
 188 114 188 34 293 34 c 0
 344 34 398 58 421 110 c 1
 448 168 462 285 462 316 c 0
 462 338 462 417 356 417 c 0
 299 417 250 391 224 336 c 0
 206 296 188 181 188 137 c 0
EndSplineSet
Substitution2: "LC small to smallcaps subtable" O.sc
EndChar

StartChar: p
Encoding: 112 112 119
Width: 638
Flags: HW
TeX: 444 194
ItalicCorrection: 30
HStem: -194 47<4 81 257 257> -6 36<321 396.5 317 442.5> 410 40<414 459.5>
VStem: 515 126<224.5 306>
AnchorPoint: "affricate-below" 606 -194 basechar 0
AnchorPoint: "affricate-above" 754 694 basechar 0
AnchorPoint: "below" 320 -194 basechar 0
AnchorPoint: "above" 428 453 basechar 0
LayerCount: 2
Fore
SplineSet
4 -194 m 1
 12 -147 l 1
 81 -147 l 1
 166 362 l 2
 168 372 168 374 168 375 c 0
 168 391 156 392 143 394 c 0
 132 395 119 395 102 395 c 1
 110 442 l 1
 289 450 l 1
 282 403 l 1
 337 438 391 450 437 450 c 0
 562 450 641 379 641 264 c 0
 641 128 536 -6 349 -6 c 0
 293 -6 253 14 227 40 c 1
 196 -147 l 1
 265 -147 l 1
 257 -194 l 1
 223 -192 161 -191 131 -191 c 0
 89 -191 46 -192 4 -194 c 1
237 96 m 1
 257 55 294 30 340 30 c 0
 453 30 515 166 515 283 c 0
 515 329 500 410 419 410 c 0
 393 410 338 401 290 358 c 0
 278 346 277 345 275 330 c 2
 237 96 l 1
EndSplineSet
Substitution2: "LC small to smallcaps subtable" P.sc
EndChar

StartChar: q
Encoding: 113 113 120
Width: 606
Flags: HW
TeX: 444 194
ItalicCorrection: 35
HStem: -194 47<316 393 569 569> -6 36<259.5 302> 410 40<317 389.5 272.5 415.5>
VStem: 72 125<122.5 222.5 122.5 254.5>
AnchorPoint: "affricate-below" 574 -194 basechar 0
AnchorPoint: "affricate-above" 722 694 basechar 0
AnchorPoint: "below" 252 -194 basechar 0
AnchorPoint: "above" 360 453 basechar 0
LayerCount: 2
Fore
SplineSet
72 182 m 0
 72 327 185 450 360 450 c 0
 419 450 467 426 499 370 c 1
 527 401 527 403 548 428 c 0
 551 433 565 449 566 450 c 1
 607 450 l 1
 508 -147 l 1
 577 -147 l 1
 569 -194 l 1
 535 -192 473 -191 443 -191 c 0
 401 -191 358 -192 316 -194 c 1
 324 -147 l 1
 393 -147 l 1
 425 46 l 1
 375 7 325 -6 279 -6 c 0
 191 -6 72 34 72 182 c 0
197 159 m 0
 197 86 228 30 291 30 c 0
 385 30 444 123 445 128 c 0
 446 132 446 134 449 155 c 0
 455 190 467 257 467 263 c 1
 470 275 473 299 473 301 c 0
 473 310 461 410 370 410 c 0
 264 410 197 286 197 159 c 0
EndSplineSet
Substitution2: "LC small to smallcaps subtable" Q.sc
EndChar

StartChar: r
Encoding: 114 114 121
Width: 473
Flags: HW
TeX: 444 0
ItalicCorrection: 74
HStem: 0 47<37 114 300 300> 307 143<424.5 431.5>
VStem: 381 123<355.5 374.5>
AnchorPoint: "affricate-below" 441 -194 basechar 0
AnchorPoint: "affricate-above" 589 694 basechar 0
AnchorPoint: "below" 168 0 basechar 0
AnchorPoint: "above" 284 453 basechar 0
LayerCount: 2
Fore
SplineSet
37 0 m 1
 44 47 l 1
 114 47 l 1
 166 362 l 2
 168 372 168 373 168 375 c 0
 168 395 147 395 102 395 c 1
 110 442 l 1
 278 450 l 1
 261 344 l 1
 293 404 343 450 408 450 c 0
 455 450 504 427 504 377 c 0
 504 334 469 307 435 307 c 0
 414 307 381 319 381 359 c 0
 381 390 398 407 406 414 c 1
 292 410 255 249 252 228 c 2
 222 47 l 1
 309 47 l 1
 300 0 l 1
 261 3 203 3 163 3 c 0
 125 3 67 1 37 0 c 1
EndSplineSet
Substitution2: "LC small to smallcaps subtable" R.sc
EndChar

StartChar: s
Encoding: 115 115 122
Width: 453
Flags: HW
TeX: 444 0
ItalicCorrection: 38
HStem: -6 36<217.5 298 207 333> 421 32<231.5 302.5 192.5 304>
VStem: 90 78<260 353> 363 77<114 177.5>
AnchorPoint: "affricate-below" 421 -194 basechar 0
AnchorPoint: "affricate-above" 569 694 basechar 0
AnchorPoint: "below" 232 0 basechar 0
AnchorPoint: "above" 295 453 basechar 0
LayerCount: 2
Fore
SplineSet
40 8 m 2
 41 22 l 1
 61 138 l 2
 64 157 65 160 86 160 c 0
 106 160 108 157 110 140 c 0
 122 44 181 30 233 30 c 0
 363 30 363 111 363 117 c 0
 363 166 308 176 231 190 c 0
 202 195 90 214 90 306 c 0
 90 315 90 453 295 453 c 0
 310 453 357 453 394 434 c 1
 432 453 435 453 441 453 c 0
 446 453 459 453 459 437 c 0
 459 435 458 431 457 424 c 2
 443 339 l 2
 439 318 435 317 418 317 c 0
 408 317 394 317 394 332 c 0
 394 335 396 344 396 350 c 0
 396 421 314 421 294 421 c 0
 169 421 168 357 168 349 c 0
 168 310 221 301 274 291 c 0
 332 281 362 276 397 248 c 0
 423 226 440 196 440 159 c 0
 440 142 435 -6 231 -6 c 0
 204 -6 159 -4 119 26 c 1
 113 22 96 13 90 9 c 0
 66 -6 64 -6 57 -6 c 0
 48 -6 40 -2 40 8 c 2
EndSplineSet
Substitution2: "LC small to smallcaps subtable" S.sc
EndChar

StartChar: t
Encoding: 116 116 123
Width: 447
Flags: HW
TeX: 633 0
ItalicCorrection: 16
HStem: -6 40<256.5 291.5 256.5 295.5> 397 47<291 429 283 437> 615 20<276 323 323 323>
VStem: 121 113<79 91.5 79 102.5>
AnchorPoint: "affricate-below" 415 -194 basechar 0
AnchorPoint: "affricate-above" 563 694 basechar 0
AnchorPoint: "below" 239 0 basechar 0
AnchorPoint: "above" 265 635 basechar 0
LayerCount: 2
Fore
SplineSet
87 397 m 1
 87 398 93 430 93 433 c 1
 198 436 260 543 276 635 c 1
 323 635 l 1
 291 444 l 1
 437 444 l 1
 429 397 l 1
 283 397 l 1
 237 116 l 2
 234 99 234 97 234 86 c 0
 234 72 234 34 279 34 c 0
 304 34 327 51 343 84 c 0
 353 104 359 145 364 177 c 1
 411 177 l 1
 398 93 396 81 370 46 c 0
 362 36 328 -6 263 -6 c 0
 191 -6 121 17 121 98 c 0
 121 107 121 109 124 126 c 2
 169 397 l 1
 87 397 l 1
EndSplineSet
Substitution2: "LC small to smallcaps subtable" T.sc
EndChar

StartChar: u
Encoding: 117 117 124
Width: 638
Flags: HW
TeX: 444 0
ItalicCorrection: 3
HStem: -6 36<276.5 307> 395 55
VStem: 132 110<60.5 72.5 60.5 102.5>
AnchorPoint: "ogonek" 492 0 basechar 0
AnchorPoint: "affricate-below" 606 -194 basechar 0
AnchorPoint: "affricate-above" 754 694 basechar 0
AnchorPoint: "below" 330 0 basechar 0
AnchorPoint: "above" 405 453 basechar 0
LayerCount: 2
Fore
SplineSet
110 395 m 1
 118 442 l 1
 303 450 l 1
 244 95 l 2
 243 89 242 76 242 69 c 0
 242 52 242 30 311 30 c 0
 397 30 449 102 459 162 c 2
 492 362 l 2
 493 369 494 372 494 375 c 0
 494 395 473 395 428 395 c 1
 436 442 l 1
 621 450 l 1
 560 81 l 2
 559 73 558 70 558 68 c 0
 558 47 576 47 623 47 c 1
 615 0 l 1
 437 -6 l 1
 449 67 l 1
 448 67 l 1
 393 -6 319 -6 295 -6 c 0
 212 -6 132 9 132 98 c 0
 132 107 132 109 135 126 c 2
 174 362 l 2
 175 369 176 372 176 375 c 0
 176 395 155 395 110 395 c 1
EndSplineSet
Substitution2: "LC small to smallcaps subtable" U.sc
EndChar

StartChar: v
Encoding: 118 118 125
Width: 606
Flags: HW
TeX: 444 0
ItalicCorrection: 90
HStem: -4 21<295 315.5> 397 47<101 101 101 156 92 101>
AnchorPoint: "affricate-below" 574 -194 basechar 0
AnchorPoint: "affricate-above" 722 694 basechar 0
AnchorPoint: "below" 304 0 basechar 0
AnchorPoint: "above" 378 453 basechar 0
LayerCount: 2
Fore
SplineSet
92 397 m 1
 101 444 l 1
 138 443 179 441 213 441 c 0
 253 441 299 441 338 444 c 1
 330 397 l 1
 276 397 l 1
 358 124 l 1
 516 375 l 2
 522 383 522 385 522 386 c 0
 522 396 483 397 476 397 c 1
 485 444 l 1
 502 443 547 441 574 441 c 0
 599 441 629 442 654 444 c 1
 645 397 l 1
 582 397 578 390 569 376 c 2
 344 21 l 2
 335 7 328 -4 303 -4 c 0
 287 -4 275 -3 268 22 c 2
 156 397 l 1
 92 397 l 1
EndSplineSet
Substitution2: "LC small to smallcaps subtable" V.sc
EndChar

StartChar: w
Encoding: 119 119 126
Width: 830
Flags: HW
TeX: 444 0
ItalicCorrection: 90
HStem: -4 21<261 278.5 545.5 562.5> 397 47<99 99 99 150 91 99>
AnchorPoint: "affricate-below" 798 -194 basechar 0
AnchorPoint: "affricate-above" 946 694 basechar 0
AnchorPoint: "below" 416 0 basechar 0
AnchorPoint: "above" 490 453 basechar 0
LayerCount: 2
Fore
SplineSet
91 397 m 1
 99 444 l 1
 133 443 177 441 208 441 c 0
 211 441 299 442 331 444 c 1
 323 397 l 1
 267 397 l 1
 329 139 l 1
 440 333 l 2
 441 334 446 344 446 345 c 2
 434 397 l 1
 375 397 l 1
 383 444 l 1
 399 443 441 441 483 441 c 0
 513 441 566 443 597 444 c 1
 589 397 l 1
 533 397 l 1
 601 117 l 1
 749 374 l 1
 755 387 l 1
 736 397 719 397 699 397 c 1
 707 444 l 1
 719 443 766 441 802 441 c 0
 826 441 856 442 879 444 c 1
 871 397 l 1
 812 397 808 389 800 376 c 2
 596 20 l 2
 582 -4 568 -4 557 -4 c 0
 534 -4 529 2 524 24 c 2
 462 282 l 1
 312 20 l 2
 298 -4 284 -4 273 -4 c 0
 249 -4 245 4 240 24 c 2
 150 397 l 1
 91 397 l 1
EndSplineSet
Substitution2: "LC small to smallcaps subtable" W.sc
EndChar

StartChar: x
Encoding: 120 120 127
Width: 606
Flags: HW
TeX: 444 0
ItalicCorrection: 70
HStem: 0 47<22 71.5 585 585> 397 47<102 102 102 164 93 102>
AnchorPoint: "affricate-below" 574 -194 basechar 0
AnchorPoint: "affricate-above" 722 694 basechar 0
AnchorPoint: "below" 304 0 basechar 0
AnchorPoint: "above" 379 453 basechar 0
LayerCount: 2
Fore
SplineSet
22 0 m 1
 30 47 l 1
 113 47 121 54 133 66 c 2
 289 213 l 1
 164 397 l 1
 93 397 l 1
 102 444 l 1
 128 443 178 441 211 441 c 0
 243 441 306 443 332 444 c 1
 324 397 l 1
 285 397 l 1
 363 282 l 1
 472 386 l 1
 464 393 462 393 457 395 c 0
 444 398 440 398 436 398 c 1
 444 444 l 1
 472 443 522 441 547 441 c 0
 559 441 608 442 638 444 c 1
 631 397 l 1
 630 397 l 2
 548 397 540 390 528 378 c 2
 387 246 l 1
 522 47 l 1
 593 47 l 1
 585 0 l 1
 551 1 507 3 476 3 c 0
 441 3 379 1 355 0 c 1
 362 47 l 1
 402 47 l 1
 314 177 l 1
 198 67 l 2
 193 62 192 61 189 56 c 1
 206 46 213 46 225 46 c 1
 217 0 l 1
 189 1 139 3 114 3 c 0
 109 3 57 2 22 0 c 1
EndSplineSet
Substitution2: "LC small to smallcaps subtable" X.sc
EndChar

StartChar: y
Encoding: 121 121 128
Width: 606
Flags: HW
TeX: 444 194
ItalicCorrection: 90
HStem: -200 36<95 120 95 130.5> 397 47<101 101 101 156 92 101>
VStem: 3 117<-112.5 -98>
AnchorPoint: "affricate-below" 574 -194 basechar 0
AnchorPoint: "affricate-above" 722 694 basechar 0
AnchorPoint: "below" 269 -194 basechar 0
AnchorPoint: "above" 378 453 basechar 0
LayerCount: 2
Fore
SplineSet
3 -121 m 0
 3 -75 38 -50 71 -50 c 0
 95 -50 120 -63 120 -97 c 0
 120 -128 99 -151 79 -160 c 1
 86 -163 88 -164 102 -164 c 0
 138 -164 178 -141 205 -107 c 1
 228 -80 276 -2 276 1 c 0
 276 4 274 11 273 14 c 2
 156 397 l 1
 92 397 l 1
 101 444 l 1
 138 443 187 441 213 441 c 0
 219 441 307 442 338 444 c 1
 330 397 l 1
 276 397 l 1
 358 127 l 1
 516 375 l 1
 523 388 l 1
 514 393 505 397 476 397 c 1
 484 444 l 1
 505 443 550 441 574 441 c 0
 599 441 629 442 654 444 c 1
 646 397 l 1
 582 397 578 391 569 376 c 2
 275 -84 l 2
 234 -148 165 -200 96 -200 c 0
 40 -200 3 -165 3 -121 c 0
70 -154 m 0
 70 -154 l 0
74 -157 m 0
 74 -157 l 0
EndSplineSet
Substitution2: "LC small to smallcaps subtable" Y.sc
EndChar

StartChar: z
Encoding: 122 122 129
Width: 511
Flags: HW
TeX: 444 0
ItalicCorrection: 54
HStem: 0 40<173 264 264 330> 182 20<449 496 496 496> 408 36<251 304 304 394>
VStem: 35 495<8 436>
AnchorPoint: "affricate-below" 479 -194 basechar 0
AnchorPoint: "affricate-above" 627 694 basechar 0
AnchorPoint: "below" 247 0 basechar 0
AnchorPoint: "above" 323 453 basechar 0
LayerCount: 2
Fore
SplineSet
35 16 m 0
 35 30 41 36 49 45 c 2
 394 408 l 1
 304 408 l 2
 198 408 162 370 140 269 c 1
 93 269 l 1
 134 444 l 1
 501 444 l 2
 518 444 530 444 530 428 c 0
 530 417 528 414 516 402 c 2
 173 40 l 1
 264 40 l 2
 396 40 423 100 449 202 c 1
 496 202 l 1
 444 0 l 1
 64 0 l 2
 47 0 35 0 35 16 c 0
EndSplineSet
Substitution2: "LC small to smallcaps subtable" Z.sc
EndChar

StartChar: braceleft
Encoding: 123 123 130
Width: 575
Flags: HW
TeX: 749 249
ItalicCorrection: 79
HStem: -250 37<367.867 456.947> 231 39<119.061 208.526> 707 43<502.047 617.496>
VStem: 209 115<-180.784 4.375> 252 114<4.375 194.149>
DStem2: 288 360 401 352 0.180478 0.983579<-41.4098 333.684>
LayerCount: 2
Fore
SplineSet
119 249 m 0
 119 271 140 267 162 270 c 0
 215 278 269 310 288 360 c 0
 298 387 326 609 339 642 c 0
 380 749 555 750 593 750 c 0
 605 750 618 748 618 733 c 0
 618 707 590 717 552 707 c 0
 447 681 445 603 444 597 c 0
 406 370 407 369 401 352 c 0
 381 295 329 267 264 249 c 1
 310 237 366 208 366 143 c 0xe8
 366 103 324 -98 324 -131 c 0
 324 -178 368 -208 431 -213 c 0
 442 -214 457 -216 457 -230 c 0xf0
 457 -244 449 -250 432 -250 c 0
 242 -249 209 -180 209 -133 c 0xf0
 209 -101 252 112 252 143 c 0
 252 182 218 224 149 231 c 0
 138 232 119 231 119 249 c 0
EndSplineSet
EndChar

StartChar: bar
Encoding: 124 124 131
Width: 319
Flags: HW
TeX: 749 249
ItalicCorrection: 27
DStem2: 86.8359 -249 148.669 -249 0.164359 0.986401<31.9645 989.994>
LayerCount: 2
Fore
SplineSet
93 -218 m 0
 93 -210 95 -198 97 -188 c 2
 246 704 l 2
 247 713 249 749 279 749 c 0
 295 749 309 737 309 718 c 0
 309 710 307 702 306 695 c 2
 157 -199 l 2
 154 -217 151 -249 122 -249 c 0
 106 -249 93 -237 93 -218 c 0
EndSplineSet
EndChar

StartChar: braceright
Encoding: 125 125 132
Width: 575
Flags: HW
TeX: 749 249
HStem: -250 43<40.3127 154.591> 230 39<449.331 537.942> 713 37<200.041 288.559>
VStem: 291 115<304.746 494.125> 334 114<494.125 679.241>
DStem2: 205 -133 318 -142 0.185354 0.982672<-36.557 341.031>
LayerCount: 2
Fore
SplineSet
40 -233 m 0
 40 -206 67 -217 106 -207 c 0
 148 -197 189 -171 205 -133 c 0
 218 -102 244 115 257 150 c 0
 285 228 383 248 393 251 c 1
 347 264 291 293 291 357 c 0xf0
 291 385 334 602 334 631 c 0
 334 685 278 709 226 713 c 0
 214 714 200 716 200 730 c 0xe8
 200 742 206 750 225 750 c 0
 413 750 448 681 448 633 c 0xe8
 448 601 406 388 406 357 c 0
 406 316 441 276 508 269 c 0
 519 268 538 269 538 251 c 0
 538 229 518 233 496 230 c 0
 443 222 388 190 370 140 c 0
 360 113 330 -109 318 -142 c 0
 286 -226 172 -250 64 -250 c 0
 52 -250 40 -248 40 -233 c 0
EndSplineSet
EndChar

StartChar: asciitilde
Encoding: 126 126 133
Width: 703
Flags: HW
TeX: 690 0
ItalicCorrection: 51
HStem: 586 74<449.436 646.034> 620 74<268.102 464.564>
LayerCount: 2
Fore
SplineSet
197 611 m 1
 253 662 275 694 352 694 c 0x40
 432 694 513 660 594 660 c 0x80
 655 660 679 682 695 694 c 1x40
 717 670 l 1
 717 669 l 1
 661 617 639 586 562 586 c 0x80
 482 586 401 620 320 620 c 0x40
 270 620 243 605 219 586 c 1x80
 197 611 l 1
EndSplineSet
EndChar

StartChar: Abreve
Encoding: 258 258 135
Width: 869
Flags: HW
TeX: 894 0
HStem: 3 45<48 157.07 210.086 289 495 590 732.065 827> 192 48<314 543> 678 20<534 565.5> 755 63<468.006 658.987>
VStem: 404 37<848.502 894> 724 36<862.047 894>
DStem2: 160 75 209 58 0.500745 0.865595<9.8214 164.368 219.938 541.193> 586 666 475 518 0.237354 -0.971423<117.424 403.62 453.097 601.289>
AnchorPoint: "below" 434 0 basechar 0
AnchorPoint: "above" 579 873 basechar 0
LayerCount: 2
Fore
SplineSet
404 874 m 0
 404 881 404 887 405 894 c 1
 441 894 l 1
 441 888 l 2
 441 838 494 818 571 818 c 0
 700 818 718 872 724 894 c 1
 760 894 l 1
 737 789 629 755 560 755 c 0
 472 755 404 803 404 874 c 0
EndSplineSet
Refer: 72 65 S 1 0 0 1 0 0 3
AlternateSubs2: "Stilistic set 01 subtable" Abreve.vn
AlternateSubs2: "Latin alternatives subtable" Abreve.vn
Substitution2: "Latin Vietnamese substitutions subtable" Abreve.vn
Substitution2: "LC caps to smallcaps subtable" Abreve.sc
EndChar

StartChar: Aogonek
Encoding: 260 260 136
Width: 869
Flags: HW
TeX: 690 194
HStem: -205 68<665.562 740.401> 3 45<48 157.07 210.086 289 495 590 732.065 827> 192 48<314 543> 678 20G<534 565.5>
VStem: 567 86<-125.624 -49.2562>
DStem2: 160 75 209 58 0.500745 0.865595<9.8214 164.368 219.938 541.193> 586 666 475 518 0.237354 -0.971423<117.424 403.62 453.097 601.289>
AnchorPoint: "above" 550 697 basechar 0
LayerCount: 2
Fore
SplineSet
40 -0 m 1
 48 48 l 1
 143 48 147 52 160 75 c 2
 499 661 l 2
 513 685 519 698 549 698 c 2
 552 698 l 2
 579 698 582 681 586 666 c 2
 715 141 l 2
 723 110 730 79 737 48 c 1
 835 48 l 1
 827 -0 l 1
 717 3 l 1
 676 -22 653 -47 653 -81 c 0
 653 -114 681 -137 704 -137 c 0
 730 -137 741 -116 756 -116 c 0
 766 -116 780 -128 780 -140 c 1
 778 -161 727 -205 669 -205 c 0
 615 -205 567 -168 567 -113 c 0
 567 -67 599 -29 639 3 c 1
 487 -0 l 1
 495 48 l 1
 590 48 l 1
 555 192 l 1
 286 192 l 1
 209 58 l 1
 232 49 266 50 297 48 c 1
 289 -0 l 1
 245 2 201 3 156 3 c 0
 110 3 75 2 40 -0 c 1
314 240 m 1
 543 240 l 1
 475 518 l 1
 314 240 l 1
EndSplineSet
Substitution2: "LC caps to smallcaps subtable" Aogonek.sc
Ligature2: "Latin ligatures subtable" A uni0328
EndChar

StartChar: Cacute
Encoding: 262 262 137
Width: 830
Flags: HW
TeX: 876 0
ItalicCorrection: 82
HStem: -11 48<376.13 595.609> 649 48<479.14 688.288> 752 123<620.972 696.689>
VStem: 115 148<167.587 395.057> 753 50<171.76 246.643> 786 55<426.212 545.287>
AnchorPoint: "below" 469 0 basechar 0
AnchorPoint: "above" 605 855 basechar 0
LayerCount: 2
Fore
SplineSet
488 778 m 1
 655 873 653 875 675 875 c 0xf0
 705 875 721 849 721 823 c 0
 721 758 648 756 625 752 c 0
 582 745 540 739 497 733 c 1
 488 778 l 1
EndSplineSet
Refer: 74 67 S 1 0 0 1 0 -0 3
Substitution2: "LC caps to smallcaps subtable" Cacute.sc
EndChar

StartChar: Ccaron
Encoding: 268 268 138
Width: 830
Flags: HW
TeX: 894 0
ItalicCorrection: 82
HStem: -11 48<376.13 595.609> 649 48<479.14 688.288>
VStem: 115 148<167.587 395.057> 753 50<171.76 246.643> 786 55<426.212 545.287>
AnchorPoint: "below" 469 0 basechar 0
AnchorPoint: "above" 610 884 basechar 0
LayerCount: 2
Fore
SplineSet
467 878 m 1
 484 904 l 1
 598 871 623 861 637 861 c 0xe0
 641 861 745 890 799 904 c 1
 806 878 l 1
 618 765 l 1
 467 878 l 1
EndSplineSet
Refer: 74 67 S 1 0 0 1 0 0 3
Substitution2: "LC caps to smallcaps subtable" Ccaron.sc
EndChar

StartChar: Dcaron
Encoding: 270 270 139
Width: 881
Flags: HW
TeX: 894 0
ItalicCorrection: 48
HStem: 0 48<47 155 292 557.379> 638 48<153 253 390 645.153>
VStem: 739 141<288.209 524.532>
DStem2: 147.002 0 284.002 0 0.164359 0.986401<71.179 646.745>
AnchorPoint: "below" 403 0 basechar 0
AnchorPoint: "above" 552 895 basechar 0
LayerCount: 2
Fore
SplineSet
359 878 m 1
 376 904 l 1
 490 871 515 861 529 861 c 0
 533 861 637 890 691 904 c 1
 699 878 l 1
 510 765 l 1
 359 878 l 1
EndSplineSet
Refer: 75 68 S 1 0 0 1 -0 0 3
Substitution2: "LC caps to smallcaps subtable" Dcaron.sc
EndChar

StartChar: Ecaron
Encoding: 282 282 140
Width: 755
Flags: HW
TeX: 894 0
ItalicCorrection: 51
HStem: 0 48<47 155 298 577.396> 329 48<353 473.781> 633 47<152 252 395 657.909>
VStem: 717 47<438 576.665>
DStem2: 147.002 0 290.002 0 0.164359 0.986401<72.1651 356.904 405.731 641.649>
AnchorPoint: "below" 381 0 basechar 0
AnchorPoint: "above" 531 901 basechar 0
LayerCount: 2
Fore
SplineSet
324 878 m 1
 340 904 l 1
 454 871 479 861 493 861 c 0
 497 861 601 890 655 904 c 1
 663 878 l 1
 474 765 l 1
 324 878 l 1
EndSplineSet
Refer: 76 69 S 1 0 0 1 -0 0 3
Substitution2: "LC caps to smallcaps subtable" Ecaron.sc
EndChar

StartChar: Eogonek
Encoding: 280 280 141
Width: 755
Flags: HW
TeX: 690 194
ItalicCorrection: 51
HStem: -205 68<545.326 620.557> -0 48<47 155 298 512.861> 329 48<353 473.781> 633 47<152 252 395 657.362>
VStem: 448 84<-125.016 -48.5507> 717 47<438 576.665>
DStem2: 112.844 -205 255.844 -205 0.164359 0.986401<279.991 564.731 613.557 849.475>
AnchorPoint: "above" 465 697 basechar 0
LayerCount: 2
Fore
SplineSet
39 -0 m 1
 47 48 l 1
 155 48 l 1
 252 633 l 1
 144 633 l 1
 152 680 l 1
 774 680 l 1
 764 438 l 1
 717 438 l 1
 717 476 l 2
 717 621 637 633 531 633 c 2
 395 633 l 1
 395 632 l 1
 353 377 l 1
 397 377 l 2
 484 377 516 395 533 494 c 1
 580 494 l 1
 534 212 l 1
 486 212 l 1
 488 228 491 244 491 260 c 0
 491 328 434 329 394 329 c 2
 344 329 l 1
 298 48 l 1
 421 48 l 2
 516 48 594 53 653 127 c 0
 692 177 710 245 721 275 c 1
 769 275 l 1
 677 -0 l 1
 610 -0 l 2
 571 0 532 -47 532 -81 c 0
 532 -112 559 -137 585 -137 c 0
 610 -137 621 -116 636 -116 c 0
 646 -116 660 -127 660 -139 c 0
 660 -157 611 -205 549 -205 c 0
 492 -205 448 -165 448 -113 c 0
 448 -64 483 -27 515 -0 c 1
 39 -0 l 1
EndSplineSet
Substitution2: "LC caps to smallcaps subtable" Eogonek.sc
EndChar

StartChar: Gbreve
Encoding: 286 286 142
Width: 904
Flags: HW
TeX: 894 0
ItalicCorrection: 8
HStem: -11 48<384.055 592.868> 228 45<526 661 800.817 884> 649 48<487.781 741.77> 755 63<504.006 694.987>
VStem: 116 149<170.535 396.374> 440 37<848.502 894> 661 143<109.765 228> 760 36<862.047 894>
LayerCount: 2
Fore
SplineSet
116 284 m 0
 116 477 266 697 587 697 c 0
 725 697 766 666 781 666 c 0
 795 666 844 696 862 696 c 0
 875 696 878 688 878 678 c 0
 878 674 861 554 855 545 c 0
 850 538 841 536 832 536 c 0
 823 536 814 539 811 541 c 0
 795 555 820 649 609 649 c 2
 607 649 l 1
 489 647 386 600 331 511 c 0
 276 423 265 286 265 246 c 0
 265 79 391 37 499 37 c 0
 567 37 622 64 639 107 c 0
 643 118 645 131 661 228 c 1
 518 228 l 1
 526 275 l 1
 595 273 664 273 733 273 c 0
 781 273 829 273 892 275 c 1
 884 228 l 1
 804 228 l 1xfe
 769 2 768 2 753 2 c 0
 745 2 698 22 665 53 c 1
 648 37 597 -11 469 -11 c 0
 263 -11 116 91 116 284 c 0
440 874 m 0
 440 881 440 887 441 894 c 1
 477 894 l 1
 477 888 l 2
 477 838 530 818 607 818 c 0
 736 818 754 872 760 894 c 1
 796 894 l 1
 773 789 665 755 596 755 c 0xfd
 508 755 440 803 440 874 c 0
EndSplineSet
Substitution2: "LC caps to smallcaps subtable" Gbreve.sc
EndChar

StartChar: Lacute
Encoding: 313 313 143
Width: 691
Flags: HW
TeX: 876 0
HStem: 0 48<47 155 298 499.789> 638 45<153 253 396 531>
DStem2: 147.002 0 290.002 0 0.164359 0.986401<72.1651 646.745>
LayerCount: 2
Fore
SplineSet
221 778 m 1
 387 873 386 875 408 875 c 0
 438 875 454 849 454 823 c 0
 454 802 444 782 427 770 c 0
 418 764 429 760 230 733 c 1
 221 778 l 1
EndSplineSet
Refer: 83 76 S 1 0 0 1 0 -0 3
Substitution2: "LC caps to smallcaps subtable" Lacute.sc
EndChar

StartChar: Lcaron
Encoding: 317 317 144
Width: 691
Flags: HW
TeX: 894 0
HStem: 0 48<47 155 298 499.789> 638 45<153 253 396 528> 668 156<540.621 629.114>
VStem: 509 170<685.749 791.555>
DStem2: 147.002 0 290.002 0 0.164359 0.986401<72.1651 646.745>
LayerCount: 2
Fore
SplineSet
39 0 m 1
 47 48 l 1
 155 48 l 1
 253 638 l 1
 145 638 l 1
 153 686 l 1
 217 684 282 683 346 683 c 0xd0
 419 683 510 685 528 685 c 1
 515 701 509 715 509 735 c 0
 509 780 547 824 598 824 c 0
 647 824 679 785 679 738 c 0xb0
 679 634 561 540 528 540 c 0
 519 540 510 549 510 558 c 0
 510 582 587 584 630 685 c 1
 611 674 598 668 577 668 c 0xb0
 561 668 552 671 538 678 c 1
 531 638 l 1
 396 638 l 1
 298 48 l 1
 385 48 l 2
 561 48 606 156 641 275 c 1
 689 275 l 1
 613 0 l 1
 39 0 l 1
EndSplineSet
Substitution2: "LC caps to smallcaps subtable" Lcaron.sc
EndChar

StartChar: Lslash
Encoding: 321 321 145
Width: 691
Flags: HW
TeX: 690 0
HStem: 0 48<47 155 298 499.789> 638 45<153 253 396 531>
DStem2: 94 263 115 224 0.837132 0.547<0 89.4401 321.461 537.38> 147.002 0 290.002 0 0.164359 0.986401<72.1651 278.82 338.662 408.69 468.531 646.745>
LayerCount: 2
Fore
SplineSet
39 0 m 1
 47 48 l 1
 155 48 l 1
 193 275 l 1
 115 224 l 1
 94 263 l 1
 203 334 l 1
 253 638 l 1
 145 638 l 1
 153 686 l 1
 229 684 270 683 330 683 c 0
 400 683 469 684 539 686 c 1
 531 638 l 1
 396 638 l 1
 363 439 l 1
 546 559 l 1
 568 520 l 1
 353 380 l 1
 298 48 l 1
 385 48 l 2
 561 48 606 156 641 275 c 1
 689 275 l 1
 613 0 l 1
 39 0 l 1
EndSplineSet
Substitution2: "LC caps to smallcaps subtable" Lslash.sc
EndChar

StartChar: Nacute
Encoding: 323 323 146
Width: 900
Flags: HW
TeX: 876 0
ItalicCorrection: 107
HStem: -0 48<47 157.876 212.006 309> 638 48<153 253 705 803.152 855.266 967> 752 123<608.158 684.689>
DStem2: 146.503 -0 201.004 -0 0.164359 0.986401<76.1481 617.233> 733 204 691 28 0.563337 -0.826227<-570.504 0> 699.008 -0 752.335 -0 0.164359 0.986401<206.813 639.383>
LayerCount: 2
Fore
SplineSet
475 778 m 1
 642 873 641 875 663 875 c 0
 693 875 709 849 709 823 c 0
 709 758 636 756 613 752 c 0
 570 745 527 739 484 733 c 1
 475 778 l 1
EndSplineSet
Refer: 85 78 S 1 0 0 1 0 -0 3
Substitution2: "LC caps to smallcaps subtable" Nacute.sc
EndChar

StartChar: Ncaron
Encoding: 327 327 147
Width: 900
Flags: HW
TeX: 894 0
ItalicCorrection: 107
HStem: 0 48<47 157.876 212.006 309> 638 48<153 253 705 803.152 855.266 967>
DStem2: 146.503 0 201.004 0 0.164359 0.986401<76.1481 617.233> 733 204 691 28 0.563337 -0.826227<-570.504 0> 699.008 0 752.335 0 0.164359 0.986401<206.813 639.383>
LayerCount: 2
Fore
SplineSet
427 878 m 1
 443 904 l 1
 557 871 582 861 596 861 c 0
 600 861 704 890 758 904 c 1
 766 878 l 1
 577 765 l 1
 427 878 l 1
EndSplineSet
Refer: 85 78 S 1 0 0 1 -0 0 3
Substitution2: "LC caps to smallcaps subtable" Ncaron.sc
EndChar

StartChar: Eng
Encoding: 330 330 148
Width: 914
Flags: HW
TeX: 690 0
ItalicCorrection: 114
HStem: -11 37<540.037 671.776> -0 48<47 155 298 378> 638 45<153 253> 653 53<498.007 684.208>
VStem: 442 156<68.4071 159.041> 786 142<346.734 563.193>
DStem2: 145.169 -11 288.169 -11 0.164359 0.986401<83.3168 640.834>
LayerCount: 2
Fore
SplineSet
39 -0 m 1
 47 48 l 1
 155 48 l 1
 253 638 l 1
 145 638 l 1
 153 686 l 1
 185 685 266 683 315 683 c 0x6c
 345 683 374 684 404 686 c 1
 396 639 l 1
 433 661 517 706 638 706 c 0
 804 706 928 620 928 490 c 0
 928 467 926 458 879 176 c 0
 873 141 872 117 850 85 c 0
 803 16 712 -11 619 -11 c 0
 489 -11 442 47 442 100 c 0
 442 149 479 191 530 191 c 0
 569 191 598 164 598 125 c 0
 598 99 586 61 538 42 c 1
 565 30 591 26 613 26 c 0
 725 26 734 163 738 185 c 2
 779 435 l 2
 782 453 786 468 786 488 c 0
 786 587 695 653 586 653 c 0x9c
 485 653 405 596 389 575 c 0
 384 568 383 560 382 552 c 2
 320 179 l 2
 313 135 306 92 298 48 c 1
 386 48 l 1
 378 -0 l 1
 292 3 245 3 224 3 c 2
 217 3 l 2
 158 3 98 2 39 -0 c 1
EndSplineSet
Substitution2: "LC caps to smallcaps subtable" Eng.sc
EndChar

StartChar: Ohungarumlaut
Encoding: 336 336 149
Width: 863
Flags: HW
TeX: 876 0
ItalicCorrection: 48
HStem: -11 43<352.242 527.306> 656 41<452.56 624.78> 733 45<416.6 445.537> 753 122<732.146 812.014>
VStem: 114 150<155.496 403.299> 716 146<300.109 525.386>
AnchorPoint: "below" 432 0 basechar 0
AnchorPoint: "above" 573 855 basechar 0
LayerCount: 2
Fore
SplineSet
409 778 m 1xec
 578 874 574 875 596 875 c 0xdc
 626 875 643 849 643 823 c 0
 643 815 641 807 639 800 c 1
 757 868 766 875 787 875 c 0
 815 875 834 852 834 823 c 0
 834 758 763 757 740 753 c 0xdc
 697 746 653 739 609 733 c 1
 603 764 l 1
 590 760 l 1
 418 733 l 1
 409 778 l 1xec
EndSplineSet
Refer: 86 79 S 1 0 0 1 0 -0 3
Substitution2: "LC caps to smallcaps subtable" Ohungarumlaut.sc
EndChar

StartChar: Racute
Encoding: 340 340 150
Width: 862
Flags: HW
TeX: 876 0
HStem: -11 37<713.354 792.533> 0 48<47 155 292 392> 325 36<344 522.721> 638 48<153 253 390 611.985> 752 123<598.797 675.689>
VStem: 541 155<41.5994 224.365> 559 141<109.635 288.182> 653 150<448.131 590.678> 824 50<52.916 116.643>
DStem2: 145.169 -11 282.169 -11 0.164359 0.986401<82.3306 363.288 399.621 657.897>
AnchorPoint: "below" 355 0 basechar 0
AnchorPoint: "above" 499 866 basechar 0
LayerCount: 2
Fore
SplineSet
466 778 m 1
 633 873 631 875 653 875 c 0x3980
 683 875 700 849 700 823 c 0x3a80
 700 758 627 756 604 752 c 0
 561 745 518 739 475 733 c 1
 466 778 l 1
EndSplineSet
Refer: 89 82 S 1 0 0 1 0 -0 3
Substitution2: "LC caps to smallcaps subtable" Racute.sc
EndChar

StartChar: Rcaron
Encoding: 344 344 151
Width: 862
Flags: HW
TeX: 894 0
HStem: -11 37<713.354 792.533> 0 48<47 155 292 392> 325 36<344 522.721> 638 48<153 253 390 611.985>
VStem: 541 155<41.5994 224.365> 559 141<109.635 288.182> 653 150<448.131 590.678> 824 50<52.916 116.643>
DStem2: 145.169 -11 282.169 -11 0.164359 0.986401<82.3306 363.288 399.621 657.897>
AnchorPoint: "below" 355 0 basechar 0
AnchorPoint: "above" 504 895 basechar 0
LayerCount: 2
Fore
SplineSet
349 878 m 1
 365 904 l 1
 479 871 504 861 518 861 c 0x31
 522 861 626 890 680 904 c 1
 688 878 l 1
 499 765 l 1
 349 878 l 1
EndSplineSet
Refer: 89 82 S 1 0 0 1 -0 0 3
Substitution2: "LC caps to smallcaps subtable" Rcaron.sc
EndChar

StartChar: Sacute
Encoding: 346 346 152
Width: 638
Flags: HW
TeX: 876 0
ItalicCorrection: 50
HStem: -11 48<228.651 435.367> 653 44<314.814 495.902> 752 123<461.972 537.689>
VStem: 65 79<0 193.812> 96 50<179.561 227.719> 144 108<424 557.753> 504 107<137.906 289> 573 50<458.29 577.204>
DStem2: 312 451 258 308 0.970007 -0.243077<-51.2819 222.094>
AnchorPoint: "below" 350 0 basechar 0
AnchorPoint: "above" 427 855 basechar 0
LayerCount: 2
Fore
SplineSet
329 778 m 1
 496 873 494 875 516 875 c 0xe0
 546 875 562 849 562 823 c 0
 562 758 489 756 466 752 c 0
 423 745 381 739 338 733 c 1
 329 778 l 1
EndSplineSet
Refer: 90 83 S 1 0 0 1 0 -0 3
Substitution2: "LC caps to smallcaps subtable" Sacute.sc
EndChar

StartChar: Scaron
Encoding: 352 352 153
Width: 638
Flags: HW
TeX: 894 0
ItalicCorrection: 50
HStem: -11 48<228.651 435.367> 653 44<314.814 495.902>
VStem: 65 79<0 193.812> 96 50<179.561 227.719> 144 108<424 557.753> 504 107<137.906 289> 573 50<458.29 577.204>
DStem2: 312 451 258 308 0.970007 -0.243077<-51.2819 222.094>
AnchorPoint: "below" 350 0 basechar 0
AnchorPoint: "above" 432 884 basechar 0
LayerCount: 2
Fore
SplineSet
296 878 m 1
 312 904 l 1
 426 871 451 861 465 861 c 0xc0
 469 861 573 890 627 904 c 1
 635 878 l 1
 446 765 l 1
 296 878 l 1
EndSplineSet
Refer: 90 83 S 1 0 0 1 0 0 3
Substitution2: "LC caps to smallcaps subtable" Scaron.sc
EndChar

StartChar: Scedilla
Encoding: 350 350 154
Width: 639
Flags: HW
TeX: 690 170
ItalicCorrection: 50
HStem: -200 37<171 338.551> -60 97<294.17 360.354> -10 21G<79 93> 653 44<314.672 496.341>
VStem: 65 79<0 191.789> 144 108<423.5 557.753> 371 115<-139.403 -72.5681> 504 107<140.537 273> 573 50<458.18 576.236>
LayerCount: 2
Fore
SplineSet
65 7 m 0
 65 17 65 8 98 206 c 0
 101 222 107 228 124 228 c 0
 142 228 146 220 146 207 c 0
 146 198 144 188 144 177 c 0
 144 65 264 37 349 37 c 0
 473 37 504 130 504 174 c 0xdf
 504 280 384 271 274 303 c 0
 206 323 144 380 144 467 c 0
 144 562 221 697 402 697 c 0
 499 697 544 660 564 641 c 1
 565 641 l 1
 610 680 625 696 639 696 c 0
 645 696 655 693 655 679 c 0
 655 670 623 482 623 481 c 0
 621 468 617 458 597 458 c 0
 572 458 573 471 573 485 c 0xde80
 573 620 479 653 400 653 c 0
 292 653 252 580 252 531 c 0
 252 431 389 442 486 409 c 0
 569 381 611 310 611 236 c 0
 611 147 551 22 407 -5 c 1
 407 -6 l 1
 403 -30 l 1
 425 -34 486 -44 486 -99 c 0
 486 -191 322 -200 222 -200 c 0
 198 -200 178 -199 165 -199 c 1
 171 -163 l 1
 182 -163 l 2
 269 -163 371 -159 371 -104 c 0
 371 -84 353 -61 284 -60 c 1
 293 -8 l 1
 191 6 172 39 155 39 c 0xdf
 138 39 105 -10 81 -10 c 0xbf
 77 -10 65 -7 65 7 c 0
EndSplineSet
Substitution2: "LC caps to smallcaps subtable" Scedilla.sc
EndChar

StartChar: Tcaron
Encoding: 356 356 155
Width: 800
Flags: HW
TeX: 894 0
ItalicCorrection: 67
HStem: 3 45<183 336 478 623> 627 48<253.672 432 575 746.02>
VStem: 782 48<433 499.923>
DStem2: 328.002 0 470.002 0 0.164359 0.986401<72.0007 635.566>
AnchorPoint: "below" 399 0 basechar 0
AnchorPoint: "above" 550 906 basechar 0
LayerCount: 2
Fore
SplineSet
376 878 m 1
 393 904 l 1
 507 871 532 861 546 861 c 0
 550 861 654 890 708 904 c 1
 715 878 l 1
 527 765 l 1
 376 878 l 1
EndSplineSet
Refer: 91 84 S 1 0 0 1 0 0 3
Substitution2: "LC caps to smallcaps subtable" Tcaron.sc
EndChar

StartChar: Tcommaaccent
Encoding: 354 354 156
Width: 800
Flags: HW
TeX: 690 170
ItalicCorrection: 67
HStem: -199 36<219 386.198> 3 45<183 336 478 623> 627 48<253.672 432 575 746.02>
VStem: 419 115<-139.562 -72.5922> 782 48<433 499.923>
DStem2: 294.842 -199.01 436.842 -199.01 0.164359 0.986401<273.754 837.32>
LayerCount: 2
Fore
SplineSet
113 433 m 1
 174 675 l 1
 848 675 l 1
 830 433 l 1
 782 433 l 1
 783 456 785 478 785 501 c 0
 785 617 723 626 640 627 c 1
 575 627 l 1
 478 48 l 1
 631 48 l 1
 623 0 l 1
 457 3 l 1
 451 -30 l 1
 473 -34 534 -44 534 -99 c 0
 534 -149 489 -171 448 -182 c 0
 380 -200 293 -199 213 -199 c 1
 219 -163 l 1
 231 -163 l 2
 322 -163 419 -159 419 -104 c 0
 419 -82 398 -61 332 -60 c 1
 343 3 l 1
 175 0 l 1
 183 48 l 1
 336 48 l 1
 432 627 l 1
 410 627 388 627 366 627 c 0
 229 627 196 576 161 433 c 1
 113 433 l 1
EndSplineSet
Substitution2: "LC caps to smallcaps subtable" Tcommaaccent.sc
EndChar

StartChar: Uhungarumlaut
Encoding: 368 368 157
Width: 884
Flags: HW
TeX: 876 0
ItalicCorrection: 107
HStem: -11 48<374.981 584.553> 638 48<153 253 392.01 504 689 787.152 845.501 951> 733 45<427.6 456.537> 753 122<742.83 822.552>
VStem: 182 139<109.648 319.75>
DStem2: 145.011 -11 287.512 -11 0.164359 0.986401<211.326 657.923> 681.178 -11 734.677 -11 0.164359 0.986401<148.8 650.659>
AnchorPoint: "below" 465 0 basechar 0
AnchorPoint: "above" 585 866 basechar 0
LayerCount: 2
Fore
SplineSet
420 778 m 1xe8
 589 874 585 875 607 875 c 0xd8
 637 875 653 849 653 823 c 0
 653 815 652 807 650 800 c 1
 768 868 776 875 797 875 c 0
 825 875 845 852 845 823 c 0
 845 758 773 757 750 753 c 0xd8
 707 746 664 739 620 733 c 1
 614 764 l 1
 600 760 l 1
 429 733 l 1
 420 778 l 1xe8
EndSplineSet
Refer: 92 85 S 1 0 0 1 0 -0 3
Substitution2: "LC caps to smallcaps subtable" Uhungarumlaut.sc
EndChar

StartChar: Uring
Encoding: 366 366 158
Width: 884
Flags: HW
TeX: 894 0
ItalicCorrection: 107
HStem: -11 48<374.981 584.553> 638 48<153 253 392.01 504 689 787.152 845.501 951> 719 36<553.581 675.514> 866 36<566.254 688.171>
VStem: 182 139<109.648 319.75> 501 47<760.456 850.997> 695 47<770.994 860.186>
DStem2: 145.011 -11 287.512 -11 0.164359 0.986401<211.326 657.923> 681.178 -11 734.677 -11 0.164359 0.986401<148.8 650.659>
LayerCount: 2
Fore
SplineSet
501 796 m 0
 501 850 549 902 637 902 c 0
 717 902 742 860 742 825 c 0
 742 783 706 719 605 719 c 0
 522 719 501 764 501 796 c 0
548 795 m 0
 548 762 572 755 608 755 c 0
 644 755 695 758 695 826 c 0
 695 859 669 866 633 866 c 0
 590 866 548 860 548 795 c 0
EndSplineSet
Refer: 92 85 S 1 0 0 1 -0 -0 3
Substitution2: "LC caps to smallcaps subtable" Uring.sc
EndChar

StartChar: Ydieresis
Encoding: 376 376 159
Width: 869
Flags: HW
TeX: 894 0
ItalicCorrection: 143
HStem: 0 48<265 374 510 610> 638 48<133 223 389 473 717 778.989 839.359 955> 738 155<635.851 727.727> 738 156<412.281 505.143>
VStem: 380 157<770.039 862.064> 603 157<770.542 860.458>
DStem2: 389 638 223 638 0.459889 -0.887977<0 331.856> 541 343 562 290 0.647999 0.761641<0 369.587>
AnchorPoint: "below" 434 0 basechar 0
AnchorPoint: "above" 581 885 basechar 0
LayerCount: 2
Fore
SplineSet
380 807 m 0
 380 855 424 894 468 894 c 0
 506 894 537 866 537 825 c 0
 537 774 490 738 449 738 c 0xdc
 408 738 380 769 380 807 c 0
EndSplineSet
Refer: 18 729 S 1 0 0 1 404 199 2
Refer: 96 89 S 1 0 0 1 0 -0 3
Substitution2: "LC caps to smallcaps subtable" Ydieresis.sc
EndChar

StartChar: Zacute
Encoding: 377 377 160
Width: 702
Flags: HW
TeX: 876 0
ItalicCorrection: 82
HStem: 0 52<240 505.943> 444 21<154 222.5> 638 48<328.473 578> 752 123<525.158 601.689>
VStem: 154 47<444 476.577>
DStem2: 86 59 240 52 0.647534 0.762037<94.3859 759.806>
AnchorPoint: "below" 354 0 basechar 0
AnchorPoint: "above" 498 866 basechar 0
LayerCount: 2
Fore
SplineSet
392 778 m 1
 559 873 558 875 580 875 c 0
 610 875 626 849 626 823 c 0
 626 758 553 756 530 752 c 0
 487 745 444 739 401 733 c 1
 392 778 l 1
EndSplineSet
Refer: 97 90 S 1 0 0 1 0 -0 3
Substitution2: "LC caps to smallcaps subtable" Zacute.sc
EndChar

StartChar: Zcaron
Encoding: 381 381 161
Width: 702
Flags: HW
TeX: 894 0
ItalicCorrection: 82
HStem: 0 52<240 505.943> 444 21<154 222.5> 638 48<328.473 578>
VStem: 154 47<444 476.577>
DStem2: 86 59 240 52 0.647534 0.762037<94.3859 759.806>
AnchorPoint: "below" 354 0 basechar 0
AnchorPoint: "above" 503 895 basechar 0
LayerCount: 2
Fore
SplineSet
310 878 m 1
 326 904 l 1
 440 871 465 861 479 861 c 0
 483 861 587 890 641 904 c 1
 649 878 l 1
 460 765 l 1
 310 878 l 1
EndSplineSet
Refer: 97 90 S 1 0 0 1 -0 0 3
Substitution2: "LC caps to smallcaps subtable" Zcaron.sc
EndChar

StartChar: Zdotaccent
Encoding: 379 379 162
Width: 702
Flags: HW
TeX: 876 0
ItalicCorrection: 82
HStem: 0 52<240 505.943> 444 21<154 222.5> 638 48<328.473 578> 782 155<479.381 571.458>
VStem: 154 47<444 476.577> 447 157<814.462 904.378>
DStem2: 86 59 240 52 0.647534 0.762037<94.3859 759.806>
AnchorPoint: "below" 354 0 basechar 0
AnchorPoint: "above" 508 928 basechar 0
LayerCount: 2
Fore
SplineSet
447 850 m 0
 447 892 486 937 536 937 c 0
 574 937 604 910 604 869 c 0
 604 819 558 782 516 782 c 0
 476 782 447 812 447 850 c 0
EndSplineSet
Refer: 97 90 S 1 0 0 1 -0 -0 3
Substitution2: "LC caps to smallcaps subtable" Zdotaccent.sc
EndChar

StartChar: IJ
Encoding: 306 306 163
Width: 1011
Flags: HW
TeX: 690 0
ItalicCorrection: 80
HStem: -11 37<552.876 687.928> 3 45<41 154 297 403> 638 45<700 832 965.885 1051> 638 48<148 253 395 509>
VStem: 456 156<70.8262 159.457>
DStem2: 146.002 0 289.002 0 0.164359 0.986401<72.1651 646.91> 724.508 -11 861.841 -11 0.164359 0.986401<103.821 657.841>
LayerCount: 2
Fore
SplineSet
456 100 m 0
 456 158 502 191 543 191 c 0
 582 191 612 165 612 126 c 0xa8
 612 99 600 62 552 42 c 1
 579 29 612 26 627 26 c 0
 743 26 753 161 757 184 c 2
 812 517 l 2
 819 557 826 598 832 638 c 1xa8
 692 638 l 1
 700 686 l 1x18
 767 684 834 683 901 683 c 0x28
 948 683 995 684 1058 686 c 1x18
 1051 638 l 1
 969 638 l 1
 967 622 964 605 961 589 c 2
 893 176 l 2
 886 135 883 107 855 73 c 0
 835 48 773 -11 632 -11 c 0
 553 -11 456 15 456 100 c 0
EndSplineSet
Refer: 80 73 S 1 0 0 1 0 0 2
Substitution2: "LC caps to smallcaps subtable" IJ.sc
Ligature2: "Latin Dutch ligatures subtable" I J
EndChar

StartChar: Idotaccent
Encoding: 304 304 164
Width: 436
Flags: HW
TeX: 876 0
ItalicCorrection: 98
HStem: 3 45<41 154 297 403> 638 48<148 253 395 509> 782 155<315.381 407.848>
VStem: 283 156<813.152 904.378>
DStem2: 146.002 0 289.002 0 0.164359 0.986401<72.1651 646.91>
LayerCount: 2
Fore
SplineSet
283 850 m 0
 283 892 321 937 371 937 c 0
 409 937 439 910 439 869 c 0
 439 819 394 782 352 782 c 0
 312 782 283 812 283 850 c 0
EndSplineSet
Refer: 80 73 S 1 0 0 1 0 -0 3
EndChar

StartChar: dcroat
Encoding: 273 273 165
Width: 639
Flags: HW
TeX: 690 0
ItalicCorrection: 44
HStem: -6 37<229.648 363.596> -0 48<545.015 601> 413 37<296.372 437.261> 520 48<295 510 627 670> 638 48<468 524.925> 674 20G<468 643.825>
VStem: 71 122<89.896 277.577>
DStem2: 415.005 -6 531.338 -6 0.164359 0.986401<96.5665 386.963 416.915 534.46 601.037 629.136>
LayerCount: 2
Fore
SplineSet
71 182 m 0
 71 321 180 450 361 450 c 0
 423 450 461 429 491 404 c 1
 510 520 l 1
 287 520 l 1
 295 568 l 1
 518 568 l 1
 521 589 525 603 525 614 c 0
 525 633 514 638 472 638 c 2
 460 638 l 1
 468 686 l 1xba
 647 694 l 1x36
 627 568 l 1
 678 568 l 1
 670 520 l 1
 619 520 l 1
 617 504 614 489 611 474 c 2
 549 100 l 2
 546 84 545 75 545 70 c 0
 545 49 566 48 605 48 c 2
 609 48 l 1
 601 -0 l 1x76
 417 -5 l 1
 425 42 l 1
 382 13 336 -6 277 -6 c 0
 164 -6 71 57 71 182 c 0
193 134 m 0
 193 52 246 31 290 31 c 0
 360 31 423 85 434 108 c 0
 440 120 475 348 475 348 c 1
 475 372 432 413 370 413 c 0xb2
 324 413 276 392 247 353 c 0
 202 292 193 151 193 134 c 0
EndSplineSet
AlternateSubs2: "Stilistic set 01 subtable" dcroat.vn
AlternateSubs2: "Latin alternatives subtable" dcroat.vn
Substitution2: "Latin Vietnamese substitutions subtable" dcroat.vn
Substitution2: "LC small to smallcaps subtable" Eth.sc
EndChar

StartChar: section
Encoding: 167 167 166
Width: 529
Flags: HW
TeX: 690 194
HStem: -200 37<165.883 298.443> 663 36<314.649 445.491>
VStem: 82 116<-113.676 -35.0378> 120 73<215.423 307.337> 168 73<504.294 594.006> 371 73<-93.6618 -3.89242> 414 115<534.304 612.006> 419 72<192.423 284.94>
LayerCount: 2
Fore
SplineSet
82 -90 m 0
 82 -32 127 -17 148 -17 c 0
 176 -17 198 -37 198 -66 c 0xe4
 198 -88 184 -121 146 -130 c 1
 155 -139 181 -163 233 -163 c 0
 323 -163 371 -73 371 -37 c 0
 371 0 305 18 257 37 c 0
 189 64 120 127 120 225 c 0xd4
 120 320 186 365 218 383 c 1
 190 417 168 455 168 512 c 0
 168 634 281 699 379 699 c 0
 464 699 529 655 529 588 c 0
 529 531 485 517 464 517 c 0
 436 517 414 537 414 566 c 0xca
 414 584 422 617 466 629 c 1
 457 638 431 663 379 663 c 0
 287 663 241 573 241 537 c 0
 241 499 320 477 354 463 c 0
 447 426 491 351 491 274 c 0xc9
 491 180 425 134 393 117 c 1
 421 84 444 44 444 -12 c 0xc4
 444 -132 332 -200 232 -200 c 0
 149 -200 82 -156 82 -90 c 0
193 250 m 0xd1
 193 200 287 194 356 149 c 1
 402 181 419 230 419 250 c 0
 419 300 325 306 256 351 c 1
 255 351 l 1
 208 315 193 270 193 250 c 0xd1
EndSplineSet
EndChar

StartChar: aogonek
Encoding: 261 261 168
Width: 559
Flags: HW
TeX: 444 194
HStem: -205 69<418.328 493.157> -5 36<188.834 311.077> 233 32<293.538 396> 416 37<242.85 380.566>
VStem: 48 118<50.0634 152.814> 130 127<319.847 405.776> 322 85<-125.491 -47.7159> 384 100<50.9193 138.191> 410 113<225.94 390.088>
AnchorPoint: "above" 321 453 basechar 0
LayerCount: 2
Fore
SplineSet
48 95 m 0xf9
 48 124 62 200 204 240 c 0
 280 261 342 262 401 265 c 1
 404 287 410 310 410 333 c 0
 410 374 392 416 319 416 c 0
 304 416 272 416 242 409 c 1
 252 396 257 387 257 370 c 0
 257 329 222 298 186 298 c 0
 155 298 130 320 130 352 c 0
 130 385 151 410 173 424 c 0
 209 447 266 453 321 453 c 0
 489 453 523 376 523 324 c 0xf480
 523 288 484 90 484 71 c 0xf1
 484 32 562 67 562 26 c 0
 562 1 544 0 526 -0 c 2
 480 -0 l 2
 445 0 407 -45 407 -81 c 0
 407 -112 431 -136 457 -136 c 0
 484 -136 495 -115 510 -115 c 0
 520 -115 534 -125 535 -137 c 1
 534 -157 482 -205 422 -205 c 0
 363 -205 322 -165 322 -113 c 0xf2
 322 -73 347 -26 408 14 c 1
 390 29 384 40 384 56 c 0
 384 62 385 68 386 75 c 1
 370 51 322 -5 226 -5 c 0
 151 -5 48 15 48 95 c 0xf9
166 95 m 0xf8
 166 56 200 31 243 31 c 0
 300 31 359 66 376 120 c 0
 379 131 381 142 396 233 c 1
 223 225 166 150 166 95 c 0xf8
EndSplineSet
Substitution2: "LC small to smallcaps subtable" Aogonek.sc
EndChar

StartChar: cacute
Encoding: 263 263 169
Width: 511
Flags: HW
TeX: 648 0
ItalicCorrection: 61
HStem: -5 40<239.898 383.148> 412 41<291.227 424.707>
VStem: 71 125<90.5612 284.27> 399 127<320.361 402.343>
AnchorPoint: "below" 288 0 basechar 0
AnchorPoint: "above" 395 642 basechar 0
LayerCount: 2
Fore
SplineSet
283 535 m 1
 423 647 436 662 464 662 c 0
 495 662 513 634 513 608 c 0
 513 554 473 550 301 494 c 1
 283 535 l 1
EndSplineSet
Refer: 106 99 S 1 0 0 1 -0 0 3
Substitution2: "LC small to smallcaps subtable" Cacute.sc
EndChar

StartChar: ccaron
Encoding: 269 269 170
Width: 511
Flags: HW
TeX: 648 0
ItalicCorrection: 61
HStem: -5 40<239.898 383.148> 412 41<291.227 424.707>
VStem: 71 125<90.5612 284.27> 399 127<320.361 402.343>
AnchorPoint: "below" 288 0 basechar 0
AnchorPoint: "above" 396 644 basechar 0
LayerCount: 2
Fore
SplineSet
223 642 m 1
 244 664 l 1
 245 664 l 1
 376 581 377 578 385 578 c 0
 398 578 503 639 555 664 c 1
 568 643 l 1
 568 641 l 1
 366 470 l 1
 223 642 l 1
EndSplineSet
Refer: 106 99 S 1 0 0 1 0 0 3
Substitution2: "LC small to smallcaps subtable" Ccaron.sc
EndChar

StartChar: dcaron
Encoding: 271 271 171
Width: 810
Flags: HW
TeX: 690 0
ItalicCorrection: 44
HStem: -6 37<229.648 363.596> 0 48<545.033 601> 413 37<296.372 437.261> 599 155<720.936 809.458> 638 48<468 524.961> 674 20<468 645.5>
VStem: 71 122<89.896 277.577> 689 170<616.662 721.502>
DStem2: 415.005 -6 531.504 -6 0.164359 0.986401<97.6448 386.963 416.915 630.095>
LayerCount: 2
Fore
SplineSet
689 665 m 0
 689 710 726 754 778 754 c 0
 827 754 859 716 859 669 c 0x33
 859 565 743 470 708 470 c 0
 697 470 690 481 690 488 c 0
 690 500 707 506 712 509 c 0
 756 533 791 569 811 616 c 1
 797 606 781 599 758 599 c 0
 717 599 689 627 689 665 c 0
EndSplineSet
Refer: 107 100 S 1 0 0 1 0 0 2
Substitution2: "LC small to smallcaps subtable" Dcaron.sc
EndChar

StartChar: ecaron
Encoding: 283 283 172
Width: 527
Flags: HW
TeX: 648 0
ItalicCorrection: 56
HStem: -5 40<233.993 391.361> 218 33<201 441.941> 416 37<284.644 410.323>
VStem: 65 124<97.0851 252.46> 445 93<252.269 376.729>
AnchorPoint: "below" 296 0 basechar 0
AnchorPoint: "above" 383 644 basechar 0
LayerCount: 2
Fore
SplineSet
213 642 m 1
 234 664 l 1
 235 664 l 1
 366 581 367 578 375 578 c 0
 388 578 492 639 544 664 c 1
 557 643 l 1
 557 641 l 1
 356 470 l 1
 213 642 l 1
EndSplineSet
Refer: 108 101 S 1 0 0 1 0 0 3
Substitution2: "LC small to smallcaps subtable" Ecaron.sc
EndChar

StartChar: eogonek
Encoding: 281 281 173
Width: 527
Flags: HW
TeX: 444 194
ItalicCorrection: 56
HStem: -205 68<327.646 402.512> -5 40<235.59 291> 218 33<201 441.941> 416 37<288.463 406.231>
VStem: 65 124<97.8493 252.837> 230 85<-125.713 -48.8996> 445 93<252.213 377.585>
AnchorPoint: "above" 350 453 basechar 0
LayerCount: 2
Fore
SplineSet
65 187 m 0
 65 301 150 452 350 453 c 1
 351 453 l 2
 496 453 538 373 538 288 c 0
 538 221 525 218 504 218 c 2
 196 218 l 1
 194 216 189 160 189 148 c 0
 189 58 253 35 305 35 c 0
 368 35 427 64 461 115 c 0
 469 127 474 135 490 135 c 0
 505 135 511 127 511 117 c 0
 511 113 510 109 508 104 c 0
 477 42 406 16 380 2 c 0
 342 -19 315 -48 315 -81 c 0
 315 -106 336 -137 366 -137 c 0
 391 -137 405 -116 418 -116 c 0
 425 -116 442 -125 442 -139 c 0
 442 -161 388 -205 331 -205 c 0
 277 -205 230 -168 230 -113 c 0
 230 -65 266 -27 291 -5 c 1
 107 0 65 110 65 187 c 0
201 251 m 1
 440 251 l 1
 442 269 445 289 445 307 c 0
 445 404 386 416 351 416 c 0
 231 416 207 283 201 251 c 1
EndSplineSet
Substitution2: "LC small to smallcaps subtable" Eogonek.sc
EndChar

StartChar: lacute
Encoding: 314 314 175
Width: 319
Flags: HW
TeX: 876 0
ItalicCorrection: 44
HStem: -0 48<54 123 232 294> 638 48<161 216.988> 674 20<161 336.656> 752 123<375.797 452.689>
VStem: 46 294
DStem2: 115.002 -0 224.002 -0 0.164359 0.986401<66.5769 623.261>
LayerCount: 2
Fore
SplineSet
243 778 m 1
 410 873 408 875 430 875 c 0x98
 460 875 477 849 477 823 c 0
 477 758 404 756 381 752 c 0
 338 745 295 739 252 733 c 1
 243 778 l 1
EndSplineSet
Refer: 115 108 S 1 0 0 1 0 -0 3
Substitution2: "LC small to smallcaps subtable" Lacute.sc
EndChar

StartChar: lcaron
Encoding: 318 318 176
Width: 502
Flags: HW
TeX: 690 0
ItalicCorrection: 44
HStem: 0 48<54 123 232 294> 599 155<413.21 502.342> 638 48<161 216.988> 674 20<161 336.656>
VStem: 46 294 382 170<616.662 721.502>
DStem2: 115.002 0 224.002 0 0.164359 0.986401<66.5769 623.261>
LayerCount: 2
Fore
SplineSet
382 488 m 0
 382 500 400 506 405 509 c 0
 449 533 483 569 503 616 c 1
 489 606 473 599 450 599 c 0
 409 599 382 627 382 665 c 0
 382 710 419 754 471 754 c 0
 520 754 552 716 552 669 c 0xcc
 552 565 435 470 400 470 c 0
 389 470 382 481 382 488 c 0
EndSplineSet
Refer: 115 108 S 1 0 0 1 0 0 2
Substitution2: "LC small to smallcaps subtable" Lcaron.sc
EndChar

StartChar: lslash
Encoding: 322 322 177
Width: 386
Flags: HW
TeX: 690 0
ItalicCorrection: 44
HStem: -0 48<86 155 264 326> 638 48<193 248.913> 674 20G<193 368.716>
DStem2: 113 286 135 247 0.836461 0.548026<0 67.7364 256.563 343.728> 147.002 -0 256.002 -0 0.164359 0.986401<66.5769 289.999 331.117 390.114 449.955 621.952>
AnchorPoint: "above" 317 694 basechar 0
LayerCount: 2
Fore
SplineSet
78 -0 m 1
 86 48 l 1
 155 48 l 1
 195 286 l 1
 135 247 l 1
 113 286 l 1
 214 352 204 340 209 370 c 0
 247 595 249 604 249 614 c 0
 249 634 236 638 195 638 c 2
 184 638 l 1
 193 686 l 1xc0
 372 694 l 1
 328 426 l 1
 403 476 l 1
 425 437 l 1
 318 367 l 1
 264 48 l 1
 333 48 l 1
 326 -0 l 1
 290 1 255 3 207 3 c 0xa0
 164 3 121 2 78 -0 c 1
EndSplineSet
Substitution2: "LC small to smallcaps subtable" Lslash.sc
EndChar

StartChar: ncaron
Encoding: 328 328 179
Width: 638
Flags: HW
TeX: 648 0
HStem: 0 48<52 121 236 297 371 440 554 616> 394 48<118 173.967> 413 37<376.671 482.103>
VStem: 489 112<213.418 408.72>
DStem2: 113.002 0 228.002 0 0.164359 0.986401<67.5631 365.831 366.934 375.749>
LayerCount: 2
Fore
SplineSet
233 642 m 1
 254 664 l 1
 255 664 l 1
 386 581 387 578 395 578 c 0x90
 408 578 512 639 564 664 c 1
 578 643 l 1
 578 641 l 1
 376 470 l 1
 233 642 l 1
EndSplineSet
Refer: 117 110 S 1 0 0 1 0 0 3
Substitution2: "LC small to smallcaps subtable" Ncaron.sc
EndChar

StartChar: eng
Encoding: 331 331 180
Width: 639
Flags: HW
TeX: 444 194
HStem: -200 154<282.563 340.563> 0 48<52 121 236 297> 394 48<118 173.967> 413 37<377.782 481.844>
VStem: 250 126<-149.598 -65.7404> 489 112<216.827 408.843>
DStem2: 79.677 -200 194.677 -200 0.164359 0.986401<270.32 549.239 569.691 578.506>
AnchorPoint: "affricate-below" 607 -194 basechar 0
AnchorPoint: "affricate-above" 755 694 basechar 0
AnchorPoint: "below" 297 -194 basechar 0
AnchorPoint: "above" 405 453 basechar 0
LayerCount: 2
Fore
SplineSet
44 0 m 1
 52 48 l 1
 121 48 l 1
 172 354 l 2
 173 361 174 366 174 371 c 0
 174 390 163 394 120 394 c 2
 110 394 l 1
 118 442 l 1xec
 292 450 l 1
 275 345 l 1
 292 371 351 450 465 450 c 0
 537 450 601 429 601 344 c 0
 601 329 598 313 596 298 c 2
 552 32 l 2
 517 -178 395 -200 356 -200 c 0
 296 -200 250 -167 250 -118 c 0
 250 -76 282 -46 320 -46 c 0
 351 -46 376 -68 376 -100 c 0
 376 -137 349 -156 341 -162 c 1
 350 -163 359 -164 368 -161 c 0
 415 -143 429 -17 443 69 c 0
 483 310 489 331 489 360 c 0
 489 402 471 413 446 413 c 0
 380 413 308 362 281 293 c 0
 270 265 258 172 236 48 c 1
 305 48 l 1
 297 0 l 1
 261 1 225 3 176 3 c 0xdc
 132 3 88 2 44 0 c 1
EndSplineSet
Substitution2: "LC small to smallcaps subtable" Eng.sc
EndChar

StartChar: racute
Encoding: 341 341 182
Width: 473
Flags: HW
TeX: 648 0
ItalicCorrection: 74
HStem: 3 45<43 112 221 300> 307 143<404.259 475.847> 394 48<109 164.967>
VStem: 379 123<326.625 410.254>
DStem2: 104.002 -0 213.002 -0 0.164359 0.986401<66.5769 340.615 359.865 375.749>
AnchorPoint: "below" 168 0 basechar 0
AnchorPoint: "above" 316 645 basechar 0
LayerCount: 2
Fore
SplineSet
265 535 m 1
 420 659 419 661 445 662 c 1
 476 662 494 634 494 608 c 0x90
 494 554 454 550 282 494 c 1
 265 535 l 1
EndSplineSet
Refer: 121 114 S 1 0 0 1 0 -0 3
Substitution2: "LC small to smallcaps subtable" Racute.sc
EndChar

StartChar: rcaron
Encoding: 345 345 183
Width: 473
Flags: HW
TeX: 648 0
ItalicCorrection: 74
HStem: 3 45<43 112 221 300> 307 143<404.259 475.847> 394 48<109 164.967>
VStem: 379 123<326.625 410.254>
DStem2: 104.002 0 213.002 0 0.164359 0.986401<66.5769 340.615 359.865 375.749>
AnchorPoint: "below" 168 0 basechar 0
AnchorPoint: "above" 316 647 basechar 0
LayerCount: 2
Fore
SplineSet
178 642 m 1
 199 664 l 1
 200 664 l 1
 331 581 332 578 340 578 c 0x90
 353 578 457 639 509 664 c 1
 522 643 l 1
 522 641 l 1
 321 470 l 1
 178 642 l 1
EndSplineSet
Refer: 121 114 S 1 0 0 1 0 0 3
Substitution2: "LC small to smallcaps subtable" Rcaron.sc
EndChar

StartChar: sacute
Encoding: 347 347 184
Width: 454
Flags: HW
TeX: 648 0
ItalicCorrection: 38
HStem: -5 36<161.668 318.793> 420 33<207.105 366.62> 494 168
VStem: 90 78<273.5 379.741> 239 230 362 77<77.8936 194> 394 64<326.487 399.449>
AnchorPoint: "above" 326 642 basechar 0
LayerCount: 2
Fore
SplineSet
40 13 m 0
 40 18 53 94 60 134 c 0
 63 150 65 160 86 160 c 0
 124 160 100 127 131 78 c 0
 161 32 213 31 231 31 c 2
 233 31 l 2
 341 31 362 83 362 117 c 0xf4
 362 183 247 183 192 198 c 0
 151 210 90 241 90 306 c 0
 90 355 117 453 294 453 c 0
 365 453 375 436 392 436 c 0
 409 436 424 452 441 452 c 0
 449 452 458 448 458 435 c 0xf2
 458 434 444 335 439 326 c 0xf4
 435 319 426 317 418 317 c 0
 397 317 394 326 394 336 c 0xf2
 394 340 395 345 395 349 c 0
 395 392 366 420 292 420 c 0
 188 420 168 377 168 349 c 0
 168 294 278 297 334 280 c 0
 378 267 439 229 439 159 c 0xf4
 439 111 417 -5 233 -5 c 0
 193 -5 154 0 119 27 c 1
 80 4 67 -5 57 -5 c 0
 50 -5 40 -2 40 13 c 0
EndSplineSet
Refer: 9 180 S 1 0 0 1 -93 0 2
Substitution2: "LC small to smallcaps subtable" Sacute.sc
EndChar

StartChar: scaron
Encoding: 353 353 185
Width: 454
Flags: HW
TeX: 648 0
ItalicCorrection: 38
HStem: -5 36<161.668 318.793> 420 33<204.691 366.62> 470 194
VStem: 90 78<273 378.026> 362 77<77.8936 194> 394 64<323.077 399.449>
AnchorPoint: "above" 327 644 basechar 0
LayerCount: 2
Fore
SplineSet
40 13 m 0
 40 18 53 94 60 134 c 0
 63 150 65 160 86 160 c 0
 124 160 100 127 131 78 c 0
 161 32 213 31 231 31 c 2
 233 31 l 2
 341 31 362 83 362 117 c 0xf8
 362 183 249 183 196 197 c 0
 151 209 90 240 90 306 c 0
 90 335 105 403 176 433 c 0
 218 451 270 453 294 453 c 0
 365 453 375 436 392 436 c 0
 409 436 424 452 441 452 c 0
 448 452 458 447 458 437 c 0
 458 429 454 409 442 339 c 0
 439 324 436 317 418 317 c 0
 397 317 394 325 394 337 c 0xf4
 394 341 395 345 395 349 c 0
 395 392 366 420 292 420 c 0
 188 420 168 377 168 349 c 0
 168 295 279 296 334 280 c 0
 378 268 439 229 439 159 c 0xf8
 439 111 417 -5 233 -5 c 0
 193 -5 154 0 119 27 c 1
 80 4 67 -5 57 -5 c 0
 50 -5 40 -2 40 13 c 0
EndSplineSet
Refer: 15 711 S 1 0 0 1 -76 0 2
Substitution2: "LC small to smallcaps subtable" Scaron.sc
EndChar

StartChar: scedilla
Encoding: 351 351 186
Width: 454
Flags: HW
TeX: 444 170
ItalicCorrection: 38
HStem: -199 36<46 213.228> -5 21G<50.5 63.5> 420 33<205.314 366.144>
VStem: 90 78<290.5 378.325> 246 115<-139.323 -72.7673> 362 77<79.2401 193.5> 394 64<323.849 399.612>
LayerCount: 2
Fore
SplineSet
40 -199 m 1
 46 -163 l 1
 58 -163 l 2
 151 -163 246 -158 246 -104 c 0
 246 -83 226 -61 159 -60 c 1
 169 -0 l 1
 175 -0 l 1
 148 7 135 15 119 27 c 1
 101 16 72 -5 55 -5 c 0
 46 -5 41 1 41 11 c 0
 41 23 46 51 60 134 c 0
 63 150 65 160 86 160 c 0
 125 160 99 126 131 77 c 0
 161 32 211 31 230 31 c 2
 233 31 l 2
 283 31 341 39 358 97 c 0
 360 104 362 110 362 117 c 0xfc
 362 131 356 145 339 158 c 0
 292 195 182 176 119 238 c 0
 103 254 90 275 90 306 c 0
 90 335 104 402 175 433 c 0
 218 452 270 453 294 453 c 0
 364 453 376 436 393 436 c 0
 409 436 423 452 441 452 c 0
 448 452 458 448 458 434 c 0
 458 426 455 417 444 349 c 0
 441 333 441 317 417 317 c 0
 396 317 394 324 394 343 c 0xfa
 394 389 372 419 298 420 c 1
 283 420 l 1
 184 418 168 373 168 350 c 0
 168 293 280 295 335 279 c 0
 381 265 439 228 439 159 c 0
 439 125 424 77 392 45 c 0
 364 17 329 4 283 -3 c 1
 278 -30 l 1
 300 -34 361 -44 361 -99 c 0xfc
 361 -192 195 -199 99 -199 c 2
 40 -199 l 1
EndSplineSet
Substitution2: "LC small to smallcaps subtable" Scedilla.sc
EndChar

StartChar: tcaron
Encoding: 357 357 187
Width: 447
Flags: HW
TeX: 690 0
ItalicCorrection: 58
HStem: -5 40<239.238 321.118> 397 48<290 429> 397 36<93 156.25> 635 156<434.492 523.16>
VStem: 120 112<40.4125 156.2> 364 48<85.2969 177> 403 170<654.508 758.555>
DStem2: 100.506 -5 215.672 -5 0.164359 0.986401<109.911 407.626>
LayerCount: 2
Fore
SplineSet
87 397 m 1
 93 433 l 1xbc
 169 437 246 497 274 635 c 1
 322 635 l 1
 290 445 l 1
 437 445 l 1
 429 397 l 1xdc
 282 397 l 1
 236 117 l 2
 234 107 232 95 232 84 c 0
 232 45 256 35 277 35 c 0
 321 35 342 80 349 100 c 0
 354 115 355 123 364 177 c 1
 412 177 l 1xbc
 404 128 402 111 397 95 c 0
 384 55 342 -5 260 -5 c 0
 187 -5 120 14 120 95 c 0
 120 110 122 122 124 136 c 2
 168 397 l 1
 87 397 l 1
403 702 m 0
 403 747 440 791 492 791 c 0
 541 791 573 753 573 705 c 0
 573 669 548 576 454 521 c 0
 436 510 429 507 422 507 c 0
 413 507 404 516 404 525 c 0
 404 547 481 552 524 652 c 1
 506 641 493 635 472 635 c 0x9a
 430 635 403 663 403 702 c 0
EndSplineSet
Substitution2: "LC small to smallcaps subtable" Tcaron.sc
EndChar

StartChar: tcommaaccent
Encoding: 355 355 188
Width: 447
Flags: HW
TeX: 633 170
ItalicCorrection: 16
HStem: -199 36<96 262.502> -60 95<237.639 284.983> 397 48<290 429> 397 36<93 155.201>
VStem: 120 112<40.2207 156.2> 274 48<593.438 635> 296 115<-139.323 -73.7069> 364 48<85.0898 177>
DStem2: 68.3473 -199 183.346 -199 0.164359 0.986401<306.559 604.274>
LayerCount: 2
Fore
SplineSet
87 397 m 1
 93 433 l 1xda
 207 438 261 558 274 634 c 1
 274 635 l 1
 322 635 l 1
 290 445 l 1
 437 445 l 1
 429 397 l 1xec
 282 397 l 1
 236 117 l 2
 234 107 232 95 232 84 c 0
 232 45 256 35 277 35 c 0
 321 35 342 80 349 100 c 0
 354 115 355 123 364 177 c 1
 412 177 l 1xdd
 401 114 401 38 303 0 c 1
 332 0 l 1
 327 -30 l 1
 349 -34 411 -44 411 -99 c 0
 411 -192 244 -199 148 -199 c 2
 89 -199 l 1
 96 -163 l 1
 107 -163 l 2xda
 200 -163 296 -158 296 -104 c 0
 296 -83 275 -61 208 -60 c 1
 218 -3 l 1
 186 2 120 16 120 94 c 0
 120 108 122 121 124 135 c 2
 168 397 l 1
 87 397 l 1
EndSplineSet
Substitution2: "LC small to smallcaps subtable" Tcommaaccent.sc
EndChar

StartChar: uring
Encoding: 367 367 190
Width: 638
Flags: HW
TeX: 648 0
ItalicCorrection: 3
HStem: -5 36<249.195 379.518> 0 48<560.033 616> 394 48<118 173.981 436 492.967> 430 20<118 275 436 617.695> 487 35<359.547 480.953> 626 35<370.754 492.422>
VStem: 132 110<38.836 208.998> 305 48<527.608 611.538> 499 47<535.781 620.932>
LayerCount: 2
Fore
SplineSet
305 562 m 0
 305 602 340 661 441 661 c 0
 524 661 546 618 546 587 c 0
 546 547 511 487 410 487 c 0
 326 487 305 532 305 562 c 0
353 562 m 0
 353 530 373 522 414 522 c 0
 455 522 499 527 499 588 c 0
 499 625 465 626 432 626 c 2x0f80
 430 626 l 2
 407 626 353 625 353 562 c 0
EndSplineSet
Refer: 124 117 S 1 0 0 1 -0 0 3
Substitution2: "LC small to smallcaps subtable" Uring.sc
EndChar

StartChar: ydieresis
Encoding: 255 255 191
Width: 606
Flags: HW
TeX: 690 194
ItalicCorrection: 90
HStem: -200 37<80.6602 161.827> 397 48<100 157 276 330 481.979 517.993 568.568 646> 530 156<246.281 338.727 470.381 562.32>
VStem: 3 118<-145.743 -68.9034> 214 157<561.936 654.143> 438 156<561.304 652.731>
DStem2: 276 397 157 397 0.289338 -0.957227<0 281.22> 277 0 295 -55 0.535852 0.844312<-177.657 0 151.476 454.04>
AnchorPoint: "below" 269 -194 basechar 0
AnchorPoint: "above" 415 675 basechar 0
LayerCount: 2
Fore
SplineSet
214 599 m 0
 214 647 258 686 302 686 c 0
 342 686 371 655 371 617 c 0
 371 572 331 530 283 530 c 0
 245 530 214 558 214 599 c 0
438 598 m 0
 438 642 478 686 526 686 c 0
 566 686 594 655 594 617 c 0
 594 572 555 530 507 530 c 0
 467 530 438 560 438 598 c 0
EndSplineSet
Refer: 128 121 S 1 0 0 1 0 0 3
Substitution2: "LC small to smallcaps subtable" Ydieresis.sc
EndChar

StartChar: zacute
Encoding: 378 378 192
Width: 511
Flags: HW
TeX: 648 0
ItalicCorrection: 54
HStem: 0 40<173 365.352> 408 37<211.645 394>
DStem2: 72 70 173 40 0.689762 0.724036<47.9449 466.828>
AnchorPoint: "below" 247 0 basechar 0
AnchorPoint: "above" 356 651 basechar 0
LayerCount: 2
Fore
SplineSet
268 535 m 1
 408 647 420 662 448 662 c 0
 479 662 497 634 497 608 c 0
 497 554 457 550 285 494 c 1
 268 535 l 1
EndSplineSet
Refer: 129 122 S 1 0 0 1 -0 0 3
Substitution2: "LC small to smallcaps subtable" Zacute.sc
EndChar

StartChar: ij
Encoding: 307 307 195
Width: 671
Flags: HW
TeX: 690 194
ItalicCorrection: 65
HStem: -200 37<356.598 430.628> -0 48<74 143 252 306> 394 48<143 195.97 483 545.925> 430 20G<143 315.667 483 666.645> 539 155<232.281 324.619 573.851 665.727>
VStem: 200 157<571.039 661.458> 260 127<-150.578 -66.8848> 541 157<571.542 661.458>
DStem2: 101.677 -200 210.677 -200 0.164359 0.986401<269.334 578.506> 452.674 -200 561.174 -200 0.164359 0.986401<91.3542 577.216>
LayerCount: 2
Fore
SplineSet
66 -0 m 1
 74 48 l 1
 143 48 l 1
 194 354 l 2
 195 361 196 366 196 371 c 0
 196 388 186 394 147 394 c 2
 135 394 l 1
 143 442 l 1xe9
 319 450 l 1xd9
 252 48 l 1
 314 48 l 1
 306 -0 l 1
 274 1 242 3 210 3 c 0
 196 3 181 2 66 -0 c 1
200 607 m 0
 200 655 244 694 288 694 c 0
 328 694 357 664 357 626 c 0xcd
 357 575 310 539 269 539 c 0
 228 539 200 569 200 607 c 0
260 -118 m 0
 260 -81 289 -46 331 -46 c 0
 362 -46 387 -67 387 -100 c 0
 387 -124 376 -144 355 -160 c 1
 365 -162 375 -163 385 -163 c 0
 464 -163 480 -39 482 -24 c 2
 542 338 l 2
 544 352 546 362 546 370 c 0
 546 389 535 394 490 394 c 2
 476 394 l 1
 483 442 l 1xeb
 670 450 l 1
 592 -15 l 2
 589 -31 587 -48 583 -64 c 0
 559 -150 473 -200 386 -200 c 0xdb
 317 -200 260 -171 260 -118 c 0
EndSplineSet
Refer: 18 729 S 1 0 0 1 342 -0 2
Substitution2: "LC small to smallcaps subtable" IJ.sc
Ligature2: "Latin Dutch ligatures subtable" i j
EndChar

StartChar: exclamdown
Encoding: 161 161 196
Width: 350
Flags: HW
TeX: 499 194
ItalicCorrection: 18
HStem: 344 156<199.542 290.727>
VStem: 73 157<-177.01 -66.0312> 167 156<375.936 467.458> 188 54<220.048 274.044>
LayerCount: 2
Fore
SplineSet
73 -143 m 0xc0
 73 -126 81 -108 84 -98 c 2
 188 243 l 2x90
 193 258 194 275 218 275 c 0
 241 275 242 261 242 250 c 2x90
 232 -98 l 2
 232 -112 233 -126 230 -139 c 0
 223 -175 185 -205 143 -205 c 0
 106 -205 73 -180 73 -143 c 0xc0
167 413 m 0
 167 461 211 500 255 500 c 0
 295 500 323 470 323 432 c 0
 323 387 283 344 235 344 c 0xa0
 197 344 167 372 167 413 c 0
EndSplineSet
EndChar

StartChar: questiondown
Encoding: 191 191 197
Width: 543
Flags: HW
TeX: 499 194
HStem: -200 36<179.37 337.442> -29 20G<391.5 427> 344 156<279.281 371.619>
VStem: 50 123<-153.807 -22.8534> 247 157<375.936 467.458> 266 55<154.744 272.717> 340 127<-122.011 -29.9226>
LayerCount: 2
Fore
SplineSet
50 -89 m 0
 50 -72 54 -18 109 21 c 0
 130 36 242 95 266 213 c 0
 275 257 270 274 299 274 c 0
 317 274 321 266 321 256 c 1
 321 256 318 129 219 10 c 0
 194 -20 186 -28 176 -91 c 0
 174 -104 173 -115 173 -125 c 0
 173 -150 184 -164 228 -164 c 0
 316 -164 362 -137 374 -130 c 1
 360 -123 340 -110 340 -80 c 0
 340 -43 371 -9 412 -9 c 0
 442 -9 467 -29 467 -63 c 0xf6
 467 -118 412 -200 223 -200 c 0
 131 -200 50 -177 50 -89 c 0
247 413 m 0
 247 461 291 500 335 500 c 0
 375 500 404 470 404 432 c 0
 404 387 364 344 316 344 c 0xf8
 278 344 247 372 247 413 c 0
EndSplineSet
EndChar

StartChar: sterling
Encoding: 163 163 198
Width: 821
Flags: HW
TeX: 690 0
HStem: -6 37<136.749 227.14> -5 71<441.954 624.642> 67 72<137.611 245.188> 323 48<235.383 316 438 550.541> 458 125<650.607 705.422> 667 37<528.072 656.844>
VStem: 71 65<31.7439 63.2287> 630 129<480.852 559.855> 675 49<101.411 152.89>
DStem2: 259.672 -6 375.18 -6 0.164359 0.986401<141.423 333.784 401.183 622.686>
LayerCount: 2
Fore
SplineSet
71 44 m 0
 71 82 112 139 225 139 c 0
 248 139 266 136 283 134 c 1
 316 323 l 1
 263 323 l 2
 243 323 235 327 235 342 c 0
 235 370 249 371 264 371 c 2
 324 371 l 1
 329 406 348 526 353 543 c 0
 390 670 510 704 591 704 c 0
 694 704 759 633 759 548 c 0
 759 469 706 458 685 458 c 0
 655 458 630 480 630 512 c 0xbf
 630 534 644 581 706 583 c 1
 687 648 632 667 592 667 c 0
 535 667 507 634 498 623 c 0
 479 599 468 578 438 371 c 1
 526 371 l 2
 541 371 551 367 551 352 c 0
 551 323 534 323 521 323 c 2
 430 323 l 1
 399 139 404 150 382 107 c 1
 411 98 494 66 559 66 c 0
 638 66 668 112 675 131 c 0
 681 146 683 153 700 153 c 0
 714 153 724 149 724 135 c 0
 724 94 659 -5 528 -5 c 0x7e80
 457 -5 385 23 324 43 c 1
 278 10 220 -6 163 -6 c 0
 97 -6 71 15 71 44 c 0
136 46 m 0
 136 37 147 31 163 31 c 0xbe
 199 31 226 46 246 63 c 1
 228 66 211 67 193 67 c 0
 151 67 136 57 136 46 c 0
EndSplineSet
EndChar

StartChar: Agrave
Encoding: 192 192 199
Width: 869
Flags: HW
TeX: 876 0
HStem: 3 45<48 157.07 210.086 289 495 590 732.065 827> 192 48<314 543> 678 20<534 565.5>
DStem2: 160 75 209 58 0.500745 0.865595<9.8214 164.368 219.938 541.193> 586 666 475 518 0.237354 -0.971423<117.424 403.62 453.097 601.289>
AnchorPoint: "below" 434 0 basechar 0
AnchorPoint: "above" 576 854 basechar 0
LayerCount: 2
Fore
SplineSet
413 803 m 0
 413 838 445 875 480 875 c 0
 502 875 508 868 635 778 c 1
 611 733 l 1
 439 758 413 760 413 803 c 0
EndSplineSet
Refer: 72 65 S 1 0 0 1 -0 -0 3
AlternateSubs2: "Stilistic set 01 subtable" Agrave.vn
AlternateSubs2: "Latin alternatives subtable" Agrave.vn
Substitution2: "Latin Vietnamese substitutions subtable" Agrave.vn
Substitution2: "LC caps to smallcaps subtable" Agrave.sc
EndChar

StartChar: Aacute
Encoding: 193 193 200
Width: 869
Flags: HW
TeX: 876 0
HStem: 3 45<48 157.07 210.086 289 495 590 732.065 827> 192 48<314 543> 678 20<534 565.5>
DStem2: 160 75 209 58 0.500745 0.865595<9.8214 164.368 219.938 541.193> 586 666 475 518 0.237354 -0.971423<117.424 403.62 453.097 601.289>
AnchorPoint: "below" 434 0 basechar 0
AnchorPoint: "above" 576 854 basechar 0
LayerCount: 2
Fore
SplineSet
459 778 m 1
 625 873 624 875 646 875 c 0
 676 875 693 849 693 823 c 0
 693 802 682 782 665 770 c 0
 656 764 667 760 468 733 c 1
 459 778 l 1
EndSplineSet
Refer: 72 65 S 1 0 0 1 0 0 3
AlternateSubs2: "Stilistic set 01 subtable" Aacute.vn
AlternateSubs2: "Latin alternatives subtable" Aacute.vn
Substitution2: "Latin Vietnamese substitutions subtable" Aacute.vn
Substitution2: "LC caps to smallcaps subtable" Aacute.sc
EndChar

StartChar: Atilde
Encoding: 195 195 202
Width: 869
Flags: HW
TeX: 894 0
HStem: 3 45<48 157.07 210.086 289 495 590 732.065 827> 192 48<314 543> 678 20<534 565.5> 786 74<571.731 728.264> 820 74<418.88 574.843>
DStem2: 160 75 209 58 0.500745 0.865595<9.8214 164.368 219.938 541.193> 586 666 475 518 0.237354 -0.971423<117.424 403.62 453.097 601.289>
AnchorPoint: "below" 434 0 basechar 0
AnchorPoint: "above" 579 873 basechar 0
LayerCount: 2
Fore
SplineSet
345 811 m 1
 345 812 l 1
 403 862 431 894 494 894 c 0xe8
 553 894 627 860 687 860 c 0xf0
 724 860 750 870 780 894 c 1xe8
 801 869 l 1
 801 868 l 1
 743 817 716 786 653 786 c 0xf0
 593 786 520 820 460 820 c 0xe8
 420 820 397 809 367 786 c 1xf0
 345 811 l 1
EndSplineSet
Refer: 72 65 S 1 0 0 1 -0 -0 3
AlternateSubs2: "Stilistic set 01 subtable" Atilde.vn
AlternateSubs2: "Latin alternatives subtable" Atilde.vn
Substitution2: "Latin Vietnamese substitutions subtable" Atilde.vn
Substitution2: "LC caps to smallcaps subtable" Atilde.sc
EndChar

StartChar: Adieresis
Encoding: 196 196 203
Width: 869
Flags: HW
TeX: 894 0
HStem: 3 45<48 157.07 210.086 289 495 590 732.065 827> 192 48<314 543> 678 20<534 565.5> 738 155<634.851 726.727> 738 156<411.281 504.143>
VStem: 379 157<770.039 862.064> 602 157<770.542 860.458>
DStem2: 160 75 209 58 0.500745 0.865595<9.8214 164.368 219.938 541.193> 586 666 475 518 0.237354 -0.971423<117.424 403.62 453.097 601.289>
AnchorPoint: "below" 434 0 basechar 0
AnchorPoint: "above" 579 873 basechar 0
LayerCount: 2
Fore
SplineSet
379 807 m 0
 379 855 423 894 467 894 c 0
 505 894 536 866 536 825 c 0
 536 774 489 738 448 738 c 0xee
 407 738 379 769 379 807 c 0
EndSplineSet
Refer: 18 729 S 1 0 0 1 403 199 2
Refer: 72 65 S 1 0 0 1 0 -0 3
Substitution2: "LC caps to smallcaps subtable" Adieresis.sc
EndChar

StartChar: Aring
Encoding: 197 197 204
Width: 869
Flags: HW
TeX: 852 0
HStem: 3 45<48 157.928 210.086 289 495 590 737 827> 192 48<314 543> 866 36<520.471 627.774>
VStem: 442 46<707.118 836.235> 639 47<727.727 857.67>
DStem2: 164 80 209 58 0.499467 0.866333<3.41671 157.964 213.533 534.788> 586 668 475 518 0.236631 -0.971599<119.474 405.669 455.146 603.338>
LayerCount: 2
Fore
SplineSet
40 0 m 1
 48 48 l 1
 149 48 148 53 164 80 c 2
 503 668 l 1
 472 680 442 704 442 758 c 0
 442 832 495 902 584 902 c 0
 649 902 686 863 686 806 c 0
 686 762 665 694 586 668 c 1
 737 48 l 1
 835 48 l 1
 827 0 l 1
 774 2 722 3 668 3 c 0
 608 3 547 2 487 0 c 1
 495 48 l 1
 590 48 l 1
 555 192 l 1
 286 192 l 1
 209 58 l 1
 232 49 266 50 297 48 c 1
 289 0 l 1
 245 2 200 3 156 3 c 0
 110 3 75 2 40 0 c 1
314 240 m 1
 543 240 l 1
 475 518 l 1
 314 240 l 1
488 750 m 0
 488 708 518 698 549 698 c 0
 620 698 630 742 637 790 c 0
 638 798 639 806 639 814 c 0
 639 856 610 866 579 866 c 0
 508 866 497 822 490 774 c 0
 489 766 488 758 488 750 c 0
EndSplineSet
Substitution2: "LC caps to smallcaps subtable" Aring.sc
EndChar

StartChar: AE
Encoding: 198 198 205
Width: 1041
Flags: HW
TeX: 690 0
ItalicCorrection: 51
HStem: 0 48<48 157.895 215.005 290 408 489 622 865.143> 306 48<383 532 673 802.769> 444 21G<1003 1050.83> 638 48<424 493 550 587 720 949.264>
VStem: 1004 46<444 585.978>
DStem2: 163 78 355 306 0.507692 0.861538<80.5682 293.908 349.477 650> 481.002 0 614.002 0 0.164359 0.986401<70.5215 310.221 380.742 646.745>
AnchorPoint: "below" 524 0 basechar 0
AnchorPoint: "above" 664 697 basechar 0
LayerCount: 2
Fore
SplineSet
40 -0 m 1
 48 48 l 1
 149 48 148 53 163 78 c 2
 493 638 l 1
 416 638 l 1
 424 686 l 1
 1060 686 l 1
 1050 444 l 1
 1003 444 l 1
 1003 459 1004 473 1004 488 c 0
 1004 590 970 638 841 638 c 2
 720 638 l 1
 673 354 l 1
 726 354 l 2
 807 354 846 367 861 470 c 1
 909 470 l 1
 862 189 l 1
 815 189 l 1
 818 204 820 220 820 236 c 0
 820 298 775 305 731 306 c 1
 665 306 l 1
 622 48 l 1
 733 48 l 2
 924 48 953 123 1006 275 c 1
 1054 275 l 1
 962 0 l 1
 400 0 l 1
 408 48 l 1
 489 48 l 1
 532 306 l 1
 355 306 l 1
 259 132 215 80 215 62 c 0
 215 55 222 53 235 51 c 0
 256 48 277 48 298 48 c 1
 290 0 l 1
 246 2 201 3 157 3 c 0
 134 3 98 3 40 -0 c 1
383 354 m 1
 540 354 l 1
 587 638 l 1
 550 638 l 1
 383 354 l 1
EndSplineSet
Substitution2: "LC caps to smallcaps subtable" AE.sc
EndChar

StartChar: Ccedilla
Encoding: 199 199 206
Width: 830
Flags: HW
TeX: 690 170
ItalicCorrection: 82
HStem: -199 36<289 450.864> -8 45<387 410 525 598.674> 649 48<473.118 689.25>
VStem: 115 149<169.471 399.739> 489 115<-138.156 -72.7589> 753 50<170.951 246.645> 786 55<426.213 545.287>
AnchorPoint: "above" 578 697 basechar 0
LayerCount: 2
Fore
SplineSet
115 284 m 0
 115 491 284 697 578 697 c 0
 646 697 711 679 765 629 c 1
 766 629 l 1
 834 683 849 696 861 696 c 0
 872 696 878 690 878 678 c 0
 878 667 841 452 841 451 c 0
 837 430 830 426 814 426 c 2
 812 426 l 2
 796 426 787 428 786 450 c 1xfa
 786 570 708 649 597 649 c 0
 490 649 390 604 334 519 c 0
 276 430 264 292 264 243 c 0
 264 78 387 37 493 37 c 0
 609 37 724 109 753 220 c 0
 757 237 758 247 781 247 c 0
 792 247 803 245 803 230 c 0
 803 188 740 29 525 -7 c 1
 521 -30 l 1
 539 -33 604 -43 604 -98 c 0
 604 -179 497 -199 299 -199 c 2
 283 -199 l 1
 289 -163 l 1
 300 -163 l 2
 390 -163 489 -158 489 -104 c 0xfc
 489 -66 435 -61 402 -60 c 1
 410 -8 l 1
 224 13 115 116 115 284 c 0
EndSplineSet
Substitution2: "LC caps to smallcaps subtable" Ccedilla.sc
EndChar

StartChar: Egrave
Encoding: 200 200 207
Width: 755
Flags: HW
TeX: 876 0
ItalicCorrection: 51
HStem: 0 48<47 155 298 577.396> 329 48<353 473.781> 633 47<152 252 395 657.909>
VStem: 717 47<438 576.665>
DStem2: 147.002 0 290.002 0 0.164359 0.986401<72.1651 356.904 405.731 641.649>
AnchorPoint: "below" 381 0 basechar 0
AnchorPoint: "above" 526 872 basechar 0
LayerCount: 2
Fore
SplineSet
399 803 m 0
 399 838 431 875 466 875 c 0
 488 875 494 868 621 778 c 1
 597 733 l 1
 424 758 399 760 399 803 c 0
EndSplineSet
Refer: 76 69 S 1 0 0 1 0 0 3
AlternateSubs2: "Stilistic set 01 subtable" Egrave.vn
AlternateSubs2: "Latin alternatives subtable" Egrave.vn
Substitution2: "Latin Vietnamese substitutions subtable" Egrave.vn
Substitution2: "LC caps to smallcaps subtable" Egrave.sc
EndChar

StartChar: Eacute
Encoding: 201 201 208
Width: 755
Flags: HW
TeX: 876 0
ItalicCorrection: 51
HStem: -0 48<47 155 298 577.396> 329 48<353 473.781> 633 47<152 252 395 657.909> 752 123<593.972 670.373>
VStem: 717 47<438 576.665>
DStem2: 147.002 -0 290.002 -0 0.164359 0.986401<72.1651 356.904 405.731 641.649>
AnchorPoint: "below" 381 0 basechar 0
AnchorPoint: "above" 526 872 basechar 0
LayerCount: 2
Fore
SplineSet
461 778 m 1
 628 873 626 875 648 875 c 0
 678 875 695 849 695 823 c 0
 695 758 621 756 598 752 c 0
 555 745 513 739 470 733 c 1
 461 778 l 1
EndSplineSet
Refer: 76 69 S 1 0 0 1 0 -0 3
AlternateSubs2: "Stilistic set 01 subtable" Eacute.vn
AlternateSubs2: "Latin alternatives subtable" Eacute.vn
Substitution2: "Latin Vietnamese substitutions subtable" Eacute.vn
Substitution2: "LC caps to smallcaps subtable" Eacute.sc
EndChar

StartChar: Edieresis
Encoding: 203 203 210
Width: 755
Flags: HW
TeX: 894 0
ItalicCorrection: 51
HStem: 0 48<47 155 298 577.396> 329 48<353 473.781> 633 47<152 252 395 657.909> 738 155<365.851 457.727> 738 156<589.269 680.458>
VStem: 333 157<770.542 860.458> 556 157<769.936 861.378> 717 47<438 576.665>
DStem2: 147.002 0 290.002 0 0.164359 0.986401<72.1651 356.904 405.731 641.649>
AnchorPoint: "below" 381 0 basechar 0
AnchorPoint: "above" 529 891 basechar 0
LayerCount: 2
Fore
SplineSet
556 807 m 0
 556 855 601 894 645 894 c 0
 683 894 713 867 713 826 c 0
 713 781 673 738 625 738 c 0xef
 587 738 556 766 556 807 c 0
EndSplineSet
Refer: 18 729 S 1 0 0 1 134 199 2
Refer: 76 69 S 1 0 0 1 0 0 3
Substitution2: "LC caps to smallcaps subtable" Edieresis.sc
EndChar

StartChar: Igrave
Encoding: 204 204 211
Width: 436
Flags: HW
TeX: 876 0
ItalicCorrection: 98
HStem: 3 45<41 154 297 403> 638 48<148 253 395 509>
DStem2: 146.002 0 289.002 0 0.164359 0.986401<72.1651 646.91>
AnchorPoint: "below" 218 0 basechar 0
AnchorPoint: "above" 362 866 basechar 0
LayerCount: 2
Fore
SplineSet
213 803 m 0
 213 838 245 875 280 875 c 0
 302 875 308 868 435 778 c 1
 411 733 l 1
 239 758 213 760 213 803 c 0
EndSplineSet
Refer: 80 73 S 1 0 0 1 0 0 3
AlternateSubs2: "Stilistic set 01 subtable" Igrave.vn
AlternateSubs2: "Latin alternatives subtable" Igrave.vn
Substitution2: "Latin Vietnamese substitutions subtable" Igrave.vn
Substitution2: "LC caps to smallcaps subtable" Igrave.sc
EndChar

StartChar: Iacute
Encoding: 205 205 212
Width: 436
Flags: HW
TeX: 876 0
ItalicCorrection: 98
HStem: 3 45<41 154 297 403> 638 48<148 253 395 509>
DStem2: 146.002 0 289.002 0 0.164359 0.986401<72.1651 646.91>
AnchorPoint: "below" 218 0 basechar 0
AnchorPoint: "above" 362 866 basechar 0
LayerCount: 2
Fore
SplineSet
237 778 m 1
 403 873 402 875 424 875 c 0
 452 875 470 851 470 823 c 0
 470 799 458 782 443 771 c 0
 434 765 444 761 246 733 c 1
 237 778 l 1
EndSplineSet
Refer: 80 73 S 1 0 0 1 0 -0 3
AlternateSubs2: "Stilistic set 01 subtable" Iacute.vn
AlternateSubs2: "Latin alternatives subtable" Iacute.vn
Substitution2: "Latin Vietnamese substitutions subtable" Iacute.vn
Substitution2: "LC caps to smallcaps subtable" Iacute.sc
EndChar

StartChar: Idieresis
Encoding: 207 207 214
Width: 436
Flags: HW
TeX: 894 0
ItalicCorrection: 98
HStem: 3 45<41 154 297 403> 638 48<148 253 395 509> 738 156<196.273 287.727 419.381 511.727>
VStem: 164 156<769.857 862.064> 387 157<769.857 861.476>
DStem2: 146.002 0 289.002 0 0.164359 0.986401<72.1651 646.91>
AnchorPoint: "below" 218 0 basechar 0
AnchorPoint: "above" 365 885 basechar 0
LayerCount: 2
Fore
SplineSet
164 807 m 0
 164 852 204 894 252 894 c 0
 290 894 320 866 320 825 c 0
 320 780 280 738 232 738 c 0
 192 738 164 769 164 807 c 0
387 807 m 0
 387 849 425 894 475 894 c 0
 516 894 544 863 544 825 c 0
 544 780 504 738 456 738 c 0
 416 738 387 769 387 807 c 0
EndSplineSet
Refer: 80 73 S 1 0 0 1 0 -0 3
Substitution2: "LC caps to smallcaps subtable" Idieresis.sc
EndChar

StartChar: Eth
Encoding: 208 208 215
Width: 882
Flags: HW
TeX: 690 0
ItalicCorrection: 48
HStem: -0 48<47 155 292 552.075> 313 47<95.3568 199 344 539.8> 638 48<153 253 390 645.153>
VStem: 739 141<288.581 524.532>
DStem2: 147.002 -0 284.002 -0 0.164359 0.986401<71.179 317.29 387.483 646.745>
LayerCount: 2
Fore
SplineSet
39 -0 m 1
 47 48 l 1
 155 48 l 1
 199 313 l 1
 122 313 l 2
 109 313 95 316 95 333 c 0
 95 355 109 360 122 360 c 2
 207 360 l 1
 253 638 l 1
 145 638 l 1
 153 686 l 1
 560 686 l 2
 619 686 688 682 754 645 c 0
 827 604 880 526 880 408 c 0
 880 270 812 114 658 41 c 0
 581 4 512 0 442 -0 c 2
 39 -0 l 1
292 48 m 1
 422 48 l 2
 678 48 710 215 733 379 c 0
 735 394 739 424 739 453 c 0
 739 601 637 638 522 638 c 2
 390 638 l 1
 344 360 l 1
 502 360 l 2
 505 360 508 361 511 361 c 0
 529 361 540 356 540 339 c 0
 540 316 524 313 510 313 c 2
 336 313 l 1
 292 48 l 1
EndSplineSet
Substitution2: "LC caps to smallcaps subtable" Eth.sc
EndChar

StartChar: Ntilde
Encoding: 209 209 216
Width: 900
Flags: HW
TeX: 894 0
ItalicCorrection: 107
HStem: -0 48<47 157.876 212.006 309> 638 48<153 253 705 803.152 855.266 967> 786 74<587.603 744.383> 820 74<435.634 590.647>
DStem2: 146.503 -0 201.004 -0 0.164359 0.986401<76.1481 617.233> 733 204 691 28 0.563337 -0.826227<-570.504 0> 699.008 -0 752.335 -0 0.164359 0.986401<206.813 639.383>
LayerCount: 2
Fore
SplineSet
362 811 m 1
 362 812 l 1
 420 862 446 894 510 894 c 0xd0
 570 894 643 860 703 860 c 0xe0
 740 860 766 870 796 894 c 1xd0
 818 869 l 1
 818 868 l 1
 760 818 733 786 669 786 c 0xe0
 603 786 542 820 476 820 c 0xd0
 436 820 413 809 383 786 c 1xe0
 362 811 l 1
EndSplineSet
Refer: 85 78 S 1 0 0 1 -0 -0 3
Substitution2: "LC caps to smallcaps subtable" Ntilde.sc
EndChar

StartChar: Ograve
Encoding: 210 210 217
Width: 863
Flags: HW
TeX: 876 0
ItalicCorrection: 48
HStem: -11 43<352.242 527.306> 656 41<452.56 624.78>
VStem: 114 150<155.496 403.299> 716 146<300.109 525.386>
AnchorPoint: "below" 432 0 basechar 0
AnchorPoint: "above" 573 855 basechar 0
LayerCount: 2
Fore
SplineSet
443 803 m 0
 443 838 474 875 509 875 c 0
 531 875 537 868 664 778 c 1
 641 733 l 1
 468 758 443 760 443 803 c 0
EndSplineSet
Refer: 86 79 S 1 0 0 1 0 0 3
AlternateSubs2: "Stilistic set 01 subtable" Ograve.vn
AlternateSubs2: "Latin alternatives subtable" Ograve.vn
Substitution2: "Latin Vietnamese substitutions subtable" Ograve.vn
Substitution2: "LC caps to smallcaps subtable" Ograve.sc
EndChar

StartChar: Oacute
Encoding: 211 211 218
Width: 863
Flags: HW
TeX: 876 0
ItalicCorrection: 48
HStem: -11 43<352.242 527.306> 656 41<452.56 624.78> 752 123<589.972 665.689>
VStem: 114 150<155.496 403.299> 716 146<300.109 525.386>
AnchorPoint: "below" 432 0 basechar 0
AnchorPoint: "above" 573 855 basechar 0
LayerCount: 2
Fore
SplineSet
457 778 m 1
 624 873 622 875 644 875 c 0
 674 875 690 849 690 823 c 0
 690 758 617 756 594 752 c 0
 551 745 509 739 466 733 c 1
 457 778 l 1
EndSplineSet
Refer: 86 79 S 1 0 0 1 0 -0 3
AlternateSubs2: "Stilistic set 01 subtable" Oacute.vn
AlternateSubs2: "Latin alternatives subtable" Oacute.vn
Substitution2: "Latin Vietnamese substitutions subtable" Oacute.vn
Substitution2: "LC caps to smallcaps subtable" Oacute.sc
EndChar

StartChar: Otilde
Encoding: 213 213 220
Width: 863
Flags: HW
TeX: 894 0
ItalicCorrection: 48
HStem: -11 43<352.242 527.306> 656 41<452.56 624.78> 786 74<569.457 724.85> 820 74<416.506 572.543>
VStem: 114 150<155.496 403.299> 716 146<300.109 525.386>
AnchorPoint: "below" 432 0 basechar 0
AnchorPoint: "above" 576 874 basechar 0
LayerCount: 2
Fore
SplineSet
343 811 m 1
 343 812 l 1
 401 862 428 894 492 894 c 0xdc
 552 894 624 860 684 860 c 0xec
 721 860 748 870 778 894 c 1xdc
 799 869 l 1
 799 868 l 1
 741 818 714 786 650 786 c 0xec
 590 786 518 820 458 820 c 0xdc
 418 820 394 809 364 786 c 1xec
 343 811 l 1
EndSplineSet
Refer: 86 79 S 1 0 0 1 -0 0 3
AlternateSubs2: "Stilistic set 01 subtable" Otilde.vn
AlternateSubs2: "Latin alternatives subtable" Otilde.vn
Substitution2: "Latin Vietnamese substitutions subtable" Otilde.vn
Substitution2: "LC caps to smallcaps subtable" Otilde.sc
EndChar

StartChar: OE
Encoding: 338 338 222
Width: 1169
Flags: HW
TeX: 690 0
ItalicCorrection: 51
HStem: -11 36<392.542 556.889> 0 48<725 995.503> 332 48<781 948.853> 444 21G<1131 1179.83> 638 48<824 1076.78> 660 37<488.467 660.057>
VStem: 134 148<158.721 405.576> 1132 47<444 584.058>
DStem2: 591.686 -11 715.169 -11 0.164359 0.986401<192.806 368.136 416.798 636.816>
AnchorPoint: "above" 771 697 basechar 0
LayerCount: 2
Fore
SplineSet
134 273 m 0
 134 472 283 697 582 697 c 0xb7
 642 697 702 686 781 686 c 2
 1189 686 l 1
 1179 444 l 1
 1131 444 l 1
 1131 458 1132 473 1132 487 c 0
 1132 627 1054 638 949 638 c 2
 824 638 l 1
 781 380 l 1
 863 380 l 2
 952 380 992 396 1010 497 c 1
 1058 497 l 1
 1011 215 l 1
 964 215 l 1
 966 229 968 243 968 257 c 0
 968 316 932 332 861 332 c 2
 773 332 l 1
 725 48 l 1
 844 48 l 2
 929 48 1008 53 1064 123 c 0
 1099 167 1116 220 1135 275 c 1
 1183 275 l 1
 1091 0 l 1
 672 0 l 2x7b
 579 0 534 -11 464 -11 c 0
 266 -11 134 89 134 273 c 0
282 260 m 0
 282 134 339 25 475 25 c 0
 618 25 610 96 670 459 c 0
 674 485 683 533 683 572 c 0
 683 640 658 660 580 660 c 0xb7
 385 660 282 459 282 260 c 0
EndSplineSet
Substitution2: "LC caps to smallcaps subtable" OE.sc
EndChar

StartChar: Oslash
Encoding: 216 216 223
Width: 894
Flags: HW
TeX: 734 48
ItalicCorrection: 48
HStem: -11 36<356.549 547.177> 660 37<459.871 650.56>
VStem: 114 135<157.633 387.818> 757 135<293.598 524.722>
DStem2: 148 -36 178 -60 0.65625 0.754543<1.57847 113.355 192.753 843.62 923.674 1036.96>
LayerCount: 2
Fore
SplineSet
114 273 m 0
 114 481 271 697 563 697 c 0
 650 697 701 680 751 656 c 1
 829 746 l 1
 830 746 l 1
 859 723 l 1
 784 635 l 1
 846 591 892 517 892 407 c 0
 892 187 723 -11 444 -11 c 0
 387 -11 322 -3 255 30 c 1
 178 -60 l 1
 148 -37 l 1
 148 -36 l 1
 223 49 l 1
 185 76 114 138 114 273 c 0
249 220 m 0
 249 167 260 138 275 109 c 1
 708 606 l 1
 692 621 648 659 558 660 c 1
 556 660 l 2
 467 660 385 623 333 550 c 0
 260 447 249 241 249 220 c 0
299 79 m 1
 316 64 360 25 451 25 c 0
 540 25 623 63 674 134 c 0
 747 237 757 442 757 462 c 0
 757 515 747 546 731 575 c 1
 299 80 l 1
 299 79 l 1
EndSplineSet
Substitution2: "LC caps to smallcaps subtable" Oslash.sc
EndChar

StartChar: Ugrave
Encoding: 217 217 224
Width: 884
Flags: HW
TeX: 876 0
ItalicCorrection: 107
HStem: -11 48<374.981 584.553> 638 48<153 253 392.01 504 689 787.152 845.501 951>
VStem: 182 139<109.648 319.75>
DStem2: 145.011 -11 287.512 -11 0.164359 0.986401<211.326 657.923> 681.178 -11 734.677 -11 0.164359 0.986401<148.8 650.659>
AnchorPoint: "below" 465 0 basechar 0
AnchorPoint: "above" 585 866 basechar 0
LayerCount: 2
Fore
SplineSet
453 803 m 0
 453 838 485 875 520 875 c 0
 542 875 548 868 675 778 c 1
 651 733 l 1
 478 758 453 760 453 803 c 0
EndSplineSet
Refer: 92 85 S 1 0 0 1 0 0 3
AlternateSubs2: "Stilistic set 01 subtable" Ugrave.vn
AlternateSubs2: "Latin alternatives subtable" Ugrave.vn
Substitution2: "Latin Vietnamese substitutions subtable" Ugrave.vn
Substitution2: "LC caps to smallcaps subtable" Ugrave.sc
EndChar

StartChar: Uacute
Encoding: 218 218 225
Width: 884
Flags: HW
TeX: 876 0
ItalicCorrection: 107
HStem: -11 48<374.981 584.553> 638 48<153 253 392.01 504 689 787.152 845.501 951> 753 122<647.797 726.194>
VStem: 182 139<109.648 319.75>
DStem2: 145.011 -11 287.512 -11 0.164359 0.986401<211.326 657.923> 681.178 -11 734.677 -11 0.164359 0.986401<148.8 650.659>
AnchorPoint: "below" 465 0 basechar 0
AnchorPoint: "above" 585 866 basechar 0
LayerCount: 2
Fore
SplineSet
515 778 m 1
 682 873 680 875 702 875 c 0
 732 875 749 849 749 823 c 0
 749 758 676 757 653 753 c 0
 610 747 567 739 524 733 c 1
 515 778 l 1
EndSplineSet
Refer: 92 85 S 1 0 0 1 0 -0 3
AlternateSubs2: "Stilistic set 01 subtable" Uacute.vn
AlternateSubs2: "Latin alternatives subtable" Uacute.vn
Substitution2: "Latin Vietnamese substitutions subtable" Uacute.vn
Substitution2: "LC caps to smallcaps subtable" Uacute.sc
EndChar

StartChar: Udieresis
Encoding: 220 220 227
Width: 884
Flags: HW
TeX: 894 0
ItalicCorrection: 107
HStem: -11 48<374.981 584.553> 638 48<153 253 392.01 504 689 787.152 845.501 951> 738 155<643.851 735.727> 738 156<420.269 511.458>
VStem: 182 139<109.648 319.75> 387 157<770.688 861.378> 611 157<770.542 860.458>
DStem2: 145.011 -11 287.512 -11 0.164359 0.986401<211.326 657.923> 681.178 -11 734.677 -11 0.164359 0.986401<148.8 650.659>
AnchorPoint: "below" 465 0 basechar 0
AnchorPoint: "above" 588 885 basechar 0
LayerCount: 2
Fore
SplineSet
387 807 m 0
 387 855 432 894 476 894 c 0
 514 894 544 867 544 826 c 0
 544 783 505 738 456 738 c 0xde
 418 738 387 766 387 807 c 0
EndSplineSet
Refer: 18 729 S 1 0 0 1 412 199 2
Refer: 92 85 S 1 0 0 1 0 -0 3
Substitution2: "LC caps to smallcaps subtable" Udieresis.sc
EndChar

StartChar: Yacute
Encoding: 221 221 228
Width: 869
Flags: HW
TeX: 876 0
ItalicCorrection: 143
HStem: 0 48<265 374 510 610> 638 48<133 223 389 473 717 778.989 839.359 955>
DStem2: 389 638 223 638 0.459889 -0.887977<0 331.856> 541 343 562 290 0.647999 0.761641<0 369.587>
AnchorPoint: "below" 434 0 basechar 0
AnchorPoint: "above" 578 866 basechar 0
LayerCount: 2
Fore
SplineSet
507 778 m 1
 673 873 672 875 694 875 c 0
 724 875 741 849 741 823 c 0
 741 802 730 782 713 770 c 0
 704 764 715 760 516 733 c 1
 507 778 l 1
EndSplineSet
Refer: 96 89 S 1 0 0 1 0 0 3
AlternateSubs2: "Stilistic set 01 subtable" Yacute.vn
AlternateSubs2: "Latin alternatives subtable" Yacute.vn
Substitution2: "Latin Vietnamese substitutions subtable" Yacute.vn
Substitution2: "LC caps to smallcaps subtable" Yacute.sc
EndChar

StartChar: Thorn
Encoding: 222 222 229
Width: 722
Flags: HW
TeX: 690 0
ItalicCorrection: 53
HStem: 0 48<47 155 287 387> 178 48<317 495.422> 517 48<373 544.139> 638 48<153 253 385 493>
VStem: 576 147<313.525 483.886>
DStem2: 147.002 0 279.002 0 0.164359 0.986401<70.3572 202.205 250.867 545.799 594.461 646.745>
LayerCount: 2
Fore
SplineSet
39 0 m 1
 47 48 l 1
 155 48 l 1
 253 638 l 1
 145 638 l 1
 153 686 l 1
 209 684 264 683 321 683 c 2
 501 686 l 1
 493 638 l 1
 385 638 l 1
 373 565 l 1
 510 565 l 2
 549 565 723 556 723 403 c 0
 723 318 660 197 489 180 c 0
 469 178 451 178 431 178 c 2
 309 178 l 1
 287 48 l 1
 395 48 l 1
 387 0 l 1
 303 3 252 3 218 3 c 0
 158 3 99 2 39 0 c 1
317 226 m 1
 412 226 l 2
 549 226 576 350 576 412 c 0
 576 463 556 517 480 517 c 2
 365 517 l 1
 317 226 l 1
EndSplineSet
Substitution2: "LC caps to smallcaps subtable" Thorn.sc
EndChar

StartChar: Germandbls
Encoding: 61699 61699 230
Width: 1277
Flags: HW
TeX: 690 0
ItalicCorrection: 50
HStem: -11 48<230.507 435.193 869.484 1073.38> 653 44<312.355 497.056 952.99 1135.42>
VStem: 65 79<-0.5 192.812> 144 108<424 558.854> 504 107<137.705 282.5> 574 49<458.084 576.236> 782 108<424 557.974> 1142 108<139.674 282.5> 1213 49<458.061 576.236>
DStem2: 311 451 272 303 0.970929 -0.239369<-48.1573 222.561> 949 451 911 303 0.971177 -0.238361<-50.676 223.613>
LayerCount: 2
Fore
SplineSet
65 6 m 0
 65 15 65 7 97 202 c 0
 100 219 102 228 123 228 c 0
 142 228 146 220 146 208 c 0
 146 200 144 190 144 178 c 0
 144 65 264 37 349 37 c 0
 473 37 504 131 504 175 c 0xfa
 504 212 482 248 442 263 c 0
 414 274 314 290 272 303 c 0
 205 323 144 381 144 467 c 0
 144 567 226 697 402 697 c 0
 500 697 544 660 564 641 c 1
 565 641 l 1
 615 685 625 696 640 696 c 0
 649 696 655 691 655 679 c 0
 655 670 623 482 623 481 c 0
 621 470 618 458 599 458 c 2
 598 458 l 2
 573 458 574 471 574 485 c 0xf6
 574 620 480 653 401 653 c 0
 292 653 252 580 252 531 c 0
 252 488 283 462 311 451 c 0
 336 441 454 421 488 409 c 0
 551 388 611 328 611 237 c 0
 611 131 531 -11 349 -11 c 0
 230 -11 176 28 155 45 c 1
 106 3 94 -10 82 -10 c 0
 76 -10 65 -7 65 6 c 0
704 9 m 0
 704 17 725 137 736 202 c 0
 739 219 741 228 762 228 c 0
 781 228 784 220 784 208 c 0
 784 200 783 190 783 178 c 0
 783 65 903 37 988 37 c 0
 1112 37 1142 131 1142 175 c 0
 1142 212 1120 248 1080 263 c 0
 1064 269 928 298 911 303 c 0
 844 323 782 381 782 467 c 0
 782 563 860 697 1040 697 c 0
 1138 697 1183 660 1203 641 c 1
 1204 641 l 1
 1254 685 1264 696 1279 696 c 0xf3
 1288 696 1294 691 1294 679 c 0
 1294 670 1262 482 1262 481 c 0
 1259 463 1252 458 1238 458 c 2
 1236 458 l 2
 1211 458 1213 471 1213 485 c 0xf280
 1213 620 1118 653 1039 653 c 0
 930 653 890 580 890 531 c 0
 890 488 921 462 949 451 c 0
 974 441 1093 421 1127 409 c 0
 1190 387 1250 328 1250 237 c 0
 1250 128 1166 -11 988 -11 c 0
 878 -11 823 22 794 45 c 1
 745 3 732 -10 720 -10 c 0
 707 -10 704 -1 704 9 c 0
EndSplineSet
Substitution2: "LC caps to smallcaps subtable" Germandbls.sc
EndChar

StartChar: agrave
Encoding: 224 224 231
Width: 559
Flags: HW
TeX: 648 0
HStem: -5 36<188.834 311.077> 233 32<293.733 396> 298 136<158.439 235.343> 416 37<243.266 381.667>
VStem: 48 118<50.0634 152.811> 130 127<318.756 405.527> 385 99<50.9535 138.072> 410 113<226.021 387.812>
AnchorPoint: "below" 249 0 basechar 0
AnchorPoint: "above" 355 642 basechar 0
LayerCount: 2
Fore
SplineSet
276 590 m 0xc2
 276 623 310 662 345 662 c 0
 372 662 378 650 484 535 c 1
 484 534 l 1
 453 494 l 1
 296 552 276 551 276 590 c 0xc2
EndSplineSet
Refer: 104 97 S 1 0 0 1 0 0 3
AlternateSubs2: "Stilistic set 01 subtable" agrave.vn
AlternateSubs2: "Latin alternatives subtable" agrave.vn
Substitution2: "Latin Vietnamese substitutions subtable" agrave.vn
Substitution2: "LC small to smallcaps subtable" Agrave.sc
EndChar

StartChar: acircumflex
Encoding: 226 226 233
Width: 559
Flags: HW
TeX: 648 0
HStem: -5 36<188.834 311.077> 233 32<293.733 396> 298 136<158.439 235.343> 416 37<243.266 381.667>
VStem: 48 118<50.0634 152.811> 130 127<318.756 405.527> 385 99<50.9535 138.072> 410 113<226.021 387.812>
AnchorPoint: "below" 249 0 basechar 0
AnchorPoint: "above" 355 638 basechar 0
LayerCount: 2
Fore
SplineSet
181 510 m 1
 364 658 l 1
 499 511 l 1
 499 510 l 1
 462 474 l 1
 351 576 l 1
 350 576 l 1xc0
 206 474 l 1
 181 510 l 1
EndSplineSet
Refer: 104 97 S 1 0 0 1 0 0 3
AlternateSubs2: "Stilistic set 01 subtable" acircumflex.vn
AlternateSubs2: "Latin alternatives subtable" acircumflex.vn
Substitution2: "Latin Vietnamese substitutions subtable" acircumflex.vn
Substitution2: "LC small to smallcaps subtable" Acircumflex.sc
EndChar

StartChar: aring
Encoding: 229 229 236
Width: 559
Flags: HW
TeX: 648 0
HStem: -5 36<188.834 311.077> 233 32<293.733 396> 298 136<158.439 235.343> 416 37<243.266 381.667> 487 35<284.547 405.622> 626 35<295.754 415.221>
VStem: 48 118<50.0634 152.811> 130 127<318.756 405.527> 230 48<527.608 611.538> 385 99<50.9535 138.072> 410 113<226.021 387.812> 423 48<535.484 620.099>
LayerCount: 2
Fore
SplineSet
230 562 m 0
 230 602 265 661 366 661 c 0
 450 661 471 618 471 587 c 0
 471 547 436 487 335 487 c 0
 251 487 230 532 230 562 c 0
278 562 m 0
 278 530 298 522 339 522 c 0
 380 522 423 526 423 587 c 0
 423 625 387 626 356 626 c 2xcc90
 355 626 l 2
 332 626 278 625 278 562 c 0
EndSplineSet
Refer: 104 97 S 1 0 0 1 -0 0 3
Substitution2: "LC small to smallcaps subtable" Aring.sc
EndChar

StartChar: ae
Encoding: 230 230 237
Width: 830
Flags: HW
TeX: 444 0
ItalicCorrection: 56
HStem: -6 37<190.526 324.797 560.929 689.895> 218 33<515 746.528> 416 37<243.137 383.818 603.664 721.165>
VStem: 53 118<46.9578 144.407> 131 126<319.518 405.993> 394 115<187.423 215 251 307.229> 750 92<251.788 383.424>
AnchorPoint: "below" 417 0 basechar 0
AnchorPoint: "above" 483 453 basechar 0
LayerCount: 2
Fore
SplineSet
53 90 m 0xf6
 53 153 118 243 399 248 c 1
 403 276 411 313 411 334 c 0
 411 374 393 416 319 416 c 0
 304 416 272 415 242 409 c 1
 252 396 257 387 257 371 c 0xee
 257 332 227 299 186 299 c 0
 167 299 131 309 131 352 c 0xee
 131 388 156 426 218 442 c 0
 239 447 272 453 326 453 c 0
 394 453 451 443 496 398 c 1
 497 398 l 1
 546 435 609 453 670 453 c 0
 787 453 842 392 842 292 c 0
 842 221 830 218 809 218 c 2
 509 218 l 1
 507 216 503 166 503 156 c 0
 503 59 572 35 624 35 c 0
 684 35 739 69 766 115 c 0
 771 124 777 135 794 135 c 0
 805 135 816 130 816 117 c 0
 816 94 751 -5 615 -5 c 0
 552 -5 485 11 439 60 c 1
 423 45 369 -6 229 -6 c 0
 149 -6 53 13 53 90 c 0xf6
171 91 m 0xf6
 171 55 201 31 245 31 c 0
 334 31 398 91 398 131 c 0
 398 142 392 155 392 187 c 0
 392 196 393 206 394 215 c 1
 335 211 239 201 193 145 c 0
 180 130 171 111 171 91 c 0xf6
515 251 m 1
 744 251 l 1
 746 253 750 303 750 313 c 0xe6
 750 403 702 416 670 416 c 0
 639 416 543 403 515 251 c 1
EndSplineSet
Substitution2: "LC small to smallcaps subtable" AE.sc
EndChar

StartChar: ccedilla
Encoding: 231 231 238
Width: 511
Flags: HW
TeX: 444 170
ItalicCorrection: 61
HStem: -199 36<106 272.984> 412 41<291.172 424.738>
VStem: 71 125<91.3617 285.175> 306 116<-138.992 -72.4214> 399 127<320.5 401.559>
AnchorPoint: "above" 365 453 basechar 0
LayerCount: 2
Fore
SplineSet
71 183 m 0
 71 297 154 453 365 453 c 0
 484 453 526 421 526 372 c 0
 526 332 494 299 455 299 c 0
 423 299 399 320 399 352 c 0
 399 374 410 391 426 408 c 1
 414 410 389 412 364 412 c 0
 237 412 213 281 205 235 c 0
 202 216 196 184 196 156 c 0
 196 59 259 35 309 35 c 0
 369 35 412 66 437 101 c 0
 449 118 452 131 472 131 c 0xe8
 489 131 495 126 495 117 c 0
 495 94 442 18 343 0 c 1
 338 -30 l 1
 360 -34 422 -44 422 -99 c 0
 422 -150 373 -172 335 -182 c 0
 268 -200 181 -199 101 -199 c 1
 106 -163 l 1
 199 -163 306 -161 306 -105 c 0xf0
 306 -66 252 -61 219 -60 c 1
 229 -0 l 1
 78 32 71 144 71 183 c 0
EndSplineSet
Substitution2: "LC small to smallcaps subtable" Ccedilla.sc
EndChar

StartChar: eacute
Encoding: 233 233 240
Width: 527
Flags: HW
TeX: 648 0
ItalicCorrection: 56
HStem: -5 40<233.993 391.361> 218 33<201 441.941> 416 37<284.644 410.323>
VStem: 65 124<97.0851 252.46> 445 93<252.269 376.729>
AnchorPoint: "below" 296 0 basechar 0
AnchorPoint: "above" 382 642 basechar 0
LayerCount: 2
Fore
SplineSet
243 535 m 1
 383 647 395 662 423 662 c 0
 454 662 473 634 473 608 c 0
 473 554 433 550 261 494 c 1
 243 535 l 1
EndSplineSet
Refer: 108 101 S 1 0 0 1 -0 0 3
AlternateSubs2: "Stilistic set 01 subtable" eacute.vn
AlternateSubs2: "Latin alternatives subtable" eacute.vn
Substitution2: "Latin Vietnamese substitutions subtable" eacute.vn
Substitution2: "LC small to smallcaps subtable" Eacute.sc
EndChar

StartChar: ecircumflex
Encoding: 234 234 241
Width: 527
Flags: HW
TeX: 648 0
ItalicCorrection: 56
HStem: -5 40<233.993 391.361> 218 33<201 441.941> 416 37<284.644 410.323>
VStem: 65 124<97.0851 252.46> 445 93<252.269 376.729>
AnchorPoint: "below" 296 0 basechar 0
AnchorPoint: "above" 382 638 basechar 0
LayerCount: 2
Fore
SplineSet
188 510 m 1
 372 658 l 1
 506 511 l 1
 506 510 l 1
 470 475 l 1
 469 475 l 1
 359 576 l 1
 358 576 l 1
 213 474 l 1
 188 510 l 1
EndSplineSet
Refer: 108 101 S 1 0 0 1 0 0 3
AlternateSubs2: "Stilistic set 01 subtable" ecircumflex.vn
AlternateSubs2: "Latin alternatives subtable" ecircumflex.vn
Substitution2: "Latin Vietnamese substitutions subtable" ecircumflex.vn
Substitution2: "LC small to smallcaps subtable" Ecircumflex.sc
EndChar

StartChar: edieresis
Encoding: 235 235 242
Width: 527
Flags: HW
TeX: 690 0
ItalicCorrection: 56
HStem: -5 40<233.993 391.361> 218 33<201 441.941> 416 37<284.644 410.323> 530 155<429.851 521.727> 530 156<205.936 298.32>
VStem: 65 124<97.0851 252.46> 174 156<561.304 654.143> 397 157<562.542 652.458> 445 93<252.269 376.729>
AnchorPoint: "below" 296 0 basechar 0
AnchorPoint: "above" 386 666 basechar 0
LayerCount: 2
Fore
SplineSet
174 599 m 0
 174 643 213 686 262 686 c 0
 302 686 330 655 330 617 c 0
 330 572 291 530 243 530 c 0xea
 202 530 174 562 174 599 c 0
EndSplineSet
Refer: 18 729 S 1 0 0 1 198 -9 2
Refer: 108 101 S 1 0 0 1 0 0 3
Substitution2: "LC small to smallcaps subtable" Edieresis.sc
EndChar

StartChar: igrave
Encoding: 236 236 243
Width: 319
Flags: HW
TeX: 648 0
ItalicCorrection: 37
HStem: 0 48<54 123 232 286> 394 48<123 175.967> 430 20<123 295.667>
VStem: 46 253
DStem2: 115.002 0 224.002 0 0.164359 0.986401<66.5769 375.749>
AnchorPoint: "below" 170 0 basechar 0
AnchorPoint: "above" 277 645 basechar 0
LayerCount: 2
Fore
SplineSet
95 590 m 0x90
 95 623 129 662 164 662 c 0
 191 662 197 650 303 535 c 1
 303 534 l 1
 272 494 l 1
 115 552 95 551 95 590 c 0x90
EndSplineSet
Refer: 32 305 S 1 0 0 1 0 0 3
AlternateSubs2: "Stilistic set 01 subtable" igrave.vn
AlternateSubs2: "Latin alternatives subtable" igrave.vn
Substitution2: "Latin Vietnamese substitutions subtable" igrave.vn
Substitution2: "LC small to smallcaps subtable" Igrave.sc
Ligature2: "Latin ligatures excepting Turkic subtable" i gravecomb
EndChar

StartChar: icircumflex
Encoding: 238 238 245
Width: 319
Flags: HW
TeX: 648 0
ItalicCorrection: 37
HStem: 0 48<54 123 232 286> 394 48<123 175.967> 430 20<123 295.667>
VStem: 46 253
DStem2: 115.002 0 224.002 0 0.164359 0.986401<66.5769 375.749>
AnchorPoint: "below" 170 0 basechar 0
AnchorPoint: "above" 276 641 basechar 0
LayerCount: 2
Fore
SplineSet
96 510 m 1
 280 658 l 1
 414 511 l 1
 414 510 l 1
 378 475 l 1
 376 475 l 1
 266 576 l 1x90
 121 474 l 1
 96 510 l 1
EndSplineSet
Refer: 32 305 S 1 0 0 1 0 0 3
Substitution2: "LC small to smallcaps subtable" Icircumflex.sc
Ligature2: "Latin ligatures excepting Turkic subtable" i uni0302
EndChar

StartChar: idieresis
Encoding: 239 239 246
Width: 383
Flags: HW
TeX: 690 0
ItalicCorrection: 37
HStem: 0 48<87 156 265 319> 394 48<156 208.967> 430 20G<156 328.667> 530 156<146.281 239.142 369.273 462.142>
VStem: 114 157<562.524 654.064> 337 157<562.118 654.064>
DStem2: 148.002 0 257.002 0 0.164359 0.986401<66.5769 375.749>
AnchorPoint: "above" 313 666 basechar 0
LayerCount: 2
Fore
SplineSet
79 0 m 1
 87 48 l 1
 156 48 l 1
 207 354 l 2
 208 361 209 366 209 371 c 0
 209 388 198 394 158 394 c 2xdc
 148 394 l 1
 156 442 l 1xdc
 332 450 l 1xbc
 265 48 l 1
 327 48 l 1
 319 0 l 1
 280 2 240 3 201 3 c 0
 160 3 120 2 79 0 c 1
114 599 m 0
 114 647 158 686 202 686 c 0
 240 686 271 658 271 617 c 0
 271 575 232 530 183 530 c 0
 142 530 114 561 114 599 c 0
337 599 m 0
 337 643 377 686 425 686 c 0
 463 686 494 658 494 617 c 0
 494 574 455 530 406 530 c 0x9c
 368 530 337 558 337 599 c 0
EndSplineSet
Substitution2: "LC small to smallcaps subtable" Idieresis.sc
Ligature2: "Latin ligatures excepting Turkic subtable" i uni0308
EndChar

StartChar: eth
Encoding: 240 240 247
Width: 575
Flags: HW
TeX: 690 0
ItalicCorrection: 74
HStem: -5 40<226.238 360.314> 416 37<289.32 414.784> 672 20G<228 304.5 529.5 542.5>
VStem: 65 124<90.4658 283.084> 457 140<199.15 424.017>
LayerCount: 2
Fore
SplineSet
65 181 m 0
 65 310 168 453 358 453 c 0
 406 453 436 436 464 408 c 1
 450 482 419 526 383 568 c 1
 311 530 293 519 284 519 c 0
 273 519 267 533 267 542 c 0
 267 555 279 560 350 597 c 1
 244 674 196 644 196 671 c 0
 196 681 206 695 250 695 c 0
 359 695 426 646 435 646 c 0
 453 646 522 692 537 692 c 0
 548 692 555 680 555 669 c 0
 555 657 550 655 474 615 c 1
 555 550 597 453 597 356 c 0
 597 300 575 197 574 194 c 0
 546 87 448 -5 289 -5 c 0
 160 -5 65 57 65 181 c 0
189 143 m 0
 189 57 245 35 292 35 c 0
 303 35 362 37 404 90 c 0
 451 149 457 268 457 288 c 0
 457 396 397 416 357 416 c 0
 311 416 267 392 241 357 c 0
 196 296 189 153 189 143 c 0
EndSplineSet
Substitution2: "LC small to smallcaps subtable" Eth.sc
EndChar

StartChar: ocircumflex
Encoding: 244 244 251
Width: 575
Flags: HW
TeX: 648 0
ItalicCorrection: 51
HStem: -5 40<223.481 369.654> 416 37<283.524 424.693>
VStem: 65 123<89.4325 281.299> 463 120<167.721 355.713>
AnchorPoint: "below" 287 0 basechar 0
AnchorPoint: "above" 393 638 basechar 0
LayerCount: 2
Fore
SplineSet
213 510 m 1
 397 658 l 1
 531 511 l 1
 531 510 l 1
 494 474 l 1
 384 576 l 1
 383 576 l 1
 238 474 l 1
 213 510 l 1
EndSplineSet
Refer: 118 111 S 1 0 0 1 0 0 3
AlternateSubs2: "Stilistic set 01 subtable" ocircumflex.vn
AlternateSubs2: "Latin alternatives subtable" ocircumflex.vn
Substitution2: "Latin Vietnamese substitutions subtable" ocircumflex.vn
Substitution2: "LC small to smallcaps subtable" Ocircumflex.sc
EndChar

StartChar: odieresis
Encoding: 246 246 253
Width: 575
Flags: HW
TeX: 690 0
ItalicCorrection: 51
HStem: -5 40<223.481 369.654> 416 37<283.524 424.693> 530 156<230.851 323.32 454.381 546.727>
VStem: 65 123<89.4325 281.299> 198 157<562.118 654.064> 422 157<561.857 654.143> 463 120<167.721 355.713>
AnchorPoint: "below" 287 0 basechar 0
AnchorPoint: "above" 397 666 basechar 0
LayerCount: 2
Fore
SplineSet
198 599 m 0
 198 647 243 686 287 686 c 0
 325 686 355 658 355 617 c 0
 355 574 316 530 268 530 c 0
 227 530 198 561 198 599 c 0
422 599 m 0
 422 643 462 686 510 686 c 0
 551 686 579 655 579 617 c 0
 579 572 539 530 491 530 c 0xfc
 451 530 422 561 422 599 c 0
EndSplineSet
Refer: 118 111 S 1 0 0 1 -0 0 3
Substitution2: "LC small to smallcaps subtable" Odieresis.sc
EndChar

StartChar: oe
Encoding: 339 339 254
Width: 894
Flags: HW
TeX: 444 0
ItalicCorrection: 56
HStem: -6 37<222.188 358.371 624.592 753.025> 218 33<578 809.528> 416 37<281.232 423.606 667.931 784.768>
VStem: 65 113<93.5498 289.984> 467 99<169.02 217.871> 813 92<251.994 383.056>
AnchorPoint: "below" 446 0 basechar 0
AnchorPoint: "above" 540 453 basechar 0
LayerCount: 2
Fore
SplineSet
65 185 m 0
 65 321 171 453 356 453 c 0
 465 453 515 408 538 380 c 1
 553 393 617 453 735 453 c 0
 816 453 905 421 905 292 c 0
 905 222 892 218 872 218 c 2
 572 218 l 1
 570 216 566 166 566 156 c 0
 566 58 637 35 687 35 c 0
 745 35 799 66 828 114 c 0
 833 123 840 135 857 135 c 0
 871 135 879 128 879 117 c 0
 879 93 813 -5 678 -5 c 0
 606 -5 537 16 493 70 c 1
 473 53 410 -6 285 -6 c 0
 157 -6 65 62 65 185 c 0
178 147 m 0
 178 54 237 31 287 31 c 0
 299 31 364 33 409 90 c 0
 460 154 467 288 467 304 c 0
 467 394 406 416 355 416 c 0
 297 416 254 387 230 355 c 0
 189 300 178 184 178 147 c 0
578 251 m 1
 807 251 l 1
 809 253 813 303 813 313 c 0
 813 403 765 416 733 416 c 0
 702 416 606 403 578 251 c 1
EndSplineSet
Substitution2: "LC small to smallcaps subtable" OE.sc
EndChar

StartChar: oslash
Encoding: 248 248 255
Width: 575
Flags: HW
TeX: 541 97
HStem: -5 36<218.1 369.152> 416 37<280.526 428.3>
VStem: 64 109<88.8905 278.986> 474 108<159.99 355.923>
DStem2: 58 -88 86 -107 0.618527 0.785763<2.38926 145.244 210.059 606.17 671.771 813.222>
LayerCount: 2
Fore
SplineSet
58 -88 m 1
 148 26 l 1
 116 45 64 87 64 178 c 0
 64 298 156 452 360 453 c 1
 362 453 l 2
 399 453 435 447 469 434 c 1
 561 551 l 1
 589 532 l 1
 500 419 l 1
 531 400 582 356 582 262 c 0
 582 120 471 -5 286 -5 c 0
 250 -5 213 0 179 12 c 1
 86 -107 l 1
 58 -88 l 1
173 140 m 0
 173 110 179 94 188 77 c 1
 437 393 l 1
 430 397 404 416 356 416 c 0
 207 416 192 281 180 210 c 0
 176 187 173 165 173 140 c 0
212 52 m 1
 233 40 253 31 291 31 c 0
 348 31 397 53 426 95 c 0
 466 154 474 296 474 302 c 0
 474 333 469 350 460 367 c 1
 212 52 l 1
EndSplineSet
Substitution2: "LC small to smallcaps subtable" Oslash.sc
EndChar

StartChar: ucircumflex
Encoding: 251 251 258
Width: 638
Flags: HW
TeX: 648 0
ItalicCorrection: 3
HStem: -5 36<249.195 379.518> 0 48<560.033 616> 394 48<118 173.981 436 492.967> 430 20<118 275 436 617.695>
VStem: 132 110<38.836 208.998>
AnchorPoint: "below" 330 0 basechar 0
AnchorPoint: "above" 436 641 basechar 0
LayerCount: 2
Fore
SplineSet
256 510 m 1
 440 658 l 1
 574 511 l 1
 574 510 l 1
 538 475 l 1
 536 475 l 1
 426 576 l 1
 425 576 l 1x08
 281 474 l 1
 256 510 l 1
EndSplineSet
Refer: 124 117 S 1 0 0 1 -0 0 3
Substitution2: "LC small to smallcaps subtable" Ucircumflex.sc
EndChar

StartChar: udieresis
Encoding: 252 252 259
Width: 638
Flags: HW
TeX: 690 0
ItalicCorrection: 3
HStem: -5 36<249.195 379.518> 0 48<560.033 616> 394 48<118 173.981 436 492.967> 430 20<118 275 436 617.695> 530 156<273.281 365.727 497.273 589.32>
VStem: 132 110<38.836 208.998> 241 157<561.936 654.143> 465 156<561.857 654.143>
AnchorPoint: "below" 330 0 basechar 0
AnchorPoint: "above" 441 669 basechar 0
LayerCount: 2
Fore
SplineSet
241 599 m 0
 241 647 285 686 329 686 c 0
 369 686 398 655 398 617 c 0x0b
 398 572 358 530 310 530 c 0
 272 530 241 558 241 599 c 0
465 599 m 0
 465 644 505 686 553 686 c 0
 593 686 621 655 621 617 c 0
 621 573 582 530 534 530 c 0x09
 494 530 465 561 465 599 c 0
EndSplineSet
Refer: 124 117 S 1 0 0 1 0 -0 3
Substitution2: "LC small to smallcaps subtable" Udieresis.sc
EndChar

StartChar: thorn
Encoding: 254 254 261
Width: 639
Flags: HW
TeX: 690 194
ItalicCorrection: 30
HStem: -195 48<11 83.1222 195 256> -5 36<278.127 402.153> 409 41<337.542 473.92> 644 47<151 206.925> 680 20G<151 326.7>
VStem: 514 126<163.044 358.256>
DStem2: 72.002 -195 187.002 -195 0.164359 0.986401<67.5631 257.115 291.598 594 624.218 825.688>
LayerCount: 2
Fore
SplineSet
3 -195 m 1
 11 -147 l 1
 80 -147 l 1
 83 -123 88 -98 92 -74 c 2
 202 585 l 2
 205 601 207 611 207 620 c 0
 207 638 196 644 152 644 c 2
 143 644 l 1
 151 691 l 1xf4
 330 700 l 1xec
 281 403 l 1
 329 432 375 450 438 450 c 0
 528 450 640 407 640 264 c 0
 640 121 526 -5 352 -5 c 0
 292 -5 260 12 226 40 c 1
 195 -147 l 1
 264 -147 l 1
 256 -195 l 1
 213 -193 169 -192 126 -192 c 2
 123 -192 l 2
 108 -192 71 -192 3 -195 c 1
237 103 m 1
 237 81 275 31 340 31 c 0xe4
 449 31 514 160 514 282 c 0
 514 348 488 409 418 409 c 0
 353 409 289 366 278 344 c 0
 272 332 237 103 237 103 c 1
EndSplineSet
Substitution2: "LC small to smallcaps subtable" Thorn.sc
EndChar

StartChar: germandbls
Encoding: 223 223 262
Width: 597
Flags: HW
TeX: 690 0
ItalicCorrection: 51
HStem: -5 36<367.732 468.162> 0 48<43 112> 397 48<109 170> 663 37<347.366 490.726>
VStem: 290 60<43.9326 155.398> 329 77<246 382.44> 505 78<77.0574 167.242> 516 48<483.878 642.3>
DStem2: 103.169 -5 212.167 -5 0.164359 0.986401<53.7307 407.517 456.344 654.348>
LayerCount: 2
Fore
SplineSet
35 0 m 1
 43 48 l 1
 112 48 l 1
 170 397 l 1
 101 397 l 1
 109 445 l 1
 179 445 l 1
 183 473 199 570 203 583 c 0
 232 682 333 700 415 700 c 0
 522 700 564 655 564 589 c 0
 564 556 547 435 485 422 c 0
 468 419 456 421 440 411 c 0
 417 397 406 366 406 343 c 0x75
 406 258 507 324 565 229 c 0
 577 209 583 186 583 163 c 0
 583 104 548 -5 409 -5 c 0
 368 -5 352 8 341 16 c 1
 306 -3 305 -5 296 -5 c 0
 284 -5 280 1 280 14 c 0
 280 28 285 51 290 83 c 0
 300 144 297 157 324 157 c 0
 355 157 346 139 350 102 c 0
 353 69 362 31 410 31 c 0
 490 31 505 94 505 122 c 0xba
 505 174 451 182 440 184 c 0
 431 186 329 193 329 299 c 0
 329 330 343 439 457 452 c 0
 483 455 493 446 513 554 c 0
 515 566 516 578 516 590 c 0xb5
 516 634 491 663 416 663 c 0
 311 663 312 586 301 522 c 2
 213 -0 l 1
 175 3 l 1
 115 2 l 1
 35 0 l 1
EndSplineSet
Substitution2: "LC small to smallcaps subtable" Germandbls.sc
EndChar

StartChar: grave.uc
Encoding: 65542 -1 263
Width: 575
Flags: HW
TeX: 633 0
VStem: 211 222
LayerCount: 2
Fore
SplineSet
211 562 m 0
 211 597 242 634 277 634 c 0
 299 634 305 627 433 537 c 1
 409 492 l 1
 239 517 211 518 211 562 c 0
EndSplineSet
EndChar

StartChar: acute.uc
Encoding: 65543 -1 264
Width: 575
Flags: HW
TeX: 633 0
ItalicCorrection: 9
HStem: 492 142<452.797 522>
VStem: 320 234
LayerCount: 2
Fore
SplineSet
320 536 m 1
 487 632 485 634 507 634 c 0
 537 634 554 607 554 581 c 0
 554 560 543 541 526 529 c 0
 514 521 522 519 330 492 c 1
 329 492 l 1
 320 536 l 1
EndSplineSet
EndChar

StartChar: tilde.uc
Encoding: 65544 -1 265
Width: 575
Flags: HW
TeX: 648 0
ItalicCorrection: 44
HStem: 545 73<388.454 540.973> 579 74<232.184 388.454>
LayerCount: 2
Fore
SplineSet
158 570 m 1
 215 619 243 653 307 653 c 0x40
 374 653 433 618 500 618 c 0x80
 540 618 562 630 593 653 c 1x40
 615 627 l 1
 557 577 529 545 466 545 c 0x80
 406 545 333 579 273 579 c 0x40
 233 579 210 568 179 545 c 1x80
 158 570 l 1
EndSplineSet
EndChar

StartChar: dieresis.var
Encoding: 62029 62029 266
Width: 575
Flags: HW
TeX: 648 0
HStem: 497 155<224.281 316.727 447.851 539.727>
VStem: 192 157<528.304 620.32> 415 157<529.542 619.458>
LayerCount: 2
Fore
SplineSet
192 565 m 0
 192 613 236 652 280 652 c 0
 318 652 349 625 349 584 c 0
 349 539 309 497 261 497 c 0
 223 497 192 524 192 565 c 0
EndSplineSet
Refer: 18 729 S 1 0 0 1 216 -42 2
EndChar

StartChar: hungarumlaut.uc
Encoding: 65545 -1 267
Width: 575
Flags: HW
TeX: 633 0
ItalicCorrection: 41
HStem: 522 112<356.88 420.4>
LayerCount: 2
Fore
SplineSet
224 536 m 1
 391 632 389 634 411 634 c 0
 441 634 458 607 458 581 c 0
 458 573 456 566 454 559 c 1
 572 627 581 634 602 634 c 0
 632 634 649 608 649 581 c 0
 649 559 638 542 624 531 c 0
 610 520 614 519 425 492 c 1
 419 522 l 1
 361 508 295 503 234 492 c 1
 233 492 l 1
 224 536 l 1
EndSplineSet
EndChar

StartChar: ring.uc
Encoding: 65546 -1 268
Width: 885
Flags: HW
TeX: 648 0
HStem: 478 36<469.284 590.697> 625 36<481.927 603.275>
VStem: 415 48<520.11 609.221> 609 48<529.482 619.544>
LayerCount: 2
Fore
SplineSet
415 555 m 0
 415 597 451 661 552 661 c 0
 634 661 657 616 657 584 c 0
 657 542 621 478 520 478 c 0
 462 478 415 502 415 555 c 0
463 554 m 0
 463 521 488 514 524 514 c 0
 567 514 609 520 609 585 c 0
 609 618 585 625 548 625 c 0
 514 625 463 623 463 554 c 0
EndSplineSet
EndChar

StartChar: twelveudash
Encoding: 61700 61700 269
Width: 766
Flags: HW
TeX: 444 0
ItalicCorrection: 77
HStem: 256 37<48 808>
LayerCount: 2
Fore
SplineSet
42 256 m 1
 48 293 l 1
 814 293 l 1
 808 256 l 1
 42 256 l 1
EndSplineSet
EndChar

StartChar: threequartersemdash
Encoding: 63198 63198 270
Width: 862
Flags: HW
TeX: 444 0
ItalicCorrection: 77
HStem: 256 37<48 904>
LayerCount: 2
Fore
SplineSet
42 256 m 1
 48 293 l 1
 910 293 l 1
 904 256 l 1
 42 256 l 1
EndSplineSet
EndChar

StartChar: arrowleft
Encoding: 8592 8592 271
Width: 1150
Flags: HW
TeX: 391 -108
HStem: -0 21G<284.5 349> 220 60<270 1123.51>
VStem: 288 61<0 98.5222>
LayerCount: 2
Fore
SplineSet
105 250 m 1
 225 287 325 379 371 500 c 1
 432 500 l 1
 397 402 332 330 270 280 c 1
 1092 280 l 2
 1107 280 1126 278 1126 255 c 0
 1126 246 1123 219 1081 219 c 0
 1078 219 1073 220 1070 220 c 2
 260 220 l 1
 309 164 345 98 349 -0 c 1
 288 -0 l 1
 281 143 192 210 138 236 c 0
 127 241 116 245 105 250 c 1
EndSplineSet
EndChar

StartChar: arrowright
Encoding: 8594 8594 272
Width: 1150
Flags: HW
TeX: 391 -108
HStem: -0 21G<800 896> 220 60<108.758 962>
VStem: 883 61<402.448 500>
LayerCount: 2
Fore
SplineSet
106 245 m 0
 106 254 110 280 151 280 c 2
 973 280 l 1
 943 313 889 380 883 500 c 1
 944 500 l 1
 951 370 1024 287 1127 250 c 1
 1088 239 932 184 860 -0 c 1
 800 -0 l 1
 836 98 898 167 962 220 c 1
 152 220 l 2
 148 220 144 219 140 219 c 0
 121 219 106 225 106 245 c 0
EndSplineSet
EndChar

StartChar: uni0361.alt
Encoding: 61701 61701 273
Width: 319
Flags: HW
TeX: 690 0
ItalicCorrection: 403
HStem: 615 51<322.839 607.992>
LayerCount: 2
Fore
SplineSet
229 557 m 0
 229 586 261 624 326 646 c 0
 383 666 448 666 479 666 c 0
 648 666 690 605 690 565 c 0
 690 546 681 541 667 541 c 0
 621 541 673 575 592 600 c 0
 554 612 513 615 473 615 c 0
 346 615 293 586 279 561 c 0
 272 550 271 541 253 541 c 0
 233 541 229 551 229 557 c 0
EndSplineSet
EndChar

StartChar: uni0361
Encoding: 865 865 274
Width: 0
Flags: HW
TeX: 935 0
ItalicCorrection: 453
HStem: 601 52<-48.5051 252.928>
VStem: -175 49<500.23 548.375> 308 49<500.11 559.832>
AnchorPoint: "affricate-above" 80 453 mark 0
LayerCount: 2
Fore
SplineSet
-175 515 m 0
 -175 543 -134 653 112 653 c 0
 311 653 357 577 357 527 c 0
 357 504 348 500 333 500 c 0
 305 500 311 517 308 531 c 0
 302 554 268 601 107 601 c 0
 -56 601 -112 553 -126 522 c 0
 -130 513 -131 500 -152 500 c 0
 -174 500 -175 511 -175 515 c 0
EndSplineSet
EndChar

StartChar: uni2040.alt
Encoding: 61702 61702 275
Width: 575
Flags: HW
TeX: 690 0
ItalicCorrection: 403
HStem: 615 51<284.974 489.37>
LayerCount: 2
Fore
SplineSet
203 558 m 0
 203 580 236 666 398 666 c 0
 526 666 558 607 558 567 c 0
 558 546 549 541 534 541 c 0
 488 541 540 586 456 608 c 0
 435 613 413 615 392 615 c 0
 260 615 253 558 246 549 c 0
 241 543 233 541 226 541 c 0
 214 541 203 545 203 558 c 0
EndSplineSet
EndChar

StartChar: uni2040
Encoding: 8256 8256 276
Width: 575
Flags: HW
TeX: 690 0
ItalicCorrection: 453
HStem: 601 52<251.411 516.5>
VStem: 132 49<500.185 551.083> 557 58<501.314 568.625>
LayerCount: 2
Fore
SplineSet
132 516 m 0
 132 543 174 653 394 653 c 0
 573 653 615 578 615 528 c 0
 615 505 605 500 591 500 c 0
 553 500 578 523 557 551 c 0
 540 573 496 601 389 601 c 0
 238 601 193 550 181 522 c 0
 176 509 174 500 155 500 c 0
 144 500 132 502 132 516 c 0
EndSplineSet
EndChar

StartChar: uni2422
Encoding: 9250 9250 277
Width: 639
Flags: HW
TeX: 690 0
ItalicCorrection: 21
HStem: -6 37<279.455 413.608> 413 37<343.422 481.363> 638 48<150 205.961> 674 20G<150 325.822>
VStem: 518 122<165.352 353.884>
DStem2: 104 -6 218.671 -6 0.164359 0.986401<100.601 404.845 433.516 459.166 500.399 559.281> 106 452 127 413 0.836932 0.547307<0 58.2316 246.294 465.803>
LayerCount: 2
Fore
SplineSet
105 -0 m 1
 179 447 l 1
 127 413 l 1
 106 452 l 1
 203 516 187 498 194 537 c 0
 205 599 206 607 206 615 c 0
 206 635 193 638 149 638 c 2
 142 638 l 1
 150 686 l 1xe8
 329 694 l 1xd8
 312 587 l 1
 497 709 l 1
 520 670 l 1
 302 528 l 1
 281 404 l 1
 323 431 374 450 435 450 c 0
 559 450 640 379 640 263 c 0
 640 117 522 -6 350 -6 c 0
 267 -6 230 36 211 57 c 1
 154 1 157 0 135 -0 c 0
 125 0 115 0 105 -0 c 1
237 104 m 1
 237 82 275 31 342 31 c 0xc8
 395 31 439 57 464 91 c 0
 509 151 518 294 518 311 c 0
 518 394 463 413 420 413 c 0
 352 413 290 368 279 346 c 0
 273 334 237 104 237 104 c 1
EndSplineSet
EndChar

StartChar: quotesingle
Encoding: 39 39 278
Width: 319
Flags: HW
TeX: 690 0
ItalicCorrection: 50
VStem: 200 131<581.469 687.634> 200 37<359 411.479>
LayerCount: 2
Fore
SplineSet
200 359 m 1x40
 200 411 l 2x40
 200 429 202 551 202 586 c 2
 202 612 l 2
 202 653 204 661 212 675 c 0
 225 698 251 710 277 710 c 2
 278 710 l 1
 309 709 331 690 331 661 c 0x80
 331 644 334 658 237 359 c 1
 200 359 l 1x40
EndSplineSet
EndChar

StartChar: asteriskmath
Encoding: 8727 8727 279
Width: 575
Flags: HW
TeX: 472 -27
HStem: 297 88<475.029 547.235>
VStem: 254 89<36.25 133.17> 314 89<367.28 463.625>
LayerCount: 2
Fore
SplineSet
101 154 m 0
 101 196 123 196 286 250 c 1
 134 307 130 304 130 331 c 0
 130 360 159 385 182 385 c 0
 199 385 200 381 315 282 c 1
 315 318 314 354 314 390 c 2
 314 417 l 2
 314 468 354 472 365 472 c 0
 384 472 403 460 403 439 c 0xa0
 403 432 406 437 354 283 c 1
 507 385 504 385 520 385 c 0
 539 385 556 369 556 346 c 0
 556 308 519 299 513 297 c 0
 400 260 385 254 371 250 c 1
 466 208 527 208 527 169 c 0
 527 140 498 115 475 115 c 0
 458 115 456 119 343 217 c 1
 343 82 l 2xc0
 343 32 303 28 292 28 c 0
 272 28 254 41 254 61 c 0xc0
 254 76 273 123 303 217 c 1
 156 118 155 115 138 115 c 0
 117 115 101 133 101 154 c 0
EndSplineSet
EndChar

StartChar: fraction
Encoding: 8260 8260 281
Width: 575
Flags: HW
TeX: 749 249
ItalicCorrection: 93
DStem2: 45 -179 95 -214 0.500998 0.865448<-44.0074 1070.34>
LayerCount: 2
Fore
SplineSet
27 -220 m 0
 27 -208 38 -191 45 -179 c 2
 566 721 l 2
 572 731 582 749 600 749 c 0
 615 749 629 736 629 720 c 0
 629 713 630 711 615 685 c 2
 95 -214 l 2
 90 -222 79 -249 56 -249 c 0
 40 -249 27 -236 27 -220 c 0
EndSplineSet
EndChar

StartChar: zerooldstyle
Encoding: 63280 63280 282
Width: 575
Flags: HW
TeX: 444 0
ItalicCorrection: 39
HStem: -11 37<222.809 364.951> 419 36<281.654 425.612>
VStem: 75 121<65.3227 271.292> 454 119<182.124 378.633>
LayerCount: 2
Fore
SplineSet
75 155 m 0
 75 218 95 324 157 386 c 0
 213 443 292 455 363 455 c 0
 475 455 573 424 573 286 c 0
 573 273 571 260 570 248 c 0
 549 54 449 -11 283 -11 c 0
 144 -11 75 41 75 155 c 0
196 103 m 0
 196 45 240 26 290 26 c 0
 328 26 370 36 395 68 c 0
 431 113 454 312 454 344 c 0
 454 365 450 419 359 419 c 0
 244 419 235 345 227 315 c 0
 220 287 196 161 196 103 c 0
EndSplineSet
EndChar

StartChar: oneoldstyle
Encoding: 63281 63281 283
Width: 575
Flags: HW
TeX: 444 0
HStem: 3 45<103 242 362 494> 360 48<152 293.656> 433 20G<384 410>
LayerCount: 2
Fore
SplineSet
95 0 m 1
 103 48 l 1
 242 48 l 1
 296 374 l 1
 246 363 195 360 144 360 c 1
 152 408 l 1
 347 408 367 453 401 453 c 0
 419 453 425 446 425 430 c 0
 425 417 362 48 362 48 c 1
 502 48 l 1
 494 -0 l 1
 378 3 339 3 300 3 c 0
 232 3 163 2 95 0 c 1
EndSplineSet
EndChar

StartChar: twooldstyle
Encoding: 63282 63282 284
Width: 575
Flags: HW
TeX: 444 0
ItalicCorrection: 33
HStem: 0 116<256 479.722> 408 47<218.256 396.463>
VStem: 121 111<313.255 394.44> 432 139<271.725 376.541>
LayerCount: 2
Fore
SplineSet
50 0 m 1
 57 43 52 40 90 62 c 0
 328 200 432 244 432 331 c 0
 432 362 407 408 301 408 c 0
 263 408 241 402 217 395 c 1
 226 383 232 375 232 359 c 0
 232 325 202 297 170 297 c 0
 141 297 121 316 121 344 c 0
 121 383 151 423 213 441 c 0
 251 452 296 455 342 455 c 0
 440 455 571 439 571 333 c 0
 571 229 456 204 374 170 c 0
 350 160 327 149 256 116 c 1
 268 116 l 2
 313 116 409 116 443 118 c 0
 466 119 478 120 499 181 c 1
 546 181 l 1
 486 0 l 1
 50 0 l 1
EndSplineSet
EndChar

StartChar: threeoldstyle
Encoding: 63283 63283 285
Width: 575
Flags: HW
TeX: 444 194
ItalicCorrection: 33
HStem: -205 43<140.256 308.139> 416 39<258.586 394.492>
VStem: 37 156<-98.2137 -9.03613> 131 141<267.421 364.191> 377 149<-73.5753 79.5942> 413 135<261.188 394.079>
LayerCount: 2
Fore
SplineSet
37 -73 m 0
 37 -13 80 23 126 23 c 0
 165 23 193 -3 193 -42 c 0
 193 -69 182 -111 122 -130 c 1
 129 -135 168 -162 239 -162 c 0
 295 -162 324 -130 333 -119 c 0
 373 -69 377 38 377 45 c 0
 377 89 359 132 289 132 c 0xe8
 273 132 257 132 241 132 c 0
 220 132 219 140 217 145 c 0
 215 155 221 162 222 163 c 0
 243 181 298 152 352 204 c 0
 395 245 413 312 413 355 c 0
 413 401 381 416 342 416 c 2
 341 416 l 1
 295 415 260 402 226 379 c 1
 261 368 272 345 272 321 c 0
 272 281 239 241 192 241 c 0
 159 241 131 264 131 301 c 0
 131 363 201 455 351 455 c 0
 473 455 548 406 548 333 c 0xd4
 548 317 544 262 487 212 c 0
 451 180 412 166 378 153 c 1
 451 140 526 95 526 7 c 0
 526 -6 524 -67 468 -125 c 0
 410 -184 323 -205 242 -205 c 0
 119 -205 37 -153 37 -73 c 0
EndSplineSet
EndChar

StartChar: fouroldstyle
Encoding: 63284 63284 286
Width: 575
Flags: HW
TeX: 444 194
HStem: -195 48<183 295 421 510> -0 48<94 319 453 542>
DStem2: 53 62 94 48 0.723314 0.690519<19.9886 422.437> 287.002 -195 413.002 -195 0.164359 0.986401<69.371 197.607 266.979 277.896 501.197 530.022>
LayerCount: 2
Fore
SplineSet
31 -0 m 1
 38 45 36 45 53 62 c 2
 450 441 l 2
 459 449 467 457 488 457 c 0
 512 457 517 451 517 439 c 0
 517 434 517 428 516 422 c 2
 471 155 l 2
 465 119 458 84 453 48 c 1
 550 48 l 1
 542 -0 l 1
 445 -0 l 1
 421 -147 l 1
 517 -147 l 1
 510 -195 l 1
 424 -192 376 -192 356 -192 c 2
 351 -192 l 2
 293 -192 234 -193 176 -195 c 1
 183 -147 l 1
 295 -147 l 1
 319 -0 l 1
 31 -0 l 1
94 48 m 1
 339 48 l 1
 385 326 l 1
 94 48 l 1
EndSplineSet
EndChar

StartChar: fiveoldstyle
Encoding: 63285 63285 287
Width: 575
Flags: HW
TeX: 444 194
ItalicCorrection: 10
HStem: -206 44<148.291 301.769> -102 135<110.518 162.149> 175 36<230.224 365.09> 300 124<224.253 394.694> 434 20G<189.5 203.5>
VStem: 49 137<-78.2962 7.07736> 386 134<-44.976 126.404>
LayerCount: 2
Fore
SplineSet
49 -58 m 0
 49 17 102 33 127 33 c 0
 161 33 186 9 186 -25 c 0
 186 -54 168 -98 109 -102 c 1
 133 -140 174 -162 225 -162 c 0
 275 -162 320 -139 344 -100 c 0
 375 -50 386 80 386 101 c 0
 386 160 350 175 315 175 c 0
 206 175 177 108 149 108 c 0
 133 108 129 118 129 130 c 0
 129 133 130 136 130 139 c 0
 130 140 178 430 180 438 c 0
 181 440 183 454 196 454 c 0
 211 454 260 424 358 424 c 0
 454 424 517 454 530 454 c 0
 537 454 544 447 544 438 c 0
 544 411 432 300 284 300 c 0
 260 300 236 302 212 307 c 1
 190 178 l 1
 236 204 276 211 322 211 c 0
 439 211 520 151 520 40 c 0
 520 -107 388 -206 227 -206 c 0
 126 -206 49 -147 49 -58 c 0
EndSplineSet
EndChar

StartChar: sevenoldstyle
Encoding: 63287 63287 289
Width: 575
Flags: HW
TeX: 444 194
ItalicCorrection: 74
HStem: 319 126<227.476 467>
VStem: 100 48<222 245.182> 168 122<-188.966 -60.0264> 177 48<453.818 477>
LayerCount: 2
Fore
SplineSet
100 222 m 1
 177 477 l 1
 225 477 l 1xd0
 228 448 250 451 321 448 c 0
 354 447 387 446 420 445 c 1
 632 445 l 1
 626 406 630 409 602 382 c 0
 456 241 437 225 420 206 c 0
 313 89 306 -113 290 -158 c 0
 282 -181 259 -205 224 -205 c 0xe0
 194 -205 168 -185 168 -151 c 0xe0
 168 -119 198 33 343 196 c 0
 366 222 379 234 467 319 c 1
 368 319 l 2
 322 319 245 319 215 317 c 0
 182 315 179 314 148 222 c 1
 100 222 l 1
EndSplineSet
EndChar

